<svg xmlns="http://www.w3.org/2000/svg" width="45" height="45" viewBox="0 0 45 45"><g id="Group_5" data-name="Group 5" transform="translate(-269.5 0.5)"><circle id="Oval_Copy_10" cx="22" cy="22" r="22" fill="none" stroke="#434565" stroke-miterlimit="10" stroke-width="1" data-name="Oval Copy 10" transform="translate(270)"/><path id="Shape" fill="#fff" d="M16.906,7.224a.785.785,0,0,1,.465.14.506.506,0,0,1,.171.325,2.1,2.1,0,0,1,.02.472c-.18,1.9-.962,6.5-1.36,8.627-.168.9-.5,1.2-.82,1.23-.7.065-1.225-.46-1.9-.9-1.056-.693-1.653-1.124-2.678-1.8-1.185-.78-.417-1.21.258-1.91.177-.184,3.247-2.977,3.307-3.23a.247.247,0,0,0-.056-.212.278.278,0,0,0-.249-.024Q13.905,9.976,9,13.285a2.261,2.261,0,0,1-1.3.48,8.5,8.5,0,0,1-1.865-.44c-.752-.245-1.349-.374-1.3-.789q.04-.324.893-.663,5.247-2.286,7-3.014C15.762,7.473,16.455,7.232,16.906,7.224Z" transform="translate(280 10)"/></g></svg>