<svg id="Group_10" data-name="Group 10" xmlns="http://www.w3.org/2000/svg" xmlns:xlink="http://www.w3.org/1999/xlink" width="26.544" height="31.831" viewBox="0 0 26.544 31.831">
  <defs>
    <clipPath id="clip-path">
      <path id="Clip_2" data-name="Clip 2" d="M0,0H26.544V31.831H0Z" fill="none"/>
    </clipPath>
  </defs>
  <g id="Group_3" data-name="Group 3">
    <path id="Clip_2-2" data-name="Clip 2" d="M0,0H26.544V31.831H0Z" fill="none"/>
    <g id="Group_3-2" data-name="Group 3" clip-path="url(#clip-path)">
      <path id="Fill_1" data-name="Fill 1" d="M13.274,31.832a4,4,0,0,1-2.108-.634c-2.7-1.657-5.587-3.467-9.081-5.694A4.442,4.442,0,0,1,.012,21.525C-.006,16.991,0,13.514.017,10.251A4.5,4.5,0,0,1,2.21,6.229L5.571,4.12C7.351,3,9.191,1.848,11.007.712A4.287,4.287,0,0,1,13.286,0a4.207,4.207,0,0,1,2.231.689C19.14,2.942,21.9,4.672,24.455,6.3a4.4,4.4,0,0,1,2.08,3.908c.013,1.326.01,2.673.007,3.976q0,.86,0,1.719v.93c0,1.524,0,3.1,0,4.65a4.544,4.544,0,0,1-2.163,4.1c-3.182,2.016-6.091,3.839-8.893,5.576A4.178,4.178,0,0,1,13.274,31.832Zm.01-30.126h0a2.853,2.853,0,0,0-1.543.494C9.032,3.912,6.12,5.748,3.171,7.569a3.16,3.16,0,0,0-1.583,2.954c.018,3.24.012,6.533.007,9.718l0,1.215A2.975,2.975,0,0,0,3.02,24.147l3.086,1.935.032.02c1.846,1.157,3.755,2.353,5.637,3.539a2.817,2.817,0,0,0,1.5.476,2.888,2.888,0,0,0,1.541-.492C17.4,28,20.147,26.273,23.48,24.189a3,3,0,0,0,1.48-2.776c-.015-1.3-.011-2.623-.008-3.9q0-.784,0-1.564,0-.83,0-1.659v-.034c0-1.293,0-2.631,0-3.948A2.918,2.918,0,0,0,23.54,7.67q-1.775-1.114-3.551-2.225l-.006,0c-1.7-1.067-3.468-2.17-5.2-3.26a2.813,2.813,0,0,0-1.5-.475Z" transform="translate(0 0)" fill="#67e0d4"/>
    </g>
  </g>
  <path id="Fill_4" data-name="Fill 4" d="M2.295,22.177H2.251c-.461-.024-.738-.383-.741-.961C1.5,19.805,1.5,18.377,1.505,17V16.94q0-.74,0-1.48V13.193c0-.656,0-1.32,0-1.962,0-1.929,0-3.923.007-5.886a.87.87,0,0,0-.437-.882A2.418,2.418,0,0,1,.109,1.691,2.3,2.3,0,0,1,2.288,0h.006A2.274,2.274,0,0,1,4.482,1.759a2.391,2.391,0,0,1-.994,2.707.843.843,0,0,0-.412.908c0,.035,0,.071,0,.107V20.947c0,.094,0,.191,0,.285C3.041,21.815,2.742,22.177,2.295,22.177ZM2.308,1.7H2.265a.658.658,0,0,0-.662.754.64.64,0,0,0,.682.7h.029c.411-.012.637-.263.672-.747C2.93,1.942,2.7,1.7,2.308,1.7Z" transform="translate(11.043 5.582)" fill="#ffd800"/>
  <path id="Fill_6" data-name="Fill 6" d="M6.135,15.326H6.122c-.48-.007-.767-.4-.767-1.052q0-.647,0-1.295v-.093c0-1.753,0-3.567.01-5.354a1.2,1.2,0,0,0-.389-1.022A4.485,4.485,0,0,1,4.4,5.893a1.964,1.964,0,0,0-1.622-.956,2.5,2.5,0,0,0-.373.03,2.007,2.007,0,0,1-.3.023A1.893,1.893,0,0,1,.7,4.365a2.783,2.783,0,0,1-.7-2.079A2.4,2.4,0,0,1,2.37,0a2.277,2.277,0,0,1,.362.029A2.334,2.334,0,0,1,4.3,1.075a2.6,2.6,0,0,1,.34,2.064A.778.778,0,0,0,4.86,4l.027.028C5.434,4.584,6,5.163,6.5,5.786a1.855,1.855,0,0,1,.4,1.013c.034.9.028,1.809.022,2.692,0,.345,0,.686,0,1.026s0,.681,0,1.021v.029c0,.893,0,1.817,0,2.728C6.9,14.941,6.616,15.326,6.135,15.326ZM2.354,1.692a.809.809,0,0,0-.782.788.876.876,0,0,0,.248.629.762.762,0,0,0,.53.251h.008a.757.757,0,0,0,.53-.243A.869.869,0,0,0,3.143,2.5a.814.814,0,0,0-.781-.8H2.354Z" transform="translate(4.341 9.756)" fill="#ffd800"/>
  <path id="Fill_8" data-name="Fill 8" d="M.793,12.757c-.462,0-.768-.393-.781-1C0,11.178,0,10.591.006,10.023v-.006q0-.379,0-.759H0q0-.174,0-.348c0-.229,0-.465,0-.7,0-.346,0-.628,0-.854C-.008,6.293-.008,6.293.643,5.62c.175-.181.392-.406.669-.712l.1-.11a2.775,2.775,0,0,1,.331-.337,1.323,1.323,0,0,0,.476-1.569,2.18,2.18,0,0,1,.291-1.7A2.532,2.532,0,0,1,4.123.044,2.079,2.079,0,0,1,4.548,0a2.425,2.425,0,0,1,2.3,2.028A2.475,2.475,0,0,1,5.061,4.966a2.7,2.7,0,0,1-.547.065,1.243,1.243,0,0,1-.367-.05.863.863,0,0,0-.261-.044,1.1,1.1,0,0,0-.682.333l-.049.039a4.077,4.077,0,0,0-1.59,4.046A9.574,9.574,0,0,1,1.6,11.012c-.009.237-.017.483-.018.723,0,.613-.282.994-.744,1.021ZM4.539,1.7H4.512a.768.768,0,0,0-.544.251.846.846,0,0,0-.211.626.827.827,0,0,0,.777.784h.024a.755.755,0,0,0,.528-.256.882.882,0,0,0,.232-.636A.794.794,0,0,0,4.539,1.7Z" transform="translate(15.332 12.326)" fill="#ffd800"/>
</svg>
