<svg xmlns="http://www.w3.org/2000/svg" width="89" height="74" viewBox="0 0 89 74"><g id="Group_22" data-name="Group 22" transform="translate(0 0)"><path id="Fill_6" fill="#0e95fc" d="M6.86,0C21.152.4,33.068,4.546,42.422,13.966A39.924,39.924,0,0,1,53.668,36.6c0,.029.006.058.009.087.155,1.286-.211,1.933-1.149,2.025s-1.385-.453-1.6-1.74C48.592,22.949,40.749,12.592,26.717,6.49A48.247,48.247,0,0,0,3.124,2.78c-.533.045-1.062.151-1.6.177C.66,3,.039,2.562,0,1.859A1.189,1.189,0,0,1,1.18.522C3.278.3,5.381.133,6.86,0" data-name="Fill 6" transform="translate(35.289 0.021)"/><g id="Group_21" data-name="Group 21"><path id="Fill_1" fill="#0e95fc" d="M25.745,69.14a1.689,1.689,0,0,1-.467-.071c-.843-.244-.914-.967-.97-1.549a25.146,25.146,0,0,1,.437-7.886,23.659,23.659,0,0,1,3.05-7.386A48.739,48.739,0,0,1,36.1,42.672c.672-.628,1.363-1.259,2.032-1.87,1.272-1.161,2.586-2.361,3.822-3.591a15.974,15.974,0,0,0,2.4-3.094,2.77,2.77,0,0,0-.636-3.608,9.589,9.589,0,0,0-3.7-2.189c-.251.355-.49.71-.722,1.054a22.29,22.29,0,0,1-1.562,2.136A8.185,8.185,0,0,1,31.248,34.4a15.756,15.756,0,0,0-3.533.464,2.848,2.848,0,0,0-2.4,2.529C25.122,39.737,22.6,41,20.332,41a5.4,5.4,0,0,1-1.068-.1A25.527,25.527,0,0,1,15.585,39.8,2.377,2.377,0,0,1,14,36.8c1.212-4.4,2.627-9.527,4.088-14.588.208-.725.057-1.06-.648-1.433-4.178-2.207-8.409-4.475-12.5-6.668L4.919,14.1,1.155,12.082l-.123-.068c-.067-.037-.135-.075-.2-.11A1.183,1.183,0,0,1,.107,10.3,1.252,1.252,0,0,1,1.371,9.49a2.729,2.729,0,0,1,.518.054c4,.783,8.077,1.57,12.016,2.331h.008l4.166.805c.325.063.662.155.988.243a7.083,7.083,0,0,0,1.775.328,2.454,2.454,0,0,0,.457-.04,3.906,3.906,0,0,0,1.668-1.035,9.288,9.288,0,0,1,.8-.646l.2-.137a8.084,8.084,0,0,1,1.54-.905,1.137,1.137,0,0,0,.7-.541,1.192,1.192,0,0,0-.144-.92c-.7-1.584-1.348-3.222-1.971-4.806l-.29-.736A2.29,2.29,0,0,1,24.538.5,2.566,2.566,0,0,1,26.071,0a3.4,3.4,0,0,1,1.8.564l1.272.79c2.232,1.385,4.54,2.817,6.789,4.256a3.241,3.241,0,0,0,1.852.511l.168,0c.58-.018,1.164-.026,1.738-.026A49.086,49.086,0,0,1,57.023,9.127a47.976,47.976,0,0,1,14.822,9.007,22.869,22.869,0,0,1,4.983,6.26,31.856,31.856,0,0,1,2.842,7.341,1.5,1.5,0,0,1-.12,1.187,1.229,1.229,0,0,1-.818.55,1.761,1.761,0,0,1-.366.041c-.689,0-1.173-.457-1.4-1.323a24.869,24.869,0,0,0-6.754-12,39.681,39.681,0,0,0-11.255-7.427A45.917,45.917,0,0,0,39.777,8.551h-.346c-.1,0-.2,0-.29-.008h-.009c-.084,0-.17-.007-.255-.007a1.6,1.6,0,0,0-.389.04,4.663,4.663,0,0,1-1.113.139,6.236,6.236,0,0,1-3.489-1.322c-1.48-1-3.038-1.956-4.544-2.878-.612-.375-1.245-.762-1.865-1.148-.163-.1-.33-.2-.56-.326l-.463-.264c.123.31.234.593.338.858.193.491.36.915.533,1.342q.365.905.734,1.809c.434,1.066.881,2.166,1.31,3.251a1.5,1.5,0,0,1,.079,1.176,1.267,1.267,0,0,1-.792.63c-3.846,1.375-6.14,4.013-7.217,8.3-.994,3.961-2.143,7.959-3.254,11.826-.475,1.655-.966,3.363-1.439,5.046-.02.071-.036.142-.06.249-.014.06-.03.132-.05.221.424.108.841.256,1.245.4a7.385,7.385,0,0,0,2.472.565,4.048,4.048,0,0,0,.416-.021c1.156-.12,1.6-.492,1.818-1.532a5.6,5.6,0,0,1,2.136-3.4,8.36,8.36,0,0,1,4.36-1.53c.619-.056,1.321-.12,2.012-.12q.128,0,.255,0l.141,0A5.21,5.21,0,0,0,35.358,30.2a10.788,10.788,0,0,0,2.925-6.668l.015-.124c.043-.357.087-.727.149-1.088a1.306,1.306,0,0,1,1.318-1.172c.051,0,.1,0,.155.007a1.24,1.24,0,0,1,1.191,1.413,21.383,21.383,0,0,1-.347,2.591c-.1.5.076.681.535.927.269.144.545.288.813.428A18.427,18.427,0,0,1,45.4,28.527a5.562,5.562,0,0,1,2.051,3.216,5.328,5.328,0,0,1-.726,3.681,17.024,17.024,0,0,1-2.888,3.632c-1.4,1.393-2.867,2.778-4.283,4.118-1.852,1.753-3.768,3.566-5.57,5.416a23.8,23.8,0,0,0-6.628,11.867c-.182.9-.286,1.836-.386,2.738-.046.416-.094.845-.149,1.266l.1.033.163.055.239-.179,0,0c.149-.111.3-.226.451-.343a24.033,24.033,0,0,1,7.384-3.968,26.808,26.808,0,0,1,8.347-1.269c.473,0,.957.011,1.439.032a1.647,1.647,0,0,1,1.19.458,1.169,1.169,0,0,1,.268.9c-.052.73-.61,1.133-1.569,1.133l-.1,0c-.305-.009-.611-.013-.911-.013-6.921,0-12.52,2.35-16.64,6.983A1.973,1.973,0,0,1,25.745,69.14Zm-15.534-55.4-.1.213,3.628,1.94L18.992,18.7c.379-1.059.716-2,1.088-3.046Z" data-name="Fill 1"/><path id="Combined_Shape" fill="#5bebf3" d="M15.779,40.193C11.6,37.837,7.343,35.405,2.758,32.759A4.932,4.932,0,0,1,.032,28.341C.019,26.5.022,24.629.024,22.819q0-1.162,0-2.325H.016c0-.734,0-1.48.009-2.2C.034,16.643.045,14.936,0,13.26a5.463,5.463,0,0,1,.764-3.093A6.447,6.447,0,0,1,3.231,7.942c3.539-1.968,7.285-4.1,12.143-6.922A6.831,6.831,0,0,1,18.851,0a6.772,6.772,0,0,1,3.441,1c4.531,2.617,8.555,4.913,12.3,7.019a5.5,5.5,0,0,1,3.119,5.116c-.014,2.834-.011,5.715-.008,8.5,0,2.13,0,4.33,0,6.493a4.979,4.979,0,0,1-2.651,4.554C31.1,34.974,26.425,37.667,21.7,40.3a5.768,5.768,0,0,1-2.828.764A6.279,6.279,0,0,1,15.779,40.193ZM17.045,3.036c-4.676,2.694-8.8,5.052-12.615,7.21a3,3,0,0,0-1.713,2.8c.008,3.862.006,7.788,0,11.585q0,1.705,0,3.408a2.82,2.82,0,0,0,1.56,2.616c3.626,2.068,7.312,4.173,10.876,6.209l.006,0L17.141,38a3.472,3.472,0,0,0,1.721.493,3.353,3.353,0,0,0,1.668-.472c3.063-1.744,6.148-3.509,9.132-5.215l.161-.093,3.565-2.038a2.791,2.791,0,0,0,1.563-2.605c-.016-1.765-.014-3.56-.011-5.3q0-1.143,0-2.287,0-1.1,0-2.2c0-1.736-.01-3.532.014-5.3a2.889,2.889,0,0,0-1.659-2.733C28.927,7.777,24.683,5.351,20.677,3.05a3.634,3.634,0,0,0-1.836-.537A3.543,3.543,0,0,0,17.045,3.036Zm1.763,26.24a9.823,9.823,0,0,1-6.7-2.569,8.389,8.389,0,0,1-.286-12.237,9.857,9.857,0,0,1,7.059-2.834H18.9a9.909,9.909,0,0,1,6.688,2.573,8.338,8.338,0,0,1,2.83,6.122,8.522,8.522,0,0,1-2.749,6.311,9.958,9.958,0,0,1-6.777,2.635ZM12,20.415a5.946,5.946,0,0,0,1.768,4.232,7.11,7.11,0,0,0,4.987,2.108h.07A6.6,6.6,0,0,0,25.662,20.5a6.563,6.563,0,0,0-6.721-6.333h-.061A6.65,6.65,0,0,0,12,20.415Z" data-name="Combined Shape" transform="translate(50.143 32.938)"/><path id="Fill_8" fill="#5bebf3" d="M0,3.649A3.832,3.832,0,0,1,3.416.026C4.629-.143,5.37.534,5.17,1.647A4.2,4.2,0,0,1,2.225,5.081C.856,5.557-.023,4.989,0,3.649" data-name="Fill 8" transform="translate(25.43 17.277)"/></g></g></svg>