<svg xmlns="http://www.w3.org/2000/svg" id="Group_17" width="94.828" height="100.001" data-name="Group 17" viewBox="0 0 94.828 100.001"><path id="Fill_3" fill="#5bebf3" d="M4.652,2.358A2.337,2.337,0,0,1,2.271,4.7,2.353,2.353,0,0,1,2.4,0,2.3,2.3,0,0,1,4.652,2.358" data-name="Fill 3" transform="translate(43.142 16.03)"/><path id="Fill_5" fill="#5bebf3" d="M2.306,4.653A2.266,2.266,0,0,1,0,2.367,2.3,2.3,0,0,1,2.345,0a2.355,2.355,0,0,1,2.32,2.311A2.273,2.273,0,0,1,2.306,4.653" data-name="Fill 5" transform="translate(8.039 51.805)"/><g id="Group_16" data-name="Group 16"><path id="Fill_7" fill="#5bebf3" d="M2.309,0A2.25,2.25,0,0,1,4.657,2.241,2.261,2.261,0,0,1,2.383,4.655,2.313,2.313,0,0,1,0,2.32,2.349,2.349,0,0,1,2.309,0" data-name="Fill 7" transform="translate(90.169 51.811)"/></g><path id="Fill_9" fill="#5bebf3" d="M2.345,4.643A2.277,2.277,0,0,1,0,2.29,2.278,2.278,0,0,1,2.31,0,2.257,2.257,0,0,1,4.645,2.356a2.25,2.25,0,0,1-2.3,2.287" data-name="Fill 9" transform="translate(43.149 8.041)"/><path id="Clip_12" fill="none" d="M0,0H4.664V4.649H0Z" data-name="Clip 12" transform="translate(0 51.809)"/><path id="Fill_14" fill="#5bebf3" d="M0,2.256A2.319,2.319,0,0,1,2.36,0,2.294,2.294,0,0,1,4.652,2.42a2.267,2.267,0,0,1-2.46,2.229A2.244,2.244,0,0,1,0,2.256" data-name="Fill 14" transform="translate(74.157 51.806)"/><path id="Fill_16" fill="#5bebf3" d="M4.644,2.32A2.319,2.319,0,0,1,2.308,4.7,2.352,2.352,0,0,1,2.345,0a2.33,2.33,0,0,1,2.3,2.32" data-name="Fill 16" transform="translate(43.149 87.317)"/><path id="Clip_19" fill="none" d="M0,0H4.653V4.65H0Z" data-name="Clip 19" transform="translate(43.149 95.35)"/><path id="Clip_22" fill="none" d="M0,0H4.652V4.707H0Z" data-name="Clip 22" transform="translate(43.143 0)"/><g id="Group_15" data-name="Group 15"><path id="Fill_1" fill="#0e95fc" d="M16.109,69.245H1.931C.5,69.243.017,68.749.016,67.284V58.716c0-16.149,0-32.846-.016-49.268A1.938,1.938,0,0,1,.982,7.615C2.718,6.5,4.476,5.354,6.176,4.246c1.887-1.229,3.837-2.5,5.765-3.735A2.993,2.993,0,0,1,13.436.043C14.585.023,15.83.014,17.354.014c.9,0,1.822,0,2.71.006l1.275,0c1.188,0,1.792.488,1.795,1.44s-.61,1.48-1.769,1.49c-.442,0-.909.006-1.47.006l-1.359,0h-.011l-1.29,0c-.753,0-1.747,0-2.76.027a3.482,3.482,0,0,0-1.685.484c-1.5.93-3,1.918-4.446,2.874q-.774.511-1.55,1.019l.053.152.029.083H25.6c7.081,0,15.107,0,23.009-.027a3.752,3.752,0,0,0,1.868-.555,56.4,56.4,0,0,0,5.783-4.046H55.219l-9.474,0-9.474,0-.25,0-.251,0c-.162,0-.292,0-.411-.015-.992-.085-1.561-.657-1.523-1.531s.638-1.4,1.642-1.4c1.4,0,2.9-.006,4.857-.006h6.592C50.819.012,54.774.008,58.6,0L61.52,0a1.738,1.738,0,0,1,1.264.411A1.69,1.69,0,0,1,63.2,1.658q-.01,9.34-.018,18.679v.228l-.009,9.453q0,.063,0,.127c0,.125,0,.253,0,.38-.033,1.116-.6,1.809-1.481,1.809h-.008c-.9,0-1.454-.7-1.454-1.822,0-5.94,0-11.981,0-17.822V4.28c-.13.067-.24.121-.337.169a3.95,3.95,0,0,0-.419.225q-1.162.755-2.322,1.514l-.006,0c-1.626,1.063-3.308,2.161-4.974,3.225a1.37,1.37,0,0,0-.692,1.321c.012,13.433.013,27.073.014,40.264q0,6.406,0,12.811c0,.221.013.447.028.708.007.125.015.26.022.41.126-.068.241-.128.343-.18.2-.1.365-.189.522-.29.748-.485,1.506-.98,2.239-1.46,1.573-1.028,3.2-2.09,4.813-3.108a1.523,1.523,0,0,0,.779-1.484c-.022-3.664-.022-7.569,0-12.661a2.161,2.161,0,0,1,.262-1.243,1.822,1.822,0,0,1,1.175-.654.646.646,0,0,1,.068,0,2.133,2.133,0,0,1,1.237.849,1.791,1.791,0,0,1,.188,1.042c0,.043,0,.084,0,.125,0,1.743,0,3.515,0,5.229v.009c0,2.768,0,5.626.015,8.437a2.307,2.307,0,0,1-1.153,2.18c-1.732,1.109-3.482,2.249-5.175,3.352-1.838,1.2-3.738,2.435-5.619,3.635a3.337,3.337,0,0,1-1.683.51C37.722,69.242,26.008,69.245,16.109,69.245ZM3.9,10.5a1.08,1.08,0,0,0-.789.221,1.3,1.3,0,0,0-.214.934c.011,13.2.014,26.622.017,39.6q0,6.988,0,13.976c0,.219.016.436.033.666.008.113.017.228.024.347H48.514V10.53H38.843c-11.447,0-23.283,0-34.932-.027Z" data-name="Fill 1" transform="translate(16.774 15.726)"/><path id="Fill_11" fill="#5bebf3" d="M2.347,4.649A2.276,2.276,0,0,1,0,2.29,2.349,2.349,0,0,1,2.337,0,2.282,2.282,0,0,1,4.664,2.378,2.254,2.254,0,0,1,2.347,4.649" data-name="Fill 11" transform="translate(0 51.809)"/><path id="Fill_18" fill="#5bebf3" d="M2.281,0a2.285,2.285,0,0,1,2.37,2.232A2.27,2.27,0,0,1,2.375,4.65,2.274,2.274,0,0,1,0,2.428,2.3,2.3,0,0,1,2.281,0" data-name="Fill 18" transform="translate(43.149 95.35)"/><path id="Fill_21" fill="#5bebf3" d="M4.652,2.421A2.332,2.332,0,0,1,2.32,4.707,2.366,2.366,0,0,1,0,2.286,2.368,2.368,0,0,1,2.35,0a2.336,2.336,0,0,1,2.3,2.421" data-name="Fill 21" transform="translate(43.143)"/></g><path id="Fill_24" fill="#5bebf3" d="M2.369,4.649A2.324,2.324,0,1,1,2.327,0,2.366,2.366,0,0,1,4.7,2.365a2.3,2.3,0,0,1-2.33,2.283" data-name="Fill 24" transform="translate(82.155 51.809)"/><path id="Combined_Shape" fill="#5bebf3" d="M2.239,47.038A2.107,2.107,0,0,1,.048,44.353,7,7,0,0,1,5.912,38.57c3.8-.607,7.591-1.233,11.395-1.8.742-.111.939-.4.924-1.108-.041-2.025-.021-4.051-.012-6.077.005-1.185.5-1.785,1.445-1.794s1.476.58,1.483,1.765q.026,3.95,0,7.9c-.007,1.257-.388,1.7-1.615,1.894Q13.188,40.37,6.84,41.367a4.318,4.318,0,0,0-3.7,2.753H9.969c3.107,0,6.214-.007,9.32,0,1.128,0,1.835.566,1.855,1.437.022.93-.665,1.486-1.884,1.487q-3.908,0-7.817,0Q6.841,47.047,2.239,47.038ZM26.818,46.9c-.642-.095-1-.608-1.07-1.527-.22-2.925-.447-5.9-.668-8.771l-.163-2.129c-.061-.8-.121-1.608-.178-2.392v-.005c-.139-1.9-.284-3.855-.456-5.778a4.326,4.326,0,0,0-2.38-3.547c-1.442-.776-2.93-1.531-4.422-2.245a1.9,1.9,0,0,0-.792-.177,1.3,1.3,0,0,0-.348.044,9.293,9.293,0,0,1-2.5.36,7.945,7.945,0,0,1-2.77-.5,1.265,1.265,0,0,0-.436-.085,1.62,1.62,0,0,0-1.07.569,4.215,4.215,0,0,1-.322.276c-.164.123-.01.864.172,1.224a8.606,8.606,0,0,0,5.114,4.192c.16.059.327.112.487.163.22.069.446.141.661.231a1.349,1.349,0,0,1,.811,1.825,1.305,1.305,0,0,1-1.235.983,1.5,1.5,0,0,1-.456-.076c-.9-.289-1.785-.664-2.642-1.027-.271-.115-.552-.234-.828-.348a6.06,6.06,0,0,1-.617-.319c-.131-.075-.281-.158-.458-.254a15.851,15.851,0,0,0,2.5,5.359,2.281,2.281,0,0,1,.573,1.337,1.275,1.275,0,0,1-.538,1.052,1.4,1.4,0,0,1-.869.333,1.964,1.964,0,0,1-1.468-.91c-1.953-2.475-2.8-5.39-3.564-8.409-.144-.57-.273-1.152-.4-1.715q-.09-.414-.184-.824L6.233,23.8l-.282-.067c-.1.308-.213.618-.324.919a11.424,11.424,0,0,0-.6,2.021c-.328,1.963-.615,3.966-.893,5.9-.165,1.151-.335,2.337-.511,3.5-.151.994-.632,1.5-1.429,1.5a2.017,2.017,0,0,1-.229-.014,1.3,1.3,0,0,1-.929-.472,1.811,1.811,0,0,1-.262-1.4q.132-.972.261-1.946v-.007c.363-2.713.737-5.519,1.224-8.257a9.554,9.554,0,0,1,4.256-6.292c.188-.13.382-.259.568-.384s.363-.242.543-.366c-.205-.51-.437-1.006-.661-1.486a10.7,10.7,0,0,1-1.108-3.162,27.62,27.62,0,0,1,.031-7.15A7.838,7.838,0,0,1,13.83,0c.085,0,.169,0,.254,0a8.062,8.062,0,0,1,5.259,2.107A8.867,8.867,0,0,1,22.055,7.14c.6,3.429,1.348,6.889,2.074,10.236.257,1.189.524,2.418.78,3.629a1.876,1.876,0,0,0,.456.766,7.713,7.713,0,0,1,1.889,4.7q.146,1.889.292,3.777c.373,4.817.759,9.795,1.114,14.694a2.172,2.172,0,0,1-.343,1.495,1.94,1.94,0,0,1-1.29.474A1.425,1.425,0,0,1,26.818,46.9Zm-8.57-29.363a20.2,20.2,0,0,0,2.121,1.138c.351.171.712.347,1.087.54-.27-1.327-.527-2.65-.776-3.93-.587-3.023-1.141-5.877-1.843-8.742a4.93,4.93,0,0,0-4.809-3.619,4.87,4.87,0,0,0-1.8.341c0,.035,0,.072,0,.11a1.368,1.368,0,0,0,.025.263,7,7,0,0,0,.192.679,11.865,11.865,0,0,0,4.708,6.144,1.787,1.787,0,0,1,.818,1.118,1.37,1.37,0,0,1-.255,1.045,1.33,1.33,0,0,1-1.124.606,2.052,2.052,0,0,1-1.11-.376,14.517,14.517,0,0,1-5.293-6.237c-.13-.287-.257-.582-.406-.924l0-.008c-.072-.165-.149-.343-.235-.541-.05.089-.093.16-.128.221l0,0h0c-.059.1-.1.172-.139.247s-.078.142-.118.211a1.667,1.667,0,0,0-.229.515,17.341,17.341,0,0,0,.074,8.092,4.878,4.878,0,0,0,4.77,3.368,5.509,5.509,0,0,0,2.105-.418,2.9,2.9,0,0,1,1.11-.254A2.249,2.249,0,0,1,18.248,17.536Z" data-name="Combined Shape" transform="translate(28.178 30.671)"/></svg>