<svg id="Group_571_Copy" data-name="Group 571 Copy" xmlns="http://www.w3.org/2000/svg" xmlns:xlink="http://www.w3.org/1999/xlink" width="715.378" height="218.247" viewBox="0 0 715.378 218.247">
  <defs>
    <clipPath id="clip-path">
      <path id="Clip_72" data-name="Clip 72" d="M0,0H1.361V2.161H0Z" fill="none"/>
    </clipPath>
    <clipPath id="clip-path-2">
      <path id="Clip_467" data-name="Clip 467" d="M0,0H1.267V1.185H0Z" transform="translate(0)" fill="none"/>
    </clipPath>
  </defs>
  <path id="Fill_1" data-name="Fill 1" d="M4.468,1.8A7.567,7.567,0,0,0,1.493.084,1.323,1.323,0,0,0,.945.006,1.083,1.083,0,0,0,.166.688,2.218,2.218,0,0,0,.69,3.115a2.75,2.75,0,0,0,2.457.646,1.855,1.855,0,0,0,1.2-.746,1.041,1.041,0,0,0-.134-1.323.225.225,0,0,0-.115.36Z" transform="translate(661.333 71.433)" fill="#43c5f7"/>
  <path id="Fill_3" data-name="Fill 3" d="M3.973,0A7.589,7.589,0,0,0,.632.8a1.339,1.339,0,0,0-.452.322,1.081,1.081,0,0,0-.095,1.03,2.22,2.22,0,0,0,2.051,1.4A2.75,2.75,0,0,0,4.363,2.33,1.855,1.855,0,0,0,4.722.961,1.044,1.044,0,0,0,3.713.094a.226.226,0,0,0,.164.341Z" transform="translate(583.91 48.876)" fill="#43c5f7"/>
  <path id="Fill_5" data-name="Fill 5" d="M1.907.429A1.961,1.961,0,0,0,.033.112,2.061,2.061,0,0,0,.549,1.944a1.248,1.248,0,0,0,1.762-.031C2.72,1.394,2.308.435,1.65.5Z" transform="translate(664.272 77.938)" fill="#43c5f7"/>
  <path id="Fill_7" data-name="Fill 7" d="M.883.084A2.271,2.271,0,0,0,.215.041.128.128,0,0,0,.138.065.1.1,0,0,0,.112.146c0,.232.311.427.211.636C.3.82.274.856.279.9.289.966.385.979.452.96A.612.612,0,0,0,.792.083l.1.032Z" transform="translate(666.154 69.092)" fill="#43c5f7"/>
  <path id="Fill_9" data-name="Fill 9" d="M1.454.1A4.3,4.3,0,0,0,.194.015.234.234,0,0,0,.05.061.2.2,0,0,0,0,.213c.01.437.588.805.4,1.2-.034.071-.092.139-.082.217.018.131.2.154.326.119A1.153,1.153,0,0,0,1.282.095l.183.06Z" transform="translate(664.804 61.767)" fill="#43c5f7"/>
  <path id="Fill_11" data-name="Fill 11" d="M1.454.1A4.3,4.3,0,0,0,.194.015.234.234,0,0,0,.05.061.2.2,0,0,0,0,.213c.01.437.588.805.4,1.2-.034.072-.092.14-.082.218.018.13.2.153.326.118A1.152,1.152,0,0,0,1.282.095l.183.06Z" transform="translate(675.541 56.611)" fill="#43c5f7"/>
  <path id="Fill_13" data-name="Fill 13" d="M.937.4A1.011,1.011,0,0,0,.063.236a1.037,1.037,0,0,0,.132.39A.356.356,0,0,0,.546.794C.73.752.808.538.856.356L.935.49Z" transform="translate(656.337 73.971)" fill="#43c5f7"/>
  <path id="Fill_15" data-name="Fill 15" d="M.546.114A.391.391,0,0,0,.3.191a.423.423,0,0,0-.1.225A3.816,3.816,0,0,1,0,1.067L1.013.548A.211.211,0,0,1,1.1.518c.1-.007.162.121.254.172.134.074.3-.034.4-.15C2.463-.291,1.015.073.546.114" transform="translate(594.435 64.705)" fill="#43c5f7"/>
  <path id="Fill_17" data-name="Fill 17" d="M.789.091A.4.4,0,0,0,.536.1a.42.42,0,0,0-.157.19A3.794,3.794,0,0,1,0,.855L1.117.637a.228.228,0,0,1,.09,0c.1.021.123.161.2.235.109.109.294.05.423-.034C2.743.234,1.251.182.789.091" transform="translate(650.357 57.656)" fill="#43c5f7"/>
  <path id="Fill_19" data-name="Fill 19" d="M.438.4.108.445A.532.532,0,0,0,.542.889C.763.906.976.641.858.452.786.336.625.182.742.111Z" transform="translate(603.693 41.695)" fill="#43c5f7"/>
  <path id="Fill_21" data-name="Fill 21" d="M.741.111a.478.478,0,0,1,0,.779A.478.478,0,0,1,.057.525.478.478,0,0,1,.7.092Z" transform="translate(657.294 52.599)" fill="#43c5f7"/>
  <path id="Fill_23" data-name="Fill 23" d="M.179.161C.407.061.727-.014.859.2S.8.648.628.813C.554.884.458.961.36.933.118.866.321.4.1.282.095.209.227.19.243.26Z" transform="translate(661.057 65.411)" fill="#43c5f7"/>
  <path id="Fill_25" data-name="Fill 25" d="M.888.644A.456.456,0,0,1,1.164.639.776.776,0,0,1,.559.973C.427,1,.262,1,.194.886.146.807.169.705.153.613.119.43-.074.246.031.092A.228.228,0,0,1,.316.04.676.676,0,0,1,.54.258C.678.442.816.627.952.811Z" transform="translate(659.774 75.309)" fill="#43c5f7"/>
  <path id="Fill_27" data-name="Fill 27" d="M.507.227C.336.136.159.405.245.578A.706.706,0,0,0,.727.869.679.679,0,0,0,.576.131Z" transform="translate(661.215 79.205)" fill="#43c5f7"/>
  <path id="Fill_29" data-name="Fill 29" d="M.612.035A.684.684,0,0,0,.333.005a.236.236,0,0,0-.2.172C.1.33.274.445.318.594s-.04.332.053.458a.263.263,0,0,0,.4-.033.668.668,0,0,0,.1-.442.757.757,0,0,0-.09-.4A.3.3,0,0,0,.426.049Z" transform="translate(680.558 83.922)" fill="#43c5f7"/>
  <path id="Fill_31" data-name="Fill 31" d="M.718.37A.177.177,0,0,1,.739.613.333.333,0,0,1,.5.722.321.321,0,0,1,.341.7.23.23,0,0,1,.254.381.244.244,0,0,1,.58.312.263.263,0,0,1,.671.638Z" transform="translate(628.667 82.558)" fill="#43c5f7"/>
  <path id="Fill_33" data-name="Fill 33" d="M.718.37A.177.177,0,0,1,.739.613.333.333,0,0,1,.5.722.319.319,0,0,1,.341.7.23.23,0,0,1,.254.381.244.244,0,0,1,.58.312.263.263,0,0,1,.671.638Z" transform="translate(653.159 90.534)" fill="#43c5f7"/>
  <path id="Fill_35" data-name="Fill 35" d="M.664.608A.27.27,0,0,0,.336.28a.476.476,0,0,0-.007.3A.227.227,0,0,0,.56.731.154.154,0,0,0,.668.5Z" transform="translate(657.19 76.596)" fill="#43c5f7"/>
  <path id="Fill_37" data-name="Fill 37" d="M.665.608A.27.27,0,0,0,.336.28a.469.469,0,0,0-.006.3A.227.227,0,0,0,.561.731.153.153,0,0,0,.669.5Z" transform="translate(652.065 64.529)" fill="#43c5f7"/>
  <path id="Fill_39" data-name="Fill 39" d="M.769.359A.774.774,0,0,0,.184.027C.19.217.2.407.2.6a.52.52,0,0,0,.053.26A.307.307,0,0,0,.711.886.43.43,0,0,0,.764.4Z" transform="translate(658.012 72.604)" fill="#43c5f7"/>
  <path id="Fill_41" data-name="Fill 41" d="M.025.387,1.05.272c.092.151-.112.3-.278.364A.9.9,0,0,1,.257.712C.087.669-.056.474.021.316Z" transform="translate(686.299 47.64)" fill="#43c5f7"/>
  <path id="Fill_43" data-name="Fill 43" d="M.818.251a.367.367,0,0,0-.6-.118.538.538,0,0,0,.033.69A.4.4,0,0,0,.524.977a.385.385,0,0,0,.351-.3,1.126,1.126,0,0,0-.02-.5Z" transform="translate(679.723 51.203)" fill="#43c5f7"/>
  <path id="Fill_45" data-name="Fill 45" d="M.7.493A.588.588,0,0,0,.188.071.7.7,0,0,0,.155.564.473.473,0,0,0,.65.922c.219-.044.316-.4.116-.5Z" transform="translate(659.123 65.491)" fill="#43c5f7"/>
  <path id="Fill_47" data-name="Fill 47" d="M.611.32A.35.35,0,0,1,.774.725L.254.783A.4.4,0,0,1,.516.217Z" transform="translate(660.935 67.333)" fill="#43c5f7"/>
  <path id="Fill_49" data-name="Fill 49" d="M.64.223l.2-.069a1.136,1.136,0,0,1-.1.471.385.385,0,0,1-.4.214C.186.8.1.574.216.466A.831.831,0,0,1,.645.246Z" transform="translate(665.865 69.427)" fill="#43c5f7"/>
  <path id="Fill_51" data-name="Fill 51" d="M.613.214A.356.356,0,0,1,.739.572a.355.355,0,0,1-.28.257C.368.843.251.8.252.7A.2.2,0,0,1,.294.6L.567.168.634.227Z" transform="translate(658.926 80.213)" fill="#43c5f7"/>
  <path id="Fill_53" data-name="Fill 53" d="M.369.149C.39.315.581.394.745.43s.355.085.413.241A.143.143,0,0,1,1.15.8C1.083.9.936.824.82.806A1.2,1.2,0,0,0,.541.831.561.561,0,0,1,0,.508.32.32,0,0,1,.2.235a.316.316,0,0,1,.33.078Z" transform="translate(656.362 81.77)" fill="#43c5f7"/>
  <path id="Fill_55" data-name="Fill 55" d="M.418.389.3.539a.233.233,0,0,0,.261.13A.2.2,0,0,0,.689.42.168.168,0,0,0,.427.367Z" transform="translate(655.099 82.681)" fill="#43c5f7"/>
  <path id="Fill_57" data-name="Fill 57" d="M.418.389.3.539a.233.233,0,0,0,.261.13A.2.2,0,0,0,.689.42.168.168,0,0,0,.427.367Z" transform="translate(656.885 86.823)" fill="#43c5f7"/>
  <path id="Fill_59" data-name="Fill 59" d="M.021.919C.124.993.268.878.292.754A3.64,3.64,0,0,0,.285.378.452.452,0,0,1,.471.052.223.223,0,0,1,.684.014a.278.278,0,0,1,.1.11,1.343,1.343,0,0,1,.239.693.635.635,0,0,1-.362.6.5.5,0,0,1-.487-.079A.5.5,0,0,1,.007.874Z" transform="translate(657.875 74.883)" fill="#43c5f7"/>
  <path id="Fill_61" data-name="Fill 61" d="M.022.919c.1.074.246-.041.27-.164A3.635,3.635,0,0,0,.285.379.45.45,0,0,1,.472.052.22.22,0,0,1,.684.014a.271.271,0,0,1,.1.11,1.347,1.347,0,0,1,.239.694.636.636,0,0,1-.361.6.5.5,0,0,1-.488-.079A.5.5,0,0,1,.007.874Z" transform="translate(583.557 22.692)" fill="#43c5f7"/>
  <path id="Fill_63" data-name="Fill 63" d="M.021.919C.124.993.268.878.292.754A3.64,3.64,0,0,0,.285.378.45.45,0,0,1,.472.052.22.22,0,0,1,.684.014a.278.278,0,0,1,.1.11,1.346,1.346,0,0,1,.239.693.634.634,0,0,1-.362.6.5.5,0,0,1-.487-.079A.5.5,0,0,1,.007.874Z" transform="translate(579.172 74.961)" fill="#43c5f7"/>
  <path id="Fill_65" data-name="Fill 65" d="M.022.919C.124.993.268.878.293.754S.274.5.285.378A.453.453,0,0,1,.472.052.221.221,0,0,1,.684.014a.271.271,0,0,1,.1.11,1.357,1.357,0,0,1,.24.694.639.639,0,0,1-.362.6.5.5,0,0,1-.488-.08A.5.5,0,0,1,.007.874Z" transform="translate(645.358 63.19)" fill="#43c5f7"/>
  <path id="Fill_67" data-name="Fill 67" d="M.022.919C.124.993.268.878.293.755S.274.5.285.378A.453.453,0,0,1,.472.052.221.221,0,0,1,.684.014a.28.28,0,0,1,.1.11,1.365,1.365,0,0,1,.239.694.637.637,0,0,1-.362.6.5.5,0,0,1-.488-.079A.5.5,0,0,1,.007.874Z" transform="translate(628.376 55.249)" fill="#43c5f7"/>
  <path id="Fill_69" data-name="Fill 69" d="M.749.278A.3.3,0,0,0,.329.252.434.434,0,0,0,.207.681C.222.748.268.824.337.82A.172.172,0,0,0,.448.739L.807.285Z" transform="translate(655.018 72.934)" fill="#43c5f7"/>
  <g id="Group_73" data-name="Group 73" transform="translate(714.017 59.776)">
    <path id="Clip_72-2" data-name="Clip 72" d="M0,0H1.361V2.161H0Z" fill="none"/>
    <g id="Group_73-2" data-name="Group 73" clip-path="url(#clip-path)">
      <path id="Fill_71" data-name="Fill 71" d="M1.273,1.3A1.546,1.546,0,0,0,1.088.136.254.254,0,0,0,.938,0C.785-.026.716.181.638.315.5.543.2.632.073.86a.959.959,0,0,0-.039.632c.052.307.2.7.515.668a.57.57,0,0,0,.373-.281A3.031,3.031,0,0,0,1.361.964Z" fill="#43c5f7"/>
    </g>
  </g>
  <path id="Fill_74" data-name="Fill 74" d="M1.273,1.3A1.546,1.546,0,0,0,1.089.136.256.256,0,0,0,.938,0C.785-.026.717.181.638.315.5.543.2.632.073.861a.956.956,0,0,0-.039.631c.052.307.206.7.515.668a.572.572,0,0,0,.374-.281A3.059,3.059,0,0,0,1.361.965Z" transform="translate(637.417 39.817)" fill="#43c5f7"/>
  <path id="Fill_76" data-name="Fill 76" d="M.919.7C1.066.5.829.251.619.123A.5.5,0,0,0,.19.02C0,.1-.013.361.007.567.024.745.041.924.059,1.1a.27.27,0,0,0,.087.215.265.265,0,0,0,.2.016A2.5,2.5,0,0,0,1.315.9Z" transform="translate(659.361 58.613)" fill="#43c5f7"/>
  <path id="Fill_78" data-name="Fill 78" d="M2.64,2.469C4.131.872,2.109-.7.547.328-1.089,1.4,1.341,3.859,2.64,2.469" transform="translate(663.004 62.733)" fill="#43c5f7"/>
  <path id="Fill_80" data-name="Fill 80" d="M2.64,2.469C4.131.871,2.109-.7.547.327-1.089,1.4,1.341,3.859,2.64,2.469" transform="translate(662.691 51.641)" fill="#43c5f7"/>
  <path id="Fill_82" data-name="Fill 82" d="M.633.374a.512.512,0,0,1-.348.733A1.285,1.285,0,0,1,.138.392C.184.149.441-.069.67.021.738.148.807.275.874.4Z" transform="translate(662.768 76.913)" fill="#43c5f7"/>
  <path id="Fill_84" data-name="Fill 84" d="M.416.1C.345-.046.229.026.195.188a1.9,1.9,0,0,0,.014.56q.079.64.157,1.281a1.2,1.2,0,0,0,.191.629c.1.087.2-.027.236-.2a2.464,2.464,0,0,0,.02-.6A3.38,3.38,0,0,0,.351,0C.318.112.287.225.256.337Z" transform="translate(658.137 24.944)" fill="#43c5f7"/>
  <path id="Fill_86" data-name="Fill 86" d="M.588.256A.133.133,0,0,1,.764.332a.311.311,0,0,1-.01.212A.367.367,0,0,1,.67.7.258.258,0,0,1,.35.715.324.324,0,0,1,.225.409.21.21,0,0,1,.3.262.113.113,0,0,1,.453.275Z" transform="translate(657.573 83.388)" fill="#43c5f7"/>
  <path id="Fill_88" data-name="Fill 88" d="M.567.408.366.4A.424.424,0,0,0,.393.7C.45.79.61.8.643.7A.215.215,0,0,0,.637.59C.609.469.58.348.551.227Z" transform="translate(655.613 77.358)" fill="#43c5f7"/>
  <path id="Fill_90" data-name="Fill 90" d="M.942.251A1.237,1.237,0,0,0,.473.106a.417.417,0,0,0-.4.228.369.369,0,0,0,0,.241.475.475,0,0,0,.594.3A.477.477,0,0,0,.92.259Z" transform="translate(644.051 73.482)" fill="#43c5f7"/>
  <path id="Fill_92" data-name="Fill 92" d="M.941.251A1.2,1.2,0,0,0,.472.106a.415.415,0,0,0-.4.228.369.369,0,0,0,0,.241A.474.474,0,0,0,.659.869.476.476,0,0,0,.92.259Z" transform="translate(616.866 61.192)" fill="#43c5f7"/>
  <path id="Fill_94" data-name="Fill 94" d="M.32.226A.333.333,0,0,1,.7.652.937.937,0,0,1,.331.784.588.588,0,0,1,.316.361Z" transform="translate(652.742 62.295)" fill="#43c5f7"/>
  <path id="Fill_96" data-name="Fill 96" d="M.32.226A.333.333,0,0,1,.7.652.916.916,0,0,1,.331.783.585.585,0,0,1,.315.361Z" transform="translate(439.981 9.864)" fill="#43c5f7"/>
  <path id="Fill_98" data-name="Fill 98" d="M.634.345.3.395a.588.588,0,0,0,.03.253A.316.316,0,0,0,.7.4Z" transform="translate(667.18 78.085)" fill="#43c5f7"/>
  <path id="Fill_100" data-name="Fill 100" d="M4.469,1.8A7.571,7.571,0,0,0,1.493.084,1.32,1.32,0,0,0,.945.006,1.085,1.085,0,0,0,.166.688,2.218,2.218,0,0,0,.69,3.115a2.748,2.748,0,0,0,2.457.646,1.853,1.853,0,0,0,1.2-.746,1.042,1.042,0,0,0-.135-1.323.225.225,0,0,0-.115.36Z" transform="translate(577.403 53.941)" fill="#43c5f7"/>
  <path id="Fill_102" data-name="Fill 102" d="M4.468,1.8A7.574,7.574,0,0,0,1.493.084,1.325,1.325,0,0,0,.944.006,1.085,1.085,0,0,0,.165.688,2.221,2.221,0,0,0,.689,3.115a2.752,2.752,0,0,0,2.458.646,1.855,1.855,0,0,0,1.2-.746,1.043,1.043,0,0,0-.134-1.323.225.225,0,0,0-.115.36Z" transform="translate(513.582 35.711)" fill="#43c5f7"/>
  <path id="Fill_104" data-name="Fill 104" d="M1.907.428A1.965,1.965,0,0,0,.032.111,2.067,2.067,0,0,0,.549,1.944a1.248,1.248,0,0,0,1.762-.032C2.719,1.393,2.308.434,1.65.5Z" transform="translate(558.092 82.373)" fill="#43c5f7"/>
  <path id="Fill_106" data-name="Fill 106" d="M.937.4A1.008,1.008,0,0,0,.063.237,1.026,1.026,0,0,0,.195.626.354.354,0,0,0,.546.794C.73.753.808.539.856.357L.935.491Z" transform="translate(550.158 78.405)" fill="#43c5f7"/>
  <path id="Fill_108" data-name="Fill 108" d="M.789.091A.4.4,0,0,0,.535.1a.424.424,0,0,0-.156.19A3.846,3.846,0,0,1,0,.855L1.117.638a.211.211,0,0,1,.09,0c.1.021.123.161.2.235.109.109.294.05.423-.034C2.743.234,1.251.182.789.091" transform="translate(548.566 80.101)" fill="#43c5f7"/>
  <path id="Fill_110" data-name="Fill 110" d="M.888.644a.453.453,0,0,1,.275,0,.774.774,0,0,1-.6.335C.427,1,.262,1,.194.887.146.807.169.7.153.613.119.43-.074.246.031.092A.229.229,0,0,1,.316.04.676.676,0,0,1,.54.258L.952.811Z" transform="translate(553.595 79.744)" fill="#43c5f7"/>
  <path id="Fill_112" data-name="Fill 112" d="M.507.226C.336.135.159.4.245.577A.707.707,0,0,0,.727.869.678.678,0,0,0,.576.131Z" transform="translate(555.035 83.64)" fill="#43c5f7"/>
  <path id="Fill_114" data-name="Fill 114" d="M.612.036A.705.705,0,0,0,.332,0a.239.239,0,0,0-.2.173C.1.331.274.445.318.595S.277.927.37,1.053a.265.265,0,0,0,.4-.034.67.67,0,0,0,.1-.441A.754.754,0,0,0,.781.18.3.3,0,0,0,.426.05Z" transform="translate(574.378 88.356)" fill="#43c5f7"/>
  <path id="Fill_116" data-name="Fill 116" d="M.718.37A.176.176,0,0,1,.739.613.327.327,0,0,1,.5.722.323.323,0,0,1,.341.7.231.231,0,0,1,.254.381.247.247,0,0,1,.581.312a.264.264,0,0,1,.09.327Z" transform="translate(550.819 82.484)" fill="#43c5f7"/>
  <path id="Fill_118" data-name="Fill 118" d="M.718.37A.176.176,0,0,1,.739.613.325.325,0,0,1,.5.722.325.325,0,0,1,.341.7.23.23,0,0,1,.255.381.245.245,0,0,1,.581.312a.263.263,0,0,1,.09.327Z" transform="translate(546.979 94.969)" fill="#43c5f7"/>
  <path id="Fill_120" data-name="Fill 120" d="M.665.608A.27.27,0,0,0,.337.28a.462.462,0,0,0-.007.3A.227.227,0,0,0,.561.731.153.153,0,0,0,.669.5Z" transform="translate(551.01 81.031)" fill="#43c5f7"/>
  <path id="Fill_122" data-name="Fill 122" d="M.768.359A.77.77,0,0,0,.184.027C.189.217.2.407.2.6a.511.511,0,0,0,.053.26A.306.306,0,0,0,.71.886.427.427,0,0,0,.763.4Z" transform="translate(551.832 77.039)" fill="#43c5f7"/>
  <path id="Fill_124" data-name="Fill 124" d="M.612.215A.354.354,0,0,1,.739.573.352.352,0,0,1,.458.829C.367.843.251.8.252.7A.2.2,0,0,1,.294.6L.567.169C.59.188.612.208.633.227Z" transform="translate(552.747 84.647)" fill="#43c5f7"/>
  <path id="Fill_126" data-name="Fill 126" d="M.369.149C.39.315.581.394.744.43s.356.085.414.241A.146.146,0,0,1,1.15.8c-.067.1-.214.02-.33,0A1.258,1.258,0,0,0,.541.83.559.559,0,0,1,0,.508.317.317,0,0,1,.2.235a.316.316,0,0,1,.33.078Z" transform="translate(550.182 86.204)" fill="#43c5f7"/>
  <path id="Fill_128" data-name="Fill 128" d="M.419.389.3.539A.235.235,0,0,0,.56.669.2.2,0,0,0,.69.42.168.168,0,0,0,.428.367Z" transform="translate(548.919 87.115)" fill="#43c5f7"/>
  <path id="Fill_130" data-name="Fill 130" d="M.418.389.3.539a.233.233,0,0,0,.261.13A.2.2,0,0,0,.689.42.167.167,0,0,0,.427.368Z" transform="translate(550.706 91.258)" fill="#43c5f7"/>
  <path id="Fill_132" data-name="Fill 132" d="M.022.919C.125.993.269.878.293.755A3.659,3.659,0,0,0,.286.378.452.452,0,0,1,.472.052.222.222,0,0,1,.685.014a.278.278,0,0,1,.1.11,1.356,1.356,0,0,1,.239.694.638.638,0,0,1-.362.6.5.5,0,0,1-.488-.079A.5.5,0,0,1,.008.874Z" transform="translate(551.695 79.317)" fill="#43c5f7"/>
  <path id="Fill_134" data-name="Fill 134" d="M.749.278A.3.3,0,0,0,.329.252.435.435,0,0,0,.206.68c.016.068.062.143.13.139A.169.169,0,0,0,.448.738L.807.285Z" transform="translate(548.838 77.368)" fill="#43c5f7"/>
  <path id="Fill_136" data-name="Fill 136" d="M.633.374a.511.511,0,0,1-.348.733A1.285,1.285,0,0,1,.138.392C.184.149.44-.069.67.021.738.148.807.275.874.4Z" transform="translate(556.588 81.347)" fill="#43c5f7"/>
  <path id="Fill_138" data-name="Fill 138" d="M.588.256A.131.131,0,0,1,.764.331a.316.316,0,0,1-.01.212A.376.376,0,0,1,.67.7.259.259,0,0,1,.35.714.322.322,0,0,1,.225.408.207.207,0,0,1,.3.262.115.115,0,0,1,.453.275Z" transform="translate(551.393 87.822)" fill="#43c5f7"/>
  <path id="Fill_140" data-name="Fill 140" d="M.567.408.366.4A.427.427,0,0,0,.392.7C.45.79.609.8.642.7a.206.206,0,0,0,0-.115C.608.469.58.348.551.227Z" transform="translate(549.433 81.792)" fill="#43c5f7"/>
  <path id="Fill_142" data-name="Fill 142" d="M1.907.428A1.966,1.966,0,0,0,.033.111,2.064,2.064,0,0,0,.549,1.944a1.248,1.248,0,0,0,1.762-.032C2.719,1.393,2.308.434,1.65.5Z" transform="translate(575.731 46.943)" fill="#43c5f7"/>
  <path id="Fill_144" data-name="Fill 144" d="M.789.091A.4.4,0,0,0,.535.1a.424.424,0,0,0-.156.19A3.794,3.794,0,0,1,0,.855L1.117.638a.211.211,0,0,1,.09,0c.1.021.122.161.2.235.11.109.295.05.424-.034C2.743.234,1.25.182.789.091" transform="translate(564.699 66.819)" fill="#43c5f7"/>
  <path id="Fill_146" data-name="Fill 146" d="M.507.226C.336.135.158.4.245.577A.707.707,0,0,0,.727.869.68.68,0,0,0,.576.131Z" transform="translate(571.168 70.358)" fill="#43c5f7"/>
  <path id="Fill_148" data-name="Fill 148" d="M.718.37A.177.177,0,0,1,.739.613.329.329,0,0,1,.5.722.321.321,0,0,1,.341.7.23.23,0,0,1,.254.381.245.245,0,0,1,.58.312.264.264,0,0,1,.671.639Z" transform="translate(566.953 69.201)" fill="#43c5f7"/>
  <path id="Fill_150" data-name="Fill 150" d="M.718.37A.176.176,0,0,1,.739.613.327.327,0,0,1,.5.722.323.323,0,0,1,.341.7.231.231,0,0,1,.254.381.247.247,0,0,1,.581.312a.264.264,0,0,1,.09.327Z" transform="translate(563.112 81.686)" fill="#43c5f7"/>
  <path id="Fill_152" data-name="Fill 152" d="M.665.607A.27.27,0,0,0,.336.279a.469.469,0,0,0-.006.3A.229.229,0,0,0,.561.731.153.153,0,0,0,.668.5Z" transform="translate(567.144 67.748)" fill="#43c5f7"/>
  <path id="Fill_154" data-name="Fill 154" d="M.612.215A.352.352,0,0,1,.738.573a.349.349,0,0,1-.28.256C.367.844.251.8.252.7A.2.2,0,0,1,.294.6C.384.455.476.312.567.169.59.188.611.208.633.227Z" transform="translate(568.88 71.365)" fill="#43c5f7"/>
  <path id="Fill_156" data-name="Fill 156" d="M.369.149C.39.315.581.394.744.43s.356.085.414.241A.146.146,0,0,1,1.15.8c-.067.1-.214.02-.33,0A1.267,1.267,0,0,0,.54.83.559.559,0,0,1,0,.508.315.315,0,0,1,.2.235.318.318,0,0,1,.532.313Z" transform="translate(566.316 72.921)" fill="#43c5f7"/>
  <path id="Fill_158" data-name="Fill 158" d="M.419.389.3.539A.234.234,0,0,0,.56.669.2.2,0,0,0,.689.42.166.166,0,0,0,.428.368Z" transform="translate(565.052 73.833)" fill="#43c5f7"/>
  <path id="Fill_160" data-name="Fill 160" d="M.419.389C.379.439.339.49.3.539A.235.235,0,0,0,.56.669.2.2,0,0,0,.69.42.167.167,0,0,0,.428.368Z" transform="translate(566.839 77.975)" fill="#43c5f7"/>
  <path id="Fill_162" data-name="Fill 162" d="M.022.919C.124.993.268.878.293.755S.274.5.285.378A.457.457,0,0,1,.472.052.221.221,0,0,1,.684.014a.287.287,0,0,1,.1.11,1.365,1.365,0,0,1,.239.694.637.637,0,0,1-.362.6.5.5,0,0,1-.488-.079A.5.5,0,0,1,.008.874Z" transform="translate(567.829 66.034)" fill="#43c5f7"/>
  <path id="Fill_164" data-name="Fill 164" d="M.588.256A.133.133,0,0,1,.764.331a.316.316,0,0,1-.01.212A.376.376,0,0,1,.67.7.26.26,0,0,1,.35.715.328.328,0,0,1,.224.408.212.212,0,0,1,.3.262.115.115,0,0,1,.453.275Z" transform="translate(567.526 74.539)" fill="#43c5f7"/>
  <path id="Fill_166" data-name="Fill 166" d="M.567.408.366.4A.426.426,0,0,0,.392.7c.058.087.217.1.25,0a.205.205,0,0,0,0-.115C.608.469.58.347.55.226Z" transform="translate(565.567 68.509)" fill="#43c5f7"/>
  <path id="Fill_168" data-name="Fill 168" d="M1.908.428A1.968,1.968,0,0,0,.033.111,2.063,2.063,0,0,0,.549,1.944a1.25,1.25,0,0,0,1.763-.031c.408-.52,0-1.478-.661-1.416Z" transform="translate(566.914 31.513)" fill="#43c5f7"/>
  <path id="Fill_170" data-name="Fill 170" d="M1.907.428A1.966,1.966,0,0,0,.033.111,2.064,2.064,0,0,0,.549,1.944a1.248,1.248,0,0,0,1.762-.032C2.719,1.393,2.308.435,1.65.5Z" transform="translate(528.112 57.041)" fill="#43c5f7"/>
  <path id="Fill_172" data-name="Fill 172" d="M.789.091A.393.393,0,0,0,.535.1a.419.419,0,0,0-.156.19A3.926,3.926,0,0,1,0,.855L1.117.637a.247.247,0,0,1,.09,0c.1.022.122.161.2.236.11.108.295.05.424-.035C2.743.233,1.25.182.789.091" transform="translate(557.389 29.241)" fill="#43c5f7"/>
  <path id="Fill_174" data-name="Fill 174" d="M.507.226C.336.135.159.4.245.577A.707.707,0,0,0,.727.869.678.678,0,0,0,.576.131Z" transform="translate(597.772 25.999)" fill="#43c5f7"/>
  <path id="Fill_176" data-name="Fill 176" d="M.718.37A.177.177,0,0,1,.739.613.329.329,0,0,1,.5.722.321.321,0,0,1,.341.7.229.229,0,0,1,.254.382.245.245,0,0,1,.58.312.264.264,0,0,1,.671.639Z" transform="translate(559.642 31.624)" fill="#43c5f7"/>
  <path id="Fill_178" data-name="Fill 178" d="M.718.37A.177.177,0,0,1,.739.613.328.328,0,0,1,.5.722.323.323,0,0,1,.341.7.23.23,0,0,1,.254.382.246.246,0,0,1,.581.312a.264.264,0,0,1,.09.327Z" transform="translate(555.802 44.108)" fill="#43c5f7"/>
  <path id="Fill_180" data-name="Fill 180" d="M.665.607A.271.271,0,0,0,.336.279a.479.479,0,0,0-.007.3A.231.231,0,0,0,.561.731.154.154,0,0,0,.668.5Z" transform="translate(559.833 30.171)" fill="#43c5f7"/>
  <path id="Fill_182" data-name="Fill 182" d="M.612.214A.352.352,0,0,1,.738.572a.352.352,0,0,1-.28.257C.367.843.251.8.252.7A.2.2,0,0,1,.294.6C.384.454.476.311.567.168L.633.227Z" transform="translate(561.57 33.787)" fill="#43c5f7"/>
  <path id="Fill_184" data-name="Fill 184" d="M.369.149C.39.315.581.394.744.43s.356.085.414.241A.143.143,0,0,1,1.149.8C1.083.9.936.824.82.806A1.211,1.211,0,0,0,.54.831.561.561,0,0,1,0,.508.317.317,0,0,1,.2.235.318.318,0,0,1,.532.313Z" transform="translate(559.005 35.344)" fill="#43c5f7"/>
  <path id="Fill_186" data-name="Fill 186" d="M.419.389.3.539A.234.234,0,0,0,.56.669.2.2,0,0,0,.689.42.166.166,0,0,0,.428.368Z" transform="translate(557.742 36.255)" fill="#43c5f7"/>
  <path id="Fill_188" data-name="Fill 188" d="M.419.389.3.539A.235.235,0,0,0,.56.669.2.2,0,0,0,.689.42.166.166,0,0,0,.428.367Z" transform="translate(559.528 40.398)" fill="#43c5f7"/>
  <path id="Fill_190" data-name="Fill 190" d="M.022.919C.124.993.268.878.293.755S.274.5.285.378A.453.453,0,0,1,.472.052.221.221,0,0,1,.684.014a.271.271,0,0,1,.1.11,1.347,1.347,0,0,1,.239.694.636.636,0,0,1-.361.6.5.5,0,0,1-.488-.079A.5.5,0,0,1,.007.874Z" transform="translate(598.929 31.6)" fill="#43c5f7"/>
  <path id="Fill_192" data-name="Fill 192" d="M.588.256A.133.133,0,0,1,.764.332a.317.317,0,0,1-.01.212A.379.379,0,0,1,.67.7.259.259,0,0,1,.35.715.328.328,0,0,1,.224.408.214.214,0,0,1,.3.262.115.115,0,0,1,.453.275Z" transform="translate(560.216 36.962)" fill="#43c5f7"/>
  <path id="Fill_194" data-name="Fill 194" d="M.588.256A.132.132,0,0,1,.764.331a.316.316,0,0,1-.01.212A.376.376,0,0,1,.67.7.259.259,0,0,1,.35.714.323.323,0,0,1,.225.408.207.207,0,0,1,.3.262.115.115,0,0,1,.453.275Z" transform="translate(497.419 9.176)" fill="#43c5f7"/>
  <path id="Fill_196" data-name="Fill 196" d="M.567.408.366.4A.426.426,0,0,0,.392.7c.058.087.217.1.25,0a.205.205,0,0,0,0-.115C.608.469.58.348.55.226Z" transform="translate(558.256 30.931)" fill="#43c5f7"/>
  <path id="Fill_198" data-name="Fill 198" d="M.942.251A1.237,1.237,0,0,0,.473.106a.417.417,0,0,0-.4.228.369.369,0,0,0,0,.241A.474.474,0,0,0,.659.869.476.476,0,0,0,.92.259Z" transform="translate(548.754 74.678)" fill="#43c5f7"/>
  <path id="Fill_200" data-name="Fill 200" d="M.634.345.3.394a.591.591,0,0,0,.03.254A.316.316,0,0,0,.7.4Z" transform="translate(561 82.519)" fill="#43c5f7"/>
  <path id="Fill_202" data-name="Fill 202" d="M1.907.428A1.966,1.966,0,0,0,.033.111,2.063,2.063,0,0,0,.549,1.944a1.248,1.248,0,0,0,1.762-.031c.409-.52,0-1.478-.66-1.416Z" transform="translate(693.114 116.084)" fill="#43c5f7"/>
  <path id="Fill_204" data-name="Fill 204" d="M.937.4A1.011,1.011,0,0,0,.063.236a1.037,1.037,0,0,0,.132.39A.356.356,0,0,0,.546.794C.73.752.809.538.856.356.882.4.91.445.936.49Z" transform="translate(685.179 112.116)" fill="#43c5f7"/>
  <path id="Fill_206" data-name="Fill 206" d="M.937.4A1.008,1.008,0,0,0,.063.236,1.032,1.032,0,0,0,.195.625.352.352,0,0,0,.546.793C.73.752.808.538.856.356L.936.49Z" transform="translate(645.884 87.856)" fill="#43c5f7"/>
  <path id="Fill_208" data-name="Fill 208" d="M.789.091A.393.393,0,0,0,.535.1a.419.419,0,0,0-.156.19A3.926,3.926,0,0,1,0,.855L1.116.637a.25.25,0,0,1,.09,0c.1.022.123.161.2.236.109.108.295.05.423-.035C2.743.233,1.25.182.789.091" transform="translate(683.588 113.812)" fill="#43c5f7"/>
  <path id="Fill_210" data-name="Fill 210" d="M.889.644a.461.461,0,0,1,.275,0A.774.774,0,0,1,.559.974C.427,1,.262,1,.194.887.146.807.169.7.153.613.119.43-.074.247.031.092A.231.231,0,0,1,.316.04.67.67,0,0,1,.54.259L.953.811Z" transform="translate(688.616 113.455)" fill="#43c5f7"/>
  <path id="Fill_212" data-name="Fill 212" d="M.507.226C.336.136.159.4.246.578A.7.7,0,0,0,.727.869.677.677,0,0,0,.576.131Z" transform="translate(690.057 117.351)" fill="#43c5f7"/>
  <path id="Fill_214" data-name="Fill 214" d="M.718.37A.177.177,0,0,1,.739.613.329.329,0,0,1,.5.722.319.319,0,0,1,.341.7.229.229,0,0,1,.254.382.245.245,0,0,1,.58.312.264.264,0,0,1,.671.639Z" transform="translate(685.842 116.195)" fill="#43c5f7"/>
  <path id="Fill_216" data-name="Fill 216" d="M.664.607A.27.27,0,0,0,.336.279a.479.479,0,0,0-.007.3A.23.23,0,0,0,.56.731.154.154,0,0,0,.668.5Z" transform="translate(686.032 114.741)" fill="#43c5f7"/>
  <path id="Fill_218" data-name="Fill 218" d="M.664.607A.27.27,0,0,0,.336.279a.476.476,0,0,0-.007.3A.23.23,0,0,0,.56.731.154.154,0,0,0,.668.5Z" transform="translate(632.341 86.823)" fill="#43c5f7"/>
  <path id="Fill_220" data-name="Fill 220" d="M.769.359A.772.772,0,0,0,.184.027C.19.217.2.407.2.6a.51.51,0,0,0,.054.26A.306.306,0,0,0,.711.886.43.43,0,0,0,.764.4Z" transform="translate(686.854 110.749)" fill="#43c5f7"/>
  <path id="Fill_222" data-name="Fill 222" d="M.613.214A.356.356,0,0,1,.739.572a.353.353,0,0,1-.28.257C.368.843.252.8.252.7A.214.214,0,0,1,.295.6Q.43.383.567.168L.634.227Z" transform="translate(687.768 118.358)" fill="#43c5f7"/>
  <path id="Fill_224" data-name="Fill 224" d="M.37.149C.39.315.582.394.745.43s.355.085.414.241A.143.143,0,0,1,1.15.8C1.083.9.936.824.82.806A1.2,1.2,0,0,0,.541.831.562.562,0,0,1,0,.508.32.32,0,0,1,.2.235a.316.316,0,0,1,.33.078Z" transform="translate(685.203 119.915)" fill="#43c5f7"/>
  <path id="Fill_226" data-name="Fill 226" d="M.419.389.3.539a.233.233,0,0,0,.261.13A.2.2,0,0,0,.689.42.167.167,0,0,0,.427.368Z" transform="translate(683.941 120.826)" fill="#43c5f7"/>
  <path id="Fill_228" data-name="Fill 228" d="M.419.389.3.539A.234.234,0,0,0,.56.669.2.2,0,0,0,.689.42.167.167,0,0,0,.427.367Z" transform="translate(685.727 124.968)" fill="#43c5f7"/>
  <path id="Fill_230" data-name="Fill 230" d="M.022.919c.1.074.246-.041.27-.165A3.64,3.64,0,0,0,.285.378.45.45,0,0,1,.472.052.218.218,0,0,1,.684.014a.271.271,0,0,1,.1.11,1.34,1.34,0,0,1,.239.693.636.636,0,0,1-.361.6.5.5,0,0,1-.488-.079A.5.5,0,0,1,.007.874Z" transform="translate(686.717 113.028)" fill="#43c5f7"/>
  <path id="Fill_232" data-name="Fill 232" d="M.748.278A.3.3,0,0,0,.329.252.434.434,0,0,0,.206.681C.222.748.267.824.336.82A.176.176,0,0,0,.447.739c.12-.151.239-.3.36-.454Z" transform="translate(683.861 111.079)" fill="#43c5f7"/>
  <path id="Fill_234" data-name="Fill 234" d="M.632.374a.512.512,0,0,1-.348.733A1.285,1.285,0,0,1,.137.392C.183.149.44-.069.669.021L.874.4Z" transform="translate(691.61 115.058)" fill="#43c5f7"/>
  <path id="Fill_236" data-name="Fill 236" d="M.588.256A.132.132,0,0,1,.763.332a.3.3,0,0,1-.01.211A.365.365,0,0,1,.669.7.257.257,0,0,1,.35.715.325.325,0,0,1,.224.408.214.214,0,0,1,.3.262.113.113,0,0,1,.452.275Z" transform="translate(686.415 121.533)" fill="#43c5f7"/>
  <path id="Fill_238" data-name="Fill 238" d="M.567.408.366.4A.421.421,0,0,0,.392.7c.057.087.217.1.25,0A.206.206,0,0,0,.636.59C.608.469.579.348.55.226Z" transform="translate(684.455 115.502)" fill="#43c5f7"/>
  <path id="Fill_240" data-name="Fill 240" d="M.942.251A1.232,1.232,0,0,0,.473.106a.417.417,0,0,0-.4.228.382.382,0,0,0,0,.241.476.476,0,0,0,.6.3A.477.477,0,0,0,.92.26Z" transform="translate(683.776 108.388)" fill="#43c5f7"/>
  <path id="Fill_242" data-name="Fill 242" d="M.634.345.3.394a.607.607,0,0,0,.03.254A.316.316,0,0,0,.7.4Z" transform="translate(696.022 116.23)" fill="#43c5f7"/>
  <path id="Fill_244" data-name="Fill 244" d="M4.468,1.8A7.574,7.574,0,0,0,1.493.084,1.327,1.327,0,0,0,.944.006,1.083,1.083,0,0,0,.165.688,2.22,2.22,0,0,0,.689,3.115a2.752,2.752,0,0,0,2.458.646,1.859,1.859,0,0,0,1.2-.746,1.043,1.043,0,0,0-.134-1.323.225.225,0,0,0-.115.36Z" transform="translate(586.049 87.679)" fill="#43c5f7"/>
  <path id="Fill_246" data-name="Fill 246" d="M1.908.428A1.968,1.968,0,0,0,.033.111,2.064,2.064,0,0,0,.549,1.944a1.249,1.249,0,0,0,1.763-.032C2.72,1.393,2.309.435,1.651.5Z" transform="translate(594.69 54.575)" fill="#43c5f7"/>
  <path id="Fill_248" data-name="Fill 248" d="M1.907.428A1.966,1.966,0,0,0,.033.111,2.064,2.064,0,0,0,.549,1.944a1.248,1.248,0,0,0,1.762-.032c.409-.519,0-1.478-.66-1.416Z" transform="translate(616.582 30.209)" fill="#43c5f7"/>
  <path id="Fill_250" data-name="Fill 250" d="M.937.4A1.009,1.009,0,0,0,.063.236a1.037,1.037,0,0,0,.132.39.352.352,0,0,0,.35.167C.73.752.808.538.856.356L.935.49Z" transform="translate(586.756 50.607)" fill="#43c5f7"/>
  <path id="Fill_252" data-name="Fill 252" d="M.789.091A.4.4,0,0,0,.535.1a.424.424,0,0,0-.156.19A3.794,3.794,0,0,1,0,.855L1.117.638a.211.211,0,0,1,.09,0c.1.021.122.161.2.235.11.109.295.05.424-.034C2.743.234,1.25.182.789.091" transform="translate(585.164 52.303)" fill="#43c5f7"/>
  <path id="Fill_254" data-name="Fill 254" d="M.438.4.108.445A.533.533,0,0,0,.542.889C.763.906.976.641.859.452.786.336.625.182.742.111Z" transform="translate(581.114 46.098)" fill="#43c5f7"/>
  <path id="Fill_256" data-name="Fill 256" d="M.888.644a.453.453,0,0,1,.275,0,.774.774,0,0,1-.6.335C.427,1,.262,1,.193.887.145.807.169.7.153.613.119.43-.074.247.031.092A.229.229,0,0,1,.316.04.669.669,0,0,1,.54.259L.952.811Z" transform="translate(590.193 51.946)" fill="#43c5f7"/>
  <path id="Fill_258" data-name="Fill 258" d="M.507.226C.336.135.158.4.245.577A.707.707,0,0,0,.727.869.68.68,0,0,0,.576.131Z" transform="translate(591.633 55.842)" fill="#43c5f7"/>
  <path id="Fill_260" data-name="Fill 260" d="M.718.37A.177.177,0,0,1,.739.613.329.329,0,0,1,.5.722.321.321,0,0,1,.341.7.23.23,0,0,1,.254.381.246.246,0,0,1,.58.312.264.264,0,0,1,.671.639Z" transform="translate(587.418 54.686)" fill="#43c5f7"/>
  <path id="Fill_262" data-name="Fill 262" d="M.665.607A.27.27,0,0,0,.336.279a.469.469,0,0,0-.006.3A.229.229,0,0,0,.561.731.153.153,0,0,0,.668.5Z" transform="translate(587.608 53.233)" fill="#43c5f7"/>
  <path id="Fill_264" data-name="Fill 264" d="M.664.607A.27.27,0,0,0,.336.279a.476.476,0,0,0-.007.3A.231.231,0,0,0,.561.731.154.154,0,0,0,.668.5Z" transform="translate(582.483 41.165)" fill="#43c5f7"/>
  <path id="Fill_266" data-name="Fill 266" d="M.769.359A.77.77,0,0,0,.185.027C.19.217.2.407.2.6a.5.5,0,0,0,.053.26A.306.306,0,0,0,.711.886.428.428,0,0,0,.764.4Z" transform="translate(588.431 49.241)" fill="#43c5f7"/>
  <path id="Fill_268" data-name="Fill 268" d="M.612.215A.352.352,0,0,1,.738.573a.349.349,0,0,1-.28.256C.367.844.251.8.252.7A.2.2,0,0,1,.294.6C.384.455.476.312.567.169.59.188.611.208.633.227Z" transform="translate(589.345 56.849)" fill="#43c5f7"/>
  <path id="Fill_270" data-name="Fill 270" d="M.765.149C.638.258.68.461.741.617s.128.343.03.478a.145.145,0,0,1-.114.067C.539,1.16.521,1,.471.889A1.216,1.216,0,0,0,.294.671.562.562,0,0,1,.261.042.315.315,0,0,1,.6.058.317.317,0,0,1,.719.376Z" transform="translate(588.666 59.507)" fill="#43c5f7"/>
  <path id="Fill_272" data-name="Fill 272" d="M.764.148C.638.257.679.46.74.616s.128.343.03.478a.145.145,0,0,1-.114.067C.538,1.159.52.995.47.889A1.262,1.262,0,0,0,.294.67.561.561,0,0,1,.26.042.317.317,0,0,1,.6.057a.317.317,0,0,1,.12.318Z" transform="translate(618.556 56.912)" fill="#43c5f7"/>
  <path id="Fill_274" data-name="Fill 274" d="M.539.35.347.333a.234.234,0,0,0,.038.29A.194.194,0,0,0,.663.592a.166.166,0,0,0-.1-.247Z" transform="translate(587.26 58.94)" fill="#43c5f7"/>
  <path id="Fill_276" data-name="Fill 276" d="M.539.35.347.333A.233.233,0,0,0,.385.622.193.193,0,0,0,.663.591a.166.166,0,0,0-.1-.246Z" transform="translate(584.816 62.732)" fill="#43c5f7"/>
  <path id="Fill_278" data-name="Fill 278" d="M.022.919C.124.993.268.878.293.755S.274.5.285.378A.457.457,0,0,1,.472.052.218.218,0,0,1,.684.015a.265.265,0,0,1,.1.109,1.356,1.356,0,0,1,.239.694.637.637,0,0,1-.362.6.5.5,0,0,1-.488-.079A.5.5,0,0,1,.008.874Z" transform="translate(588.294 51.519)" fill="#43c5f7"/>
  <path id="Fill_280" data-name="Fill 280" d="M.749.278A.3.3,0,0,0,.329.252.436.436,0,0,0,.206.681c.016.067.062.142.13.138A.168.168,0,0,0,.447.739L.807.285Z" transform="translate(585.437 49.57)" fill="#43c5f7"/>
  <path id="Fill_282" data-name="Fill 282" d="M.633.373a.511.511,0,0,1-.349.733A1.284,1.284,0,0,1,.138.391C.184.148.44-.069.67.02L.874.4Z" transform="translate(593.186 53.55)" fill="#43c5f7"/>
  <path id="Fill_284" data-name="Fill 284" d="M.728.464A.132.132,0,0,1,.763.652a.313.313,0,0,1-.181.11A.383.383,0,0,1,.408.777.257.257,0,0,1,.214.522.324.324,0,0,1,.4.247.212.212,0,0,1,.562.228.114.114,0,0,1,.637.362Z" transform="translate(588.067 61.341)" fill="#43c5f7"/>
  <path id="Fill_286" data-name="Fill 286" d="M.567.408.366.4A.426.426,0,0,0,.392.7c.058.087.217.1.25,0a.205.205,0,0,0,0-.115C.608.469.58.347.55.226Z" transform="translate(586.032 53.994)" fill="#43c5f7"/>
  <path id="Fill_288" data-name="Fill 288" d="M.941.251A1.232,1.232,0,0,0,.472.106a.415.415,0,0,0-.4.228.369.369,0,0,0,0,.241A.473.473,0,0,0,.659.869.476.476,0,0,0,.92.259Z" transform="translate(585.353 46.88)" fill="#43c5f7"/>
  <path id="Fill_290" data-name="Fill 290" d="M.634.345.3.394A.606.606,0,0,0,.331.648.317.317,0,0,0,.7.4Z" transform="translate(597.598 54.722)" fill="#43c5f7"/>
  <path id="Fill_292" data-name="Fill 292" d="M1.907.428A1.963,1.963,0,0,0,.033.111,2.064,2.064,0,0,0,.549,1.944a1.248,1.248,0,0,0,1.762-.032c.409-.519,0-1.478-.66-1.416Z" transform="translate(588.048 64.721)" fill="#43c5f7"/>
  <path id="Fill_294" data-name="Fill 294" d="M.888.644a.453.453,0,0,1,.275,0,.777.777,0,0,1-.6.335C.427,1,.262,1,.193.887.145.807.169.705.153.613.119.43-.074.246.031.092A.228.228,0,0,1,.316.04.676.676,0,0,1,.54.258C.677.443.815.627.952.811Z" transform="translate(546.826 40.811)" fill="#43c5f7"/>
  <path id="Fill_296" data-name="Fill 296" d="M.789.091A.4.4,0,0,0,.536.1a.42.42,0,0,0-.157.19A3.846,3.846,0,0,1,0,.855L1.117.637a.228.228,0,0,1,.09,0c.1.021.123.161.2.235.109.109.294.05.423-.034C2.744.234,1.251.182.789.091" transform="translate(485.948 9.864)" fill="#43c5f7"/>
  <path id="Fill_298" data-name="Fill 298" d="M.718.37A.176.176,0,0,1,.739.613.332.332,0,0,1,.5.722.323.323,0,0,1,.341.7.231.231,0,0,1,.254.381.246.246,0,0,1,.581.312a.264.264,0,0,1,.09.327Z" transform="translate(488.202 12.247)" fill="#43c5f7"/>
  <path id="Fill_300" data-name="Fill 300" d="M.717.37A.176.176,0,0,1,.738.613.325.325,0,0,1,.5.722.325.325,0,0,1,.34.7.231.231,0,0,1,.254.381.245.245,0,0,1,.58.312.263.263,0,0,1,.67.639Z" transform="translate(484.362 24.731)" fill="#43c5f7"/>
  <path id="Fill_302" data-name="Fill 302" d="M.665.608A.27.27,0,0,0,.337.28a.469.469,0,0,0-.007.3A.227.227,0,0,0,.561.731.153.153,0,0,0,.669.5Z" transform="translate(488.393 10.793)" fill="#43c5f7"/>
  <path id="Fill_304" data-name="Fill 304" d="M.369.149C.39.315.581.394.744.43s.356.085.414.241A.143.143,0,0,1,1.15.8c-.067.1-.214.02-.33,0A1.258,1.258,0,0,0,.541.83.559.559,0,0,1,0,.508.317.317,0,0,1,.2.235a.316.316,0,0,1,.33.078Z" transform="translate(487.565 15.967)" fill="#43c5f7"/>
  <path id="Fill_306" data-name="Fill 306" d="M.419.389.3.539A.235.235,0,0,0,.56.669.2.2,0,0,0,.69.42.168.168,0,0,0,.428.367Z" transform="translate(486.302 16.878)" fill="#43c5f7"/>
  <path id="Fill_308" data-name="Fill 308" d="M.418.389.3.539a.233.233,0,0,0,.261.13A.2.2,0,0,0,.689.42.167.167,0,0,0,.427.368Z" transform="translate(488.088 21.02)" fill="#43c5f7"/>
  <path id="Fill_310" data-name="Fill 310" d="M.588.256A.131.131,0,0,1,.764.331a.316.316,0,0,1-.01.212A.376.376,0,0,1,.67.7.258.258,0,0,1,.35.714.322.322,0,0,1,.225.408.207.207,0,0,1,.3.262.114.114,0,0,1,.453.275Z" transform="translate(488.776 17.585)" fill="#43c5f7"/>
  <path id="Fill_312" data-name="Fill 312" d="M.567.408.366.4A.427.427,0,0,0,.392.7C.45.79.609.8.642.7a.206.206,0,0,0,0-.115C.609.469.58.348.551.227Z" transform="translate(486.816 11.554)" fill="#43c5f7"/>
  <path id="Fill_314" data-name="Fill 314" d="M.888.644a.456.456,0,0,1,.276,0A.774.774,0,0,1,.559.974C.427,1,.262,1,.194.887.145.807.169.7.153.613.119.43-.074.247.031.092A.229.229,0,0,1,.316.04.679.679,0,0,1,.54.259C.678.443.816.627.952.811Z" transform="translate(475.386 21.434)" fill="#43c5f7"/>
  <path id="Fill_316" data-name="Fill 316" d="M.507.226C.336.136.159.4.246.578A.7.7,0,0,0,.727.869.677.677,0,0,0,.576.131Z" transform="translate(571.839 51.906)" fill="#43c5f7"/>
  <path id="Fill_318" data-name="Fill 318" d="M.718.37A.177.177,0,0,1,.739.613.333.333,0,0,1,.5.722.319.319,0,0,1,.341.7.23.23,0,0,1,.254.381.244.244,0,0,1,.58.312.263.263,0,0,1,.671.638Z" transform="translate(580.776 64.832)" fill="#43c5f7"/>
  <path id="Fill_320" data-name="Fill 320" d="M.613.214A.356.356,0,0,1,.739.572a.352.352,0,0,1-.28.257C.368.843.252.8.252.7A.214.214,0,0,1,.295.6Q.43.383.568.168L.634.227Z" transform="translate(582.703 66.995)" fill="#43c5f7"/>
  <path id="Fill_322" data-name="Fill 322" d="M.765.148C.638.257.679.46.741.616s.128.343.029.479a.141.141,0,0,1-.113.066C.538,1.159.521.995.47.889A1.216,1.216,0,0,0,.294.67.562.562,0,0,1,.26.042.319.319,0,0,1,.6.057.317.317,0,0,1,.719.375Z" transform="translate(616.278 60.365)" fill="#43c5f7"/>
  <path id="Fill_324" data-name="Fill 324" d="M.538.35.346.333A.233.233,0,0,0,.385.622.193.193,0,0,0,.663.591a.166.166,0,0,0-.1-.246Z" transform="translate(580.618 69.086)" fill="#43c5f7"/>
  <path id="Fill_326" data-name="Fill 326" d="M.538.35.347.333a.234.234,0,0,0,.037.29A.2.2,0,0,0,.663.592a.167.167,0,0,0-.1-.247Z" transform="translate(578.174 72.877)" fill="#43c5f7"/>
  <path id="Fill_328" data-name="Fill 328" d="M.632.374a.512.512,0,0,1-.348.733A1.285,1.285,0,0,1,.137.392C.183.149.44-.069.669.021L.874.4Z" transform="translate(586.544 63.695)" fill="#43c5f7"/>
  <path id="Fill_330" data-name="Fill 330" d="M.728.464A.131.131,0,0,1,.763.651a.3.3,0,0,1-.181.11A.365.365,0,0,1,.409.777a.259.259,0,0,1-.2-.255A.326.326,0,0,1,.4.247.206.206,0,0,1,.563.228.113.113,0,0,1,.637.362Z" transform="translate(581.425 71.486)" fill="#43c5f7"/>
  <path id="Fill_332" data-name="Fill 332" d="M.635.345.3.394a.609.609,0,0,0,.03.254A.316.316,0,0,0,.7.4Z" transform="translate(590.956 64.868)" fill="#43c5f7"/>
  <path id="Fill_334" data-name="Fill 334" d="M.635.345.3.395A.588.588,0,0,0,.332.648.315.315,0,0,0,.7.4Z" transform="translate(575.885 65.362)" fill="#43c5f7"/>
  <path id="Fill_336" data-name="Fill 336" d="M.438,2.966a7.6,7.6,0,0,0,3.43.216,1.326,1.326,0,0,0,.526-.175,1.08,1.08,0,0,0,.394-.956A2.217,2.217,0,0,0,3.239.11,2.752,2.752,0,0,0,.751.624a1.86,1.86,0,0,0-.746,1.2A1.044,1.044,0,0,0,.714,2.952a.226.226,0,0,0-.056-.374Z" transform="translate(617.393 209.973)" fill="#43c5f7"/>
  <path id="Fill_338" data-name="Fill 338" d="M1.322.914a.394.394,0,0,0,.254,0A.417.417,0,0,0,1.735.726a3.675,3.675,0,0,1,.39-.561L1,.362a.229.229,0,0,1-.09,0C.811.342.794.2.721.127.614.017.427.071.3.153-.63.737.862.815,1.322.914" transform="translate(614.414 194.698)" fill="#43c5f7"/>
  <path id="Fill_340" data-name="Fill 340" d="M.254.554A.175.175,0,0,1,.306.316.323.323,0,0,1,.568.283.313.313,0,0,1,.711.352.228.228,0,0,1,.7.679.246.246,0,0,1,.368.65.265.265,0,0,1,.378.311Z" transform="translate(587.927 167.633)" fill="#43c5f7"/>
  <path id="Fill_342" data-name="Fill 342" d="M1.03.665C.954.564.782.632.722.742S.667.987.619,1.1a.449.449,0,0,1-.275.257.214.214,0,0,1-.213-.026A.265.265,0,0,1,.065,1.2,1.355,1.355,0,0,1,.041.467.633.633,0,0,1,.562,0,.5.5,0,0,1,1,.22.5.5,0,0,1,1.03.712Z" transform="translate(633.049 189.02)" fill="#43c5f7"/>
  <path id="Fill_344" data-name="Fill 344" d="M1.03.665C.955.564.782.631.723.742a3.641,3.641,0,0,0-.1.361.45.45,0,0,1-.276.257.215.215,0,0,1-.213-.025A.268.268,0,0,1,.065,1.2,1.359,1.359,0,0,1,.041.466.636.636,0,0,1,.563,0a.5.5,0,0,1,.443.218A.5.5,0,0,1,1.03.712Z" transform="translate(580.223 193.388)" fill="#43c5f7"/>
  <path id="Fill_346" data-name="Fill 346" d="M.033.6A1.22,1.22,0,0,0,.439.879.414.414,0,0,0,.892.78.368.368,0,0,0,.967.551.476.476,0,0,0,.485.095.474.474,0,0,0,.057.6Z" transform="translate(592.894 191.524)" fill="#43c5f7"/>
  <path id="Fill_348" data-name="Fill 348" d="M0,1.492A7.594,7.594,0,0,0,2.338,4.01a1.346,1.346,0,0,0,.5.236,1.081,1.081,0,0,0,.944-.423A2.218,2.218,0,0,0,4,1.349,2.748,2.748,0,0,0,1.839.01,1.854,1.854,0,0,0,.471.368a1.043,1.043,0,0,0-.261,1.3.226.226,0,0,0,.216-.311Z" transform="translate(625.597 206.65)" fill="#43c5f7"/>
  <path id="Fill_350" data-name="Fill 350" d="M0,1.492A7.581,7.581,0,0,0,2.337,4.01a1.345,1.345,0,0,0,.5.236,1.085,1.085,0,0,0,.945-.423A2.22,2.22,0,0,0,4,1.349,2.75,2.75,0,0,0,1.839.01,1.852,1.852,0,0,0,.47.368,1.044,1.044,0,0,0,.209,1.673a.226.226,0,0,0,.216-.311Z" transform="translate(298.063 38.097)" fill="#43c5f7"/>
  <path id="Fill_352" data-name="Fill 352" d="M.3,1.037a.679.679,0,0,0,.258.111A.238.238,0,0,0,.8,1.043C.873.9.741.745.743.589S.88.283.828.136A.264.264,0,0,0,.437.05.687.687,0,0,0,.208.442a.767.767,0,0,0-.03.407.3.3,0,0,0,.3.229Z" transform="translate(641.479 177.927)" fill="#43c5f7"/>
  <path id="Fill_354" data-name="Fill 354" d="M.3,1.706a1.96,1.96,0,0,0,1.7.854,2.066,2.066,0,0,0,.047-1.9A1.249,1.249,0,0,0,.348.169.9.9,0,0,0,.563,1.716Z" transform="translate(626.884 215.684)" fill="#43c5f7"/>
  <path id="Fill_356" data-name="Fill 356" d="M.366.34A.27.27,0,0,0,.584.75.483.483,0,0,0,.677.469.229.229,0,0,0,.5.252.153.153,0,0,0,.332.437Z" transform="translate(585.678 162.478)" fill="#43c5f7"/>
  <path id="Fill_358" data-name="Fill 358" d="M0,1.492A7.573,7.573,0,0,0,2.338,4.01a1.339,1.339,0,0,0,.5.236,1.08,1.08,0,0,0,.943-.423A2.218,2.218,0,0,0,4,1.349,2.748,2.748,0,0,0,1.839.01,1.856,1.856,0,0,0,.47.368a1.043,1.043,0,0,0-.261,1.3.226.226,0,0,0,.216-.311Z" transform="translate(627.257 171.862)" fill="#43c5f7"/>
  <path id="Fill_360" data-name="Fill 360" d="M0,1.492A7.574,7.574,0,0,0,2.338,4.01a1.331,1.331,0,0,0,.5.236,1.08,1.08,0,0,0,.944-.422A2.22,2.22,0,0,0,4,1.349,2.748,2.748,0,0,0,1.839.01,1.853,1.853,0,0,0,.471.368a1.043,1.043,0,0,0-.261,1.3.226.226,0,0,0,.216-.31Z" transform="translate(685.373 20.293)" fill="#43c5f7"/>
  <path id="Fill_362" data-name="Fill 362" d="M.3,1.706A1.96,1.96,0,0,0,2,2.56a2.063,2.063,0,0,0,.046-1.9A1.247,1.247,0,0,0,.347.169.9.9,0,0,0,.563,1.716Z" transform="translate(611.008 202.813)" fill="#43c5f7"/>
  <path id="Fill_364" data-name="Fill 364" d="M.1.421A1.009,1.009,0,0,0,.885.838,1.014,1.014,0,0,0,.873.427.354.354,0,0,0,.587.163C.4.149.262.33.162.49.151.44.138.389.126.338Z" transform="translate(618.541 210.534)" fill="#43c5f7"/>
  <path id="Fill_366" data-name="Fill 366" d="M1.156,1.041a.4.4,0,0,0,.244.068A.409.409,0,0,0,1.6.974a3.711,3.711,0,0,1,.53-.431L1,.422A.215.215,0,0,1,.916.4C.824.349.845.21.8.117.724-.019.53-.017.382.025-.67.33.741.818,1.156,1.041" transform="translate(619.555 209.103)" fill="#43c5f7"/>
  <path id="Fill_368" data-name="Fill 368" d="M.265.234A.46.46,0,0,1,0,.158.778.778,0,0,1,.677.015C.809.033.968.077,1,.207,1.023.3.97.387.959.479.937.665,1.068.9.922,1.013A.228.228,0,0,1,.634.979.686.686,0,0,1,.484.705C.407.488.329.271.252.055Z" transform="translate(615.602 208.215)" fill="#43c5f7"/>
  <path id="Fill_370" data-name="Fill 370" d="M.41.8C.547.942.795.737.763.545S.553.229.389.125a.679.679,0,0,0-.074.75Z" transform="translate(615.468 204.008)" fill="#43c5f7"/>
  <path id="Fill_372" data-name="Fill 372" d="M.253.553A.175.175,0,0,1,.305.315.323.323,0,0,1,.567.282.313.313,0,0,1,.71.351.229.229,0,0,1,.7.679.247.247,0,0,1,.367.649.265.265,0,0,1,.377.31Z" transform="translate(619.154 206.404)" fill="#43c5f7"/>
  <path id="Fill_374" data-name="Fill 374" d="M.366.34A.27.27,0,0,0,.583.75.477.477,0,0,0,.677.469.229.229,0,0,0,.5.252.153.153,0,0,0,.332.437Z" transform="translate(618.553 207.74)" fill="#43c5f7"/>
  <path id="Fill_376" data-name="Fill 376" d="M.177.52a.767.767,0,0,0,.461.489C.689.826.739.642.789.459A.509.509,0,0,0,.815.2.307.307,0,0,0,.387.033.426.426,0,0,0,.193.484Z" transform="translate(616.61 211.341)" fill="#43c5f7"/>
  <path id="Fill_378" data-name="Fill 378" d="M.285.743A.354.354,0,0,1,.27.364.35.35,0,0,1,.613.2C.7.215.8.3.774.383A.213.213,0,0,1,.7.472L.315.8.268.725Z" transform="translate(617.972 203.759)" fill="#43c5f7"/>
  <path id="Fill_380" data-name="Fill 380" d="M.181.941C.334.875.355.668.342.5S.321.136.454.036A.142.142,0,0,1,.582.005C.695.042.663.2.68.32a1.2,1.2,0,0,0,.1.261.562.562,0,0,1-.153.611.318.318,0,0,1-.319-.115A.318.318,0,0,1,.291.738Z" transform="translate(619.342 201.239)" fill="#43c5f7"/>
  <path id="Fill_382" data-name="Fill 382" d="M.181.942C.334.875.355.668.342.5S.321.136.454.036A.142.142,0,0,1,.582.005C.695.042.663.2.68.32A1.2,1.2,0,0,0,.785.581a.562.562,0,0,1-.154.611.318.318,0,0,1-.319-.115A.32.32,0,0,1,.291.738Z" transform="translate(590.011 194.929)" fill="#43c5f7"/>
  <path id="Fill_384" data-name="Fill 384" d="M.423.616.6.688A.237.237,0,0,0,.651.4.2.2,0,0,0,.374.348.167.167,0,0,0,.4.614Z" transform="translate(620.553 202.394)" fill="#43c5f7"/>
  <path id="Fill_386" data-name="Fill 386" d="M.423.615.6.688A.235.235,0,0,0,.651.4.2.2,0,0,0,.375.347.167.167,0,0,0,.4.614Z" transform="translate(624.004 199.49)" fill="#43c5f7"/>
  <path id="Fill_388" data-name="Fill 388" d="M1.03.665C.955.564.782.632.723.743a3.565,3.565,0,0,0-.1.361.45.45,0,0,1-.276.257.213.213,0,0,1-.213-.026A.265.265,0,0,1,.065,1.2,1.355,1.355,0,0,1,.041.467.633.633,0,0,1,.563,0,.5.5,0,0,1,1.006.22.5.5,0,0,1,1.03.713Z" transform="translate(617.436 208.742)" fill="#43c5f7"/>
  <path id="Fill_390" data-name="Fill 390" d="M.208.613A.3.3,0,0,0,.6.761.436.436,0,0,0,.845.387C.85.319.829.233.762.217A.173.173,0,0,0,.631.261C.473.371.313.48.154.59Z" transform="translate(619.532 211.895)" fill="#43c5f7"/>
  <path id="Fill_392" data-name="Fill 392" d="M.328.6a.512.512,0,0,1,.548-.6A1.288,1.288,0,0,1,.807.734a.444.444,0,0,1-.619.2C.161.791.133.649.1.507Z" transform="translate(613.315 205.764)" fill="#43c5f7"/>
  <path id="Fill_394" data-name="Fill 394" d="M.256.466A.131.131,0,0,1,.277.277.306.306,0,0,1,.483.225a.364.364,0,0,1,.17.036.259.259,0,0,1,.111.3A.328.328,0,0,1,.507.771.213.213,0,0,1,.345.74.113.113,0,0,1,.313.59Z" transform="translate(620.507 199.848)" fill="#43c5f7"/>
  <path id="Fill_396" data-name="Fill 396" d="M.388.584l.19.065a.434.434,0,0,0,.064-.3C.613.253.463.193.4.277A.215.215,0,0,0,.374.389L.35.762Z" transform="translate(620.297 207.451)" fill="#43c5f7"/>
  <path id="Fill_398" data-name="Fill 398" d="M.334.594.666.645A.6.6,0,0,0,.712.394.315.315,0,0,0,.287.518Z" transform="translate(609.426 203.384)" fill="#43c5f7"/>
  <path id="Fill_400" data-name="Fill 400" d="M.3,1.707a1.962,1.962,0,0,0,1.7.854,2.063,2.063,0,0,0,.046-1.9A1.248,1.248,0,0,0,.348.169.9.9,0,0,0,.563,1.717Z" transform="translate(620.34 195.069)" fill="#43c5f7"/>
  <path id="Fill_402" data-name="Fill 402" d="M.254.554A.174.174,0,0,1,.305.316.32.32,0,0,1,.567.283.3.3,0,0,1,.71.352.228.228,0,0,1,.7.679.247.247,0,0,1,.367.65.266.266,0,0,1,.377.311Z" transform="translate(628.486 198.661)" fill="#43c5f7"/>
  <path id="Fill_404" data-name="Fill 404" d="M.284.744A.355.355,0,0,1,.269.364.355.355,0,0,1,.613.2C.7.216.8.3.773.384A.2.2,0,0,1,.7.472L.314.8.267.725Z" transform="translate(627.305 196.016)" fill="#43c5f7"/>
  <path id="Fill_406" data-name="Fill 406" d="M.181.942C.333.875.354.669.341.5S.32.136.453.036A.15.15,0,0,1,.582,0c.112.037.081.2.1.316a1.185,1.185,0,0,0,.1.261.56.56,0,0,1-.153.61.317.317,0,0,1-.319-.114A.318.318,0,0,1,.29.739Z" transform="translate(593.204 192.298)" fill="#43c5f7"/>
  <path id="Fill_408" data-name="Fill 408" d="M.423.615.6.688A.235.235,0,0,0,.651.4.2.2,0,0,0,.375.348.166.166,0,0,0,.4.614Z" transform="translate(629.885 194.651)" fill="#43c5f7"/>
  <path id="Fill_410" data-name="Fill 410" d="M.423.616C.483.64.542.665.6.688A.234.234,0,0,0,.651.4.2.2,0,0,0,.375.348.167.167,0,0,0,.4.614Z" transform="translate(633.336 191.746)" fill="#43c5f7"/>
  <path id="Fill_412" data-name="Fill 412" d="M.328.606a.512.512,0,0,1,.548-.6A1.287,1.287,0,0,1,.807.734a.443.443,0,0,1-.619.2C.161.791.134.649.1.507Z" transform="translate(622.647 198.02)" fill="#43c5f7"/>
  <path id="Fill_414" data-name="Fill 414" d="M.256.467A.131.131,0,0,1,.277.278.315.315,0,0,1,.484.225.373.373,0,0,1,.653.262a.258.258,0,0,1,.111.3A.328.328,0,0,1,.507.772.209.209,0,0,1,.345.74.113.113,0,0,1,.313.591Z" transform="translate(629.839 192.104)" fill="#43c5f7"/>
  <path id="Fill_416" data-name="Fill 416" d="M.334.594c.11.017.222.033.332.051A.6.6,0,0,0,.712.393.317.317,0,0,0,.287.518Z" transform="translate(618.759 195.641)" fill="#43c5f7"/>
  <path id="Fill_418" data-name="Fill 418" d="M.334.594C.445.611.556.627.666.645A.588.588,0,0,0,.712.393.317.317,0,0,0,.287.518Z" transform="translate(633.308 199.601)" fill="#43c5f7"/>
  <path id="Fill_420" data-name="Fill 420" d="M.286.08A1.17,1.17,0,0,1,1.4.229a.227.227,0,0,1,.09.111.243.243,0,0,1-.078.2c-.275.339-.668.717-1.08.575A.564.564,0,0,1,.168.2L.523.274Z" transform="translate(690.155 31.514)" fill="#43c5f7"/>
  <path id="Fill_422" data-name="Fill 422" d="M1.1,3.964A7.573,7.573,0,0,0,4.138,2.353,1.333,1.333,0,0,0,4.5,1.929,1.081,1.081,0,0,0,4.33.908,2.219,2.219,0,0,0,1.994.065,2.748,2.748,0,0,0,.144,1.806,1.852,1.852,0,0,0,.138,3.22a1.043,1.043,0,0,0,1.194.588.225.225,0,0,0-.245-.288Z" transform="translate(15.207 70.983)" fill="#43c5f7"/>
  <path id="Fill_424" data-name="Fill 424" d="M2.423,4.483A7.578,7.578,0,0,0,3.515,1.225,1.341,1.341,0,0,0,3.482.671,1.081,1.081,0,0,0,2.659.045a2.218,2.218,0,0,0-2.275,1A2.751,2.751,0,0,0,.242,3.578a1.849,1.849,0,0,0,.97,1.03,1.044,1.044,0,0,0,1.27-.4.226.226,0,0,0-.376-.041Z" transform="translate(75.854 17.317)" fill="#43c5f7"/>
  <path id="Fill_426" data-name="Fill 426" d="M1.528,2.007A1.964,1.964,0,0,0,2.791.586,2.068,2.068,0,0,0,.964.051,1.249,1.249,0,0,0,.055,1.563a.9.9,0,0,0,1.551.19Z" transform="translate(10.232 70.54)" fill="#43c5f7"/>
  <path id="Fill_428" data-name="Fill 428" d="M.562.975A2.278,2.278,0,0,0,.953.431.129.129,0,0,0,.973.353.1.1,0,0,0,.918.288C.719.169.391.326.267.13.245.095.231.049.193.032.129,0,.068.078.048.145A.611.611,0,0,0,.611.9L.533.963Z" transform="translate(18.536 77.173)" fill="#43c5f7"/>
  <path id="Fill_430" data-name="Fill 430" d="M1.01,1.79A4.283,4.283,0,0,0,1.746.765.233.233,0,0,0,1.784.618a.2.2,0,0,0-.1-.123C1.306.271.688.566.453.2.411.13.385.044.313.012.194-.042.078.1.04.225A1.154,1.154,0,0,0,1.1,1.645l-.148.123Z" transform="translate(24.701 79.575)" fill="#43c5f7"/>
  <path id="Fill_432" data-name="Fill 432" d="M1.01,1.79A4.314,4.314,0,0,0,1.747.765.238.238,0,0,0,1.784.618a.194.194,0,0,0-.1-.123C1.306.271.688.566.454.2.412.131.385.044.314.012.194-.042.078.1.04.225A1.153,1.153,0,0,0,1.1,1.645l-.148.123Z" transform="translate(23.378 91.412)" fill="#43c5f7"/>
  <path id="Fill_434" data-name="Fill 434" d="M.267.874A1.009,1.009,0,0,0,.872.221a1.04,1.04,0,0,0-.4-.094A.356.356,0,0,0,.143.336C.081.514.221.694.35.831l-.156,0Z" transform="translate(19.599 66.241)" fill="#43c5f7"/>
  <path id="Fill_436" data-name="Fill 436" d="M1.028.968A.386.386,0,0,0,1.091.722.411.411,0,0,0,.952.52,3.774,3.774,0,0,1,.51,0Q.462.567.413,1.134a.235.235,0,0,1-.02.087c-.05.093-.189.074-.281.125-.134.075-.128.269-.083.416.326,1.046.785-.375,1-.794" transform="translate(59.968 18.397)" fill="#43c5f7"/>
  <path id="Fill_438" data-name="Fill 438" d="M1.18,1.074A.4.4,0,0,0,1.309.855.415.415,0,0,0,1.231.622,3.733,3.733,0,0,1,.951,0C.814.354.679.708.543,1.062A.227.227,0,0,1,.5,1.141c-.073.076-.2.018-.3.042-.149.035-.2.224-.2.377.023,1.1.858-.143,1.18-.486" transform="translate(36.033 69.66)" fill="#43c5f7"/>
  <path id="Fill_440" data-name="Fill 440" d="M.7.467l.135-.3A.533.533,0,0,0,.224.3C.093.474.205.8.427.8.564.8.78.739.778.877Z" transform="translate(74.718 38.705)" fill="#43c5f7"/>
  <path id="Fill_442" data-name="Fill 442" d="M.719.9A.478.478,0,0,1,.056.493.478.478,0,0,1,.731.1.479.479,0,0,1,.755.882Z" transform="translate(37.112 78.343)" fill="#43c5f7"/>
  <path id="Fill_444" data-name="Fill 444" d="M.9.37C.868.616.761.927.513.927S.162.638.113.4C.092.3.077.183.154.114c.185-.169.474.25.69.125C.907.273.854.395.786.371Z" transform="translate(24.325 74.77)" fill="#43c5f7"/>
  <path id="Fill_446" data-name="Fill 446" d="M.21.741A.451.451,0,0,1,.068.977.772.772,0,0,1,.106.287C.156.163.239.021.373.023.466.025.54.1.626.134c.173.069.431,0,.507.172a.23.23,0,0,1-.108.27.654.654,0,0,1-.3.074L.034.707Z" transform="translate(16.52 68.408)" fill="#43c5f7"/>
  <path id="Fill_448" data-name="Fill 448" d="M.3.595A.271.271,0,0,0,.756.49.475.475,0,0,0,.509.327.23.23,0,0,0,.254.442a.153.153,0,0,0,.135.21Z" transform="translate(16.855 65.511)" fill="#43c5f7"/>
  <path id="Fill_450" data-name="Fill 450" d="M.3.595A.271.271,0,0,0,.756.49.475.475,0,0,0,.509.327.23.23,0,0,0,.254.442a.153.153,0,0,0,.135.21Z" transform="translate(29.804 67.565)" fill="#43c5f7"/>
  <path id="Fill_452" data-name="Fill 452" d="M.424.85A.77.77,0,0,0,1.015.53L.523.242A.511.511,0,0,0,.274.15.306.306,0,0,0,.007.521a.43.43,0,0,0,.387.3Z" transform="translate(19.84 68.29)" fill="#43c5f7"/>
  <path id="Fill_454" data-name="Fill 454" d="M.78.072.333,1C.157,1,.135.746.173.574A.892.892,0,0,1,.381.1a.311.311,0,0,1,.461.01Z" transform="translate(26.021 105.641)" fill="#43c5f7"/>
  <path id="Fill_456" data-name="Fill 456" d="M.538.862c.238.083.487-.207.42-.45a.538.538,0,0,0-.6-.338A.4.4,0,0,0,.079.228.383.383,0,0,0,.15.686,1.123,1.123,0,0,0,.581.933Z" transform="translate(26.425 98.133)" fill="#43c5f7"/>
  <path id="Fill_458" data-name="Fill 458" d="M.363.7A.59.59,0,0,0,.991.488.708.708,0,0,0,.59.2a.473.473,0,0,0-.565.23c-.08.209.169.478.359.363Z" transform="translate(25.266 73.025)" fill="#43c5f7"/>
  <path id="Fill_460" data-name="Fill 460" d="M.635.753A.351.351,0,0,1,.205.676C.281.519.356.361.431.2A.4.4,0,0,1,.772.727Z" transform="translate(22.664 73.547)" fill="#43c5f7"/>
  <path id="Fill_462" data-name="Fill 462" d="M.708.718l-.047.2A1.127,1.127,0,0,1,.314.59.383.383,0,0,1,.343.14.235.235,0,0,1,.727.23.83.83,0,0,1,.686.71Z" transform="translate(18.269 76.727)" fill="#43c5f7"/>
  <path id="Fill_464" data-name="Fill 464" d="M.771.115c-.117.047-.1.23,0,.316A3.359,3.359,0,0,0,1.09.624a.454.454,0,0,1,.177.332.219.219,0,0,1-.08.2.274.274,0,0,1-.147.029A1.362,1.362,0,0,1,.325,1.02.635.635,0,0,1,.009.395.5.5,0,0,1,.334.024a.5.5,0,0,1,.482.1Z" transform="translate(17.555 66.77)" fill="#43c5f7"/>
  <g id="Group_468" data-name="Group 468" transform="translate(59.219)">
    <path id="Clip_467-2" data-name="Clip 467" d="M0,0H1.267V1.185H0Z" transform="translate(0)" fill="none"/>
    <g id="Group_468-2" data-name="Group 468" clip-path="url(#clip-path-2)">
      <path id="Fill_466" data-name="Fill 466" d="M.771.115c-.117.047-.1.23,0,.316A3.359,3.359,0,0,0,1.09.624a.454.454,0,0,1,.177.332.219.219,0,0,1-.08.2.274.274,0,0,1-.147.029A1.362,1.362,0,0,1,.325,1.02.635.635,0,0,1,.009.395.5.5,0,0,1,.334.024a.5.5,0,0,1,.482.1Z" transform="translate(0 0)" fill="#43c5f7"/>
    </g>
  </g>
  <path id="Fill_469" data-name="Fill 469" d="M.771.115c-.117.047-.1.231,0,.316a3.713,3.713,0,0,0,.322.194.449.449,0,0,1,.178.332.221.221,0,0,1-.08.2.283.283,0,0,1-.147.028A1.358,1.358,0,0,1,.324,1.02.635.635,0,0,1,.009.395.5.5,0,0,1,.334.024a.5.5,0,0,1,.482.1Z" transform="translate(34.106 62.358)" fill="#43c5f7"/>
  <path id="Fill_471" data-name="Fill 471" d="M.77.115c-.117.047-.1.23,0,.316a3.586,3.586,0,0,0,.323.194.451.451,0,0,1,.177.331.221.221,0,0,1-.08.2.281.281,0,0,1-.147.028A1.362,1.362,0,0,1,.324,1.02.636.636,0,0,1,.008.395.5.5,0,0,1,.333.024a.5.5,0,0,1,.483.1Z" transform="translate(49.843 52.17)" fill="#43c5f7"/>
  <path id="Fill_473" data-name="Fill 473" d="M.5.822A.3.3,0,0,0,.747.48a.437.437,0,0,0-.3-.332C.383.126.295.124.262.185A.173.173,0,0,0,.271.322L.466.867Z" transform="translate(21.149 65.631)" fill="#43c5f7"/>
  <path id="Fill_475" data-name="Fill 475" d="M.379,1.26a1.546,1.546,0,0,0,1.085.461.25.25,0,0,0,.193-.057c.106-.114-.033-.282-.106-.42-.122-.233-.037-.535-.162-.768A.958.958,0,0,0,.874.108c-.287-.119-.7-.2-.839.083a.572.572,0,0,0,.04.466,3.033,3.033,0,0,0,.543.856Z" transform="translate(0 122.094)" fill="#43c5f7"/>
  <path id="Fill_477" data-name="Fill 477" d="M.379,1.26a1.547,1.547,0,0,0,1.085.462.254.254,0,0,0,.193-.058c.106-.114-.033-.281-.105-.419-.123-.234-.038-.536-.163-.768A.952.952,0,0,0,.874.109c-.287-.12-.7-.2-.839.082a.572.572,0,0,0,.04.466,3.055,3.055,0,0,0,.543.856Z" transform="translate(57.538 67.731)" fill="#43c5f7"/>
  <path id="Fill_479" data-name="Fill 479" d="M.388,1c.087.229.427.16.646.051.137-.069.291-.159.315-.311C1.383.533,1.167.385.983.292L.5.052A.281.281,0,0,0,.273.012.262.262,0,0,0,.152.177,2.491,2.491,0,0,0,.008,1.225Z" transform="translate(30.656 76.654)" fill="#43c5f7"/>
  <path id="Fill_481" data-name="Fill 481" d="M.049,1.79C.612,3.9,3.015,3.019,2.974,1.151,2.93-.807-.441-.047.049,1.79" transform="translate(23.157 77.284)" fill="#43c5f7"/>
  <path id="Fill_483" data-name="Fill 483" d="M.049,1.79C.612,3.9,3.016,3.019,2.974,1.151,2.931-.807-.441-.047.049,1.79" transform="translate(32.727 82.9)" fill="#43c5f7"/>
  <path id="Fill_485" data-name="Fill 485" d="M.532.733A.512.512,0,0,1,.1.049,1.285,1.285,0,0,1,.779.3.441.441,0,0,1,.811.951L.38.922Z" transform="translate(13.616 70.032)" fill="#43c5f7"/>
  <path id="Fill_487" data-name="Fill 487" d="M.576.611.688.444A.429.429,0,0,0,.418.306c-.1,0-.2.131-.134.211a.2.2,0,0,0,.1.057l.354.12Z" transform="translate(16.996 63.777)" fill="#43c5f7"/>
  <path id="Fill_489" data-name="Fill 489" d="M.465.964A1.223,1.223,0,0,0,.836.643.415.415,0,0,0,.857.18a.364.364,0,0,0-.2-.131A.475.475,0,0,0,.09.4.476.476,0,0,0,.469.941Z" transform="translate(26.457 56.077)" fill="#43c5f7"/>
  <path id="Fill_491" data-name="Fill 491" d="M.465.964A1.223,1.223,0,0,0,.836.643.415.415,0,0,0,.857.18a.367.367,0,0,0-.2-.131A.475.475,0,0,0,.09.4.476.476,0,0,0,.469.941Z" transform="translate(51.292 39.544)" fill="#43c5f7"/>
  <path id="Fill_493" data-name="Fill 493" d="M.78.538A.334.334,0,0,1,.22.632.937.937,0,0,1,.3.252.594.594,0,0,1,.669.463Z" transform="translate(31.369 69.289)" fill="#43c5f7"/>
  <path id="Fill_495" data-name="Fill 495" d="M.524.7C.569.593.613.49.658.388A.6.6,0,0,0,.427.279.316.316,0,0,0,.439.721Z" transform="translate(10.315 73.204)" fill="#43c5f7"/>
  <path id="Fill_497" data-name="Fill 497" d="M1.1,3.964A7.573,7.573,0,0,0,4.138,2.353a1.336,1.336,0,0,0,.357-.425A1.082,1.082,0,0,0,4.33.907,2.22,2.22,0,0,0,1.994.064,2.75,2.75,0,0,0,.144,1.805a1.85,1.85,0,0,0,0,1.415,1.042,1.042,0,0,0,1.193.588.226.226,0,0,0-.245-.289Z" transform="translate(74.538 9.097)" fill="#43c5f7"/>
  <path id="Fill_499" data-name="Fill 499" d="M1.527,2.008A1.965,1.965,0,0,0,2.79.587,2.065,2.065,0,0,0,.963.052,1.25,1.25,0,0,0,.054,1.564a.9.9,0,0,0,1.551.19Z" transform="translate(83.458 11.904)" fill="#43c5f7"/>
  <path id="Fill_501" data-name="Fill 501" d="M.77.115c-.117.047-.1.231,0,.316a3.586,3.586,0,0,0,.323.194.451.451,0,0,1,.177.331.221.221,0,0,1-.08.2.281.281,0,0,1-.147.028A1.353,1.353,0,0,1,.324,1.02.636.636,0,0,1,.008.395.5.5,0,0,1,.333.024a.5.5,0,0,1,.483.1Z" transform="translate(85.508 39.742)" fill="#43c5f7"/>
  <path id="Fill_503" data-name="Fill 503" d="M1.528,2.008A1.965,1.965,0,0,0,2.791.587,2.065,2.065,0,0,0,.964.052,1.249,1.249,0,0,0,.055,1.563a.9.9,0,0,0,1.551.191Z" transform="translate(66.934 23.932)" fill="#43c5f7"/>
  <path id="Fill_505" data-name="Fill 505" d="M1.527,2.007A1.965,1.965,0,0,0,2.79.586,2.068,2.068,0,0,0,.963.051,1.25,1.25,0,0,0,.054,1.563a.9.9,0,0,0,1.551.19Z" transform="translate(75.986 55.413)" fill="#43c5f7"/>
  <path id="Fill_507" data-name="Fill 507" d="M.267.874A1.007,1.007,0,0,0,.872.221a1.04,1.04,0,0,0-.4-.094A.355.355,0,0,0,.143.335C.081.514.221.693.35.831l-.156,0Z" transform="translate(76.302 19.634)" fill="#43c5f7"/>
  <path id="Fill_509" data-name="Fill 509" d="M1.18,1.074A.4.4,0,0,0,1.309.856.418.418,0,0,0,1.231.622,3.733,3.733,0,0,1,.951,0L.543,1.062A.225.225,0,0,1,.5,1.141c-.073.076-.2.018-.3.042-.15.035-.2.224-.2.377.023,1.1.859-.143,1.18-.486" transform="translate(75.138 17.224)" fill="#43c5f7"/>
  <path id="Fill_511" data-name="Fill 511" d="M.7.468.831.163A.533.533,0,0,0,.224.3c-.131.178-.019.5.2.5C.564.795.78.74.778.877Z" transform="translate(82.957 17.227)" fill="#43c5f7"/>
  <path id="Fill_513" data-name="Fill 513" d="M.21.741A.455.455,0,0,1,.068.977.772.772,0,0,1,.106.287C.156.163.239.021.373.023.466.025.54.1.626.134c.173.068.431,0,.507.172a.229.229,0,0,1-.108.269.67.67,0,0,1-.3.075L.034.707Z" transform="translate(73.223 21.802)" fill="#43c5f7"/>
  <path id="Fill_515" data-name="Fill 515" d="M.793.641C.96.544.826.252.634.233a.707.707,0,0,0-.5.254A.679.679,0,0,0,.837.75Z" transform="translate(69.129 20.955)" fill="#43c5f7"/>
  <path id="Fill_517" data-name="Fill 517" d="M.488.756A.175.175,0,0,1,.271.645.321.321,0,0,1,.307.383a.308.308,0,0,1,.1-.12A.229.229,0,0,1,.724.357.246.246,0,0,1,.61.671a.266.266,0,0,1-.325-.1Z" transform="translate(72.416 17.981)" fill="#43c5f7"/>
  <path id="Fill_519" data-name="Fill 519" d="M.3.594A.27.27,0,0,0,.756.49.464.464,0,0,0,.509.327.228.228,0,0,0,.254.441.154.154,0,0,0,.389.652Z" transform="translate(73.558 18.905)" fill="#43c5f7"/>
  <path id="Fill_521" data-name="Fill 521" d="M.3.594A.27.27,0,0,0,.756.49.464.464,0,0,0,.509.327.228.228,0,0,0,.254.441.154.154,0,0,0,.389.652Z" transform="translate(86.507 20.958)" fill="#43c5f7"/>
  <path id="Fill_523" data-name="Fill 523" d="M.424.85A.769.769,0,0,0,1.015.531L.523.242A.512.512,0,0,0,.275.15.306.306,0,0,0,.007.522a.432.432,0,0,0,.387.3Z" transform="translate(76.543 21.683)" fill="#43c5f7"/>
  <path id="Fill_525" data-name="Fill 525" d="M.7.78A.352.352,0,0,1,.33.7.352.352,0,0,1,.262.323C.3.238.4.166.478.215A.2.2,0,0,1,.545.307L.764.766.679.791Z" transform="translate(69.535 18.438)" fill="#43c5f7"/>
  <path id="Fill_527" data-name="Fill 527" d="M.819.84C.794.674.6.6.435.571S.077.5.014.343a.146.146,0,0,1,0-.132C.082.112.231.184.347.2A1.26,1.26,0,0,0,.626.164a.563.563,0,0,1,.551.305A.316.316,0,0,1,.984.748.317.317,0,0,1,.651.681Z" transform="translate(67.499 16.556)" fill="#43c5f7"/>
  <path id="Fill_529" data-name="Fill 529" d="M.82.84C.794.674.6.6.436.571S.077.5.014.343a.146.146,0,0,1,0-.132C.082.112.231.184.348.2A1.274,1.274,0,0,0,.627.164a.56.56,0,0,1,.55.305A.317.317,0,0,1,.985.748.317.317,0,0,1,.652.681Z" transform="translate(53.85 43.275)" fill="#43c5f7"/>
  <path id="Fill_531" data-name="Fill 531" d="M.584.607.7.453A.233.233,0,0,0,.435.332.2.2,0,0,0,.313.585.168.168,0,0,0,.577.629Z" transform="translate(68.908 15.599)" fill="#43c5f7"/>
  <path id="Fill_533" data-name="Fill 533" d="M.584.607.7.453A.234.234,0,0,0,.435.332.2.2,0,0,0,.313.585.167.167,0,0,0,.577.629Z" transform="translate(66.99 11.516)" fill="#43c5f7"/>
  <path id="Fill_535" data-name="Fill 535" d="M.771.115c-.117.047-.1.231,0,.316A3.586,3.586,0,0,0,1.09.625a.451.451,0,0,1,.177.331.221.221,0,0,1-.08.2.283.283,0,0,1-.147.028A1.353,1.353,0,0,1,.325,1.02.635.635,0,0,1,.009.395.5.5,0,0,1,.334.024a.5.5,0,0,1,.482.1Z" transform="translate(74.258 20.163)" fill="#43c5f7"/>
  <path id="Fill_537" data-name="Fill 537" d="M.5.821A.3.3,0,0,0,.747.479a.432.432,0,0,0-.3-.331C.383.125.295.124.262.184A.173.173,0,0,0,.271.321L.466.866Z" transform="translate(77.851 19.024)" fill="#43c5f7"/>
  <path id="Fill_539" data-name="Fill 539" d="M.532.733A.512.512,0,0,1,.1.049,1.278,1.278,0,0,1,.779.3.441.441,0,0,1,.812.951L.38.923Z" transform="translate(70.319 23.424)" fill="#43c5f7"/>
  <path id="Fill_541" data-name="Fill 541" d="M.418.747A.132.132,0,0,1,.24.677a.309.309,0,0,1,0-.212A.369.369,0,0,1,.322.31.259.259,0,0,1,.642.281a.326.326,0,0,1,.135.3A.209.209,0,0,1,.706.731.115.115,0,0,1,.552.724Z" transform="translate(66.415 14.972)" fill="#43c5f7"/>
  <path id="Fill_543" data-name="Fill 543" d="M.576.611.688.444A.425.425,0,0,0,.418.306c-.1,0-.2.131-.134.211a.2.2,0,0,0,.1.057l.354.12Z" transform="translate(73.698 17.17)" fill="#43c5f7"/>
  <path id="Fill_545" data-name="Fill 545" d="M.465.964A1.238,1.238,0,0,0,.837.643.417.417,0,0,0,.857.18a.364.364,0,0,0-.2-.131A.475.475,0,0,0,.09.4.476.476,0,0,0,.469.941Z" transform="translate(80.135 20.414)" fill="#43c5f7"/>
  <path id="Fill_547" data-name="Fill 547" d="M.524.7c.045-.1.09-.2.134-.308A.6.6,0,0,0,.427.279.316.316,0,0,0,.439.721Z" transform="translate(67.018 26.597)" fill="#43c5f7"/>
  <path id="Fill_549" data-name="Fill 549" d="M1.527,2.007A1.964,1.964,0,0,0,2.79.586,2.068,2.068,0,0,0,.963.051,1.25,1.25,0,0,0,.054,1.563a.9.9,0,0,0,1.551.19Z" transform="translate(61.854 12.921)" fill="#43c5f7"/>
  <path id="Fill_551" data-name="Fill 551" d="M.487.757A.176.176,0,0,1,.27.646.331.331,0,0,1,.306.383a.323.323,0,0,1,.1-.12A.228.228,0,0,1,.723.358.244.244,0,0,1,.609.671a.264.264,0,0,1-.325-.1Z" transform="translate(67.336 6.97)" fill="#43c5f7"/>
  <path id="Fill_553" data-name="Fill 553" d="M.7.78A.352.352,0,0,1,.33.7.354.354,0,0,1,.262.323C.3.239.4.166.478.215A.2.2,0,0,1,.545.307L.764.766.679.792Z" transform="translate(64.454 7.426)" fill="#43c5f7"/>
  <path id="Fill_555" data-name="Fill 555" d="M.819.84C.794.675.6.6.435.571S.076.5.014.343a.143.143,0,0,1,0-.132C.082.112.231.184.347.2A1.265,1.265,0,0,0,.626.165a.56.56,0,0,1,.551.3A.316.316,0,0,1,.984.748.315.315,0,0,1,.651.681Z" transform="translate(52.131 39.512)" fill="#43c5f7"/>
  <path id="Fill_557" data-name="Fill 557" d="M.585.607.7.453A.234.234,0,0,0,.436.332.194.194,0,0,0,.314.585.166.166,0,0,0,.577.629Z" transform="translate(63.828 4.588)" fill="#43c5f7"/>
  <path id="Fill_559" data-name="Fill 559" d="M.585.607.7.453A.233.233,0,0,0,.435.332.2.2,0,0,0,.314.585.167.167,0,0,0,.577.629Z" transform="translate(61.91 0.506)" fill="#43c5f7"/>
  <path id="Fill_561" data-name="Fill 561" d="M.532.733A.513.513,0,0,1,.1.049,1.283,1.283,0,0,1,.78.3.443.443,0,0,1,.812.951L.38.922Z" transform="translate(65.238 12.414)" fill="#43c5f7"/>
  <path id="Fill_563" data-name="Fill 563" d="M.418.747A.132.132,0,0,1,.24.677a.309.309,0,0,1,0-.212A.381.381,0,0,1,.322.31.259.259,0,0,1,.642.281a.328.328,0,0,1,.135.3A.21.21,0,0,1,.706.732.116.116,0,0,1,.552.724Z" transform="translate(61.335 3.961)" fill="#43c5f7"/>
  <path id="Fill_565" data-name="Fill 565" d="M.523.7C.568.592.613.491.657.387A.61.61,0,0,0,.427.278.317.317,0,0,0,.438.721Z" transform="translate(61.937 15.586)" fill="#43c5f7"/>
  <path id="Fill_567" data-name="Fill 567" d="M.523.7C.568.592.613.491.657.387A.618.618,0,0,0,.427.278.317.317,0,0,0,.438.721Z" transform="translate(69.509 2.545)" fill="#43c5f7"/>
  <path id="Fill_569" data-name="Fill 569" d="M1.127.607a1.168,1.168,0,0,1-.719.869.211.211,0,0,1-.141.017c-.072-.022-.1-.1-.129-.172C0,.909-.116.375.223.1a.564.564,0,0,1,.866.343L.836.7Z" transform="translate(37.425 117.312)" fill="#43c5f7"/>
</svg>
