<svg xmlns="http://www.w3.org/2000/svg" xmlns:xlink="http://www.w3.org/1999/xlink" width="384" height="677" viewBox="0 0 384 677">
  <defs>
    <clipPath id="clip-path">
      <path id="Clip_5" data-name="Clip 5" d="M0,0H-30V53H0Z" fill="none"/>
    </clipPath>
    <clipPath id="clip-path-2">
      <path id="Clip_8" data-name="Clip 8" d="M0,0H-265V654H0Z" fill="none"/>
    </clipPath>
  </defs>
  <g id="Group_4" data-name="Group 4" transform="translate(410)">
    <g id="Group_6" data-name="Group 6" transform="translate(-380 149)" clip-path="url(#clip-path)">
      <path id="Fill_4" data-name="Fill 4" d="M-4.02,14.314c1.98,3.175,2.125,6.8,4.02,9.849-4.4,4.26-9.422,8.745-14.6,13.577-1.127,1.05-3.1,1.961-4.025,3.066C-21.866,44.7-26.41,48.7-30,53V47.555c8.335-8.745,18.041-16.474,26.036-23.7C-3.9,12.905-16.973,5.8-30,2.359V0c1.392.319,2.823.667,4.3,1.115C-16.644,3.8-8.01,7.9-4.02,14.314"/>
    </g>
    <g id="Group_3" data-name="Group 3">
      <g id="Group_9" data-name="Group 9" transform="translate(-143)">
        <path id="Clip_8-2" data-name="Clip 8" d="M0,0H-265V654H0Z" fill="none"/>
        <g id="Group_9-2" data-name="Group 9" clip-path="url(#clip-path-2)">
          <path id="Fill_7" data-name="Fill 7" d="M-265,654l0,0c.19-.284.394-.584.558-.826A21.262,21.262,0,0,0-261.193,647c2.482-1.95,4.608-4.912,6.664-7.775s4.177-5.819,6.655-7.767c.983-4.284,3.32-7.283,5.579-10.184a39.891,39.891,0,0,0,3.554-5.092,17.114,17.114,0,0,0,1.1-2.692,16.222,16.222,0,0,1,1.328-3.117,44.583,44.583,0,0,1,3.791-5.029c.737-.888,1.5-1.806,2.171-2.7s1.374-1.718,2.057-2.531c2.749-3.267,5.345-6.354,5.189-11.5,2.292-3.59,4.377-7.436,6.394-11.156l.024-.045c.459-.846.934-1.722,1.4-2.575,1.052-1.938,2.188-3.836,3.285-5.672,1.567-2.62,3.186-5.328,4.528-8.1a11.207,11.207,0,0,0,.747-2.571,13.782,13.782,0,0,1,.621-2.314,25.365,25.365,0,0,1,2.6-4.5,21.431,21.431,0,0,0,2.454-4.3,23.576,23.576,0,0,0,1.013-4.766,21.207,21.207,0,0,1,2.366-8.154,54.247,54.247,0,0,1-.037-11.91c.068-1,.139-2.034.2-3.066.127-2.331.455-4.5.834-7v-.008c.218-1.443.443-2.935.664-4.657a8.867,8.867,0,0,0,.008-1.657,6.382,6.382,0,0,1,.051-1.741,44.187,44.187,0,0,1,2.175-6.357c.557-1.4,1.131-2.845,1.633-4.337.314-.931.621-1.9.917-2.846l0-.015a57.4,57.4,0,0,1,2.89-7.831,83.278,83.278,0,0,1,5.087-8.606c1.251-1.939,2.545-3.944,3.787-6.085.25-.429.52-.871.805-1.339a23.223,23.223,0,0,0,1.961-3.64,15.671,15.671,0,0,0,.684-4.354c.059-.9.12-1.837.262-2.767.367-2.338.971-4.8,1.556-7.179,1.154-4.7,2.348-9.556,1.863-13.932a56.207,56.207,0,0,0,2.014-8.226,66.051,66.051,0,0,1,1.519-6.686,17.183,17.183,0,0,1,4.43-3.742l.005,0c.557-.372,1.132-.757,1.711-1.173a35.724,35.724,0,0,0,3.417-3.1l.006-.006c.707-.693,1.439-1.409,2.137-2.049.543-.5,1.211-1.208,1.918-1.958a41.576,41.576,0,0,1,3.885-3.781,66.285,66.285,0,0,1,11.9-7.27,12.812,12.812,0,0,1,4.743-4.819,227.644,227.644,0,0,1,17.426-24.489c6.581-8.141,13.257-15.506,18.92-21.636.811-.877,1.618-1.77,2.4-2.633l.023-.025a85,85,0,0,1,9.438-9.406,3.076,3.076,0,0,1,1.148-.469,3.641,3.641,0,0,0,1.315-.542,3.049,3.049,0,0,0,.773-1.031,3.234,3.234,0,0,1,.775-1.046c.622-.5,1.318-.958,2.055-1.441,2.053-1.346,4.173-2.736,4.818-5.214a2.618,2.618,0,0,0-.637-.079c-1.364,0-2.589,1.044-3.669,1.964-.3.258-.587.5-.859.707-1.409,1.069-2.732,2.273-4.132,3.549-1.379,1.256-2.8,2.554-4.388,3.787-.333.261-.618.521-.919.8-.354.324-.719.657-1.206,1.035a4.547,4.547,0,0,1-1.27.514,3.961,3.961,0,0,0-1.194.487,17.361,17.361,0,0,0-2.122,2.389,22.183,22.183,0,0,1-1.8,2.1,26.342,26.342,0,0,1-2.086,1.79A24.131,24.131,0,0,0-102,345.3c-.755.759-1.49,1.639-2.2,2.49-.566.678-1.151,1.378-1.736,2-1.613,1.74-3.405,3.6-5.3,5.576-3.6,3.741-7.32,7.608-10.718,11.552-.561.655-1.161,1.331-1.742,1.986-.785.884-1.525,1.719-2.18,2.508-1.924,2.309-3.725,4.744-5.467,7.1-3.206,4.334-6.233,8.427-9.892,11.685a51.806,51.806,0,0,1-8.765,5.888c-1.853,1.069-3.6,2.077-5.255,3.209a1.662,1.662,0,0,0-.4-.051c-.846,0-1.408.74-1.951,1.456s-1.109,1.457-1.961,1.457a1.619,1.619,0,0,1-.276-.025c2.319-4.494,4.509-8.377,6.829-12.487,2.552-4.523,5.191-9.2,7.992-14.729.552-1.09,1.079-2.251,1.637-3.481a58.424,58.424,0,0,1,3.077-6.141,48.656,48.656,0,0,1,6.783-8.061c2.179-2.217,4.578-4.31,6.9-6.335a104.33,104.33,0,0,0,8.725-8.231,134.382,134.382,0,0,0,9.44-12.3q.592-.831,1.185-1.664a145.449,145.449,0,0,0,8.237-14.153c.579-1.078,1.233-2.3,1.857-3.446.907-1.665,1.728-3.377,2.521-5.034a58.2,58.2,0,0,1,4.238-7.825,27.077,27.077,0,0,1,4.644-4.9,26.359,26.359,0,0,0,3.777-3.837,20.7,20.7,0,0,0,1.341-2.194c.3-.537.611-1.091.938-1.618,4.383-7.081,8.161-18.772,10.621-26.951.359-1.194.713-2.358,1.056-3.483,1.6-5.244,3.108-10.2,4.189-15.492.387-1.9.741-3.865,1.116-5.946.767-4.257,1.561-8.659,2.716-12.934a47.921,47.921,0,0,1,1.794-5.088,46.831,46.831,0,0,0,1.77-5.024,41.067,41.067,0,0,0,.914-5.527c.086-.716.175-1.455.275-2.173.108-.778.179-1.6.247-2.4a19.279,19.279,0,0,1,.943-5.3,28.908,28.908,0,0,1,3.949-6.067l.007-.01c.478-.623.973-1.267,1.434-1.9A142.448,142.448,0,0,1-37.512,173.7a19.228,19.228,0,0,0,1.395-1.756,17.536,17.536,0,0,1,1.463-1.822c1.288-1.339,2.719-2.78,4.234-4.306,3.264-3.287,6.961-7.011,10.243-10.75,1-1.142,1.948-2.382,2.862-3.58s1.86-2.438,2.852-3.565a21.993,21.993,0,0,1,1.973-1.891c1.475-1.3,3-2.645,3.5-4.679-.112-.007-.212-.01-.306-.01-2.612,0-4.123,2.2-5.584,4.329a21.47,21.47,0,0,1-1.561,2.1,292.486,292.486,0,0,1-20.52,21.377c1.548-7.659,5.451-12.883,9.584-18.414.648-.867,1.315-1.76,1.973-2.663,3.233-4.431,6.678-8.653,10.324-13.124A242.871,242.871,0,0,0,0,115.082a2.025,2.025,0,0,0-.269-.018c-1.591,0-2.979,1.851-4.2,3.485l0,0c-.3.4-.585.78-.856,1.108-2.324,2.832-4.624,5.835-7.06,9.015-1.986,2.593-4.039,5.273-6.169,7.938-4.609,5.775-9.115,11.752-13.473,17.533-.534.707-1.136,1.411-1.719,2.091a24.106,24.106,0,0,0-2.7,3.559,50.766,50.766,0,0,0-3.261,7.763,53.474,53.474,0,0,1-3.314,7.914,60.812,60.812,0,0,1-6.63,9c-1.335,1.6-2.715,3.263-3.981,4.953-.273.365-.5.739-.75,1.134a14.246,14.246,0,0,1-1.042,1.523c-.182.221-.346.4-.5.577a5.276,5.276,0,0,0-1.048,1.5,16.984,16.984,0,0,0-1.117,6.107,26.424,26.424,0,0,1-.466,4.161,41.559,41.559,0,0,1-2.151,6.272c-.573,1.427-1.165,2.9-1.661,4.417-.944,2.905-1.734,5.936-2.5,8.866l-.028.106-.211.81c-.941,3.585-1.632,6.956-2.3,10.216a128.457,128.457,0,0,1-4.374,17.035c-.268.793-.678,1.717-1.076,2.61-.3.684-.619,1.391-.866,2.033a1.343,1.343,0,0,0,0,.707,1.639,1.639,0,0,1-.161,1.28,57.957,57.957,0,0,0-3.7,8.687,87.465,87.465,0,0,1-3.6,8.731c-3.854,7.461-8.73,12.439-14.866,17.618-9.473,19.449-22.7,43.362-41.065,55.747a35.68,35.68,0,0,1-1.188-8.794,32.941,32.941,0,0,0-1.391-9.39c2.037-9.154,3.42-18.854,4.758-28.235.536-3.754,1.089-7.634,1.677-11.425a63.476,63.476,0,0,1,3.3-10.937c1.044-2.876,2.123-5.849,3.011-8.958a6.983,6.983,0,0,0,.158-1.958,8.121,8.121,0,0,1,.147-2.01c.317-1.31.7-2.558,1.076-3.764a42.887,42.887,0,0,0,1.417-5.433c.486-2.817.884-6,1.306-9.37.3-2.41.613-4.9.979-7.438a203.489,203.489,0,0,0,1.781-20.441c.348-7.092,5.46-16.861,9.567-24.71l.061-.117.5-.957c.523-1,1.035-2.016,1.529-3a55.142,55.142,0,0,1,4.259-7.537,65.59,65.59,0,0,1,6.05-6.826,72.4,72.4,0,0,0,5.471-6.064c1.468-1.9,2.853-3.973,4.193-5.976q.476-.711.949-1.415c.85-1.26,1.761-2.554,2.643-3.806.829-1.178,1.687-2.4,2.493-3.585,4.16-6.146,7.87-12.832,11.458-19.3,2.484-4.477,5.05-9.1,7.773-13.571A70.459,70.459,0,0,1-58.9,118.6c.781-1.021,1.519-1.985,2.211-2.945.709-.987,1.391-1.988,2.05-2.957l.008-.012a59.145,59.145,0,0,1,4.388-5.917,91.6,91.6,0,0,1,11.56-10.493c1.546-1.248,3.141-2.536,4.65-3.828,1.522-1.307,2.945-2.727,4.32-4.1,1.168-1.166,2.373-2.369,3.614-3.476.682-.6,1.466-1.182,2.223-1.741,2.046-1.508,4.159-3.065,4.889-5.495a55.573,55.573,0,0,0-8.839,6.505c-2.975,2.546-5.95,5.332-8.827,8.027a156.256,156.256,0,0,1-15.9,13.62,65.331,65.331,0,0,1-6.635,9.7c-1.129,1.459-2.3,2.967-3.4,4.506a138.028,138.028,0,0,0-8.081,13.632c-2.652,4.862-5.394,9.888-8.378,14.26-2.533,3.71-4.738,6.9-6.938,10.048a205.358,205.358,0,0,1-14.532,18.449c-.654.743-1.294,1.548-1.914,2.326a23.456,23.456,0,0,1-5.447,5.495c-1.405,2.668-2.887,5.32-4.321,7.884-4.412,7.892-8.974,16.052-11.775,25.626a1.292,1.292,0,0,1-.469.1c-.846,0-1.3-1.046-1.772-2.154a5.022,5.022,0,0,0-1.407-2.221,102.53,102.53,0,0,0-7.8-12.2c-2.182-3.061-4.941-5.509-8.685-8.466-.738-.581-1.567-1.147-2.369-1.694a25.432,25.432,0,0,1-3.837-2.984,25.823,25.823,0,0,1-4.024-6.251c-.519-1-1.055-2.037-1.62-2.987a6.092,6.092,0,0,0-1.019-1.2,4.846,4.846,0,0,1-.8-.933,82.943,82.943,0,0,1-5.583-12.661c-1.148-3.037-2.335-6.175-3.669-9.035-.092-.2-.185-.441-.284-.7-.41-1.07-.97-2.534-2.2-2.534a1.713,1.713,0,0,0-.26.02c-.572,2.882.708,5.323,1.947,7.684.46.877.894,1.7,1.238,2.553.8,1.959,1.482,3.988,2.146,5.95l0,.005c.411,1.214.835,2.469,1.286,3.707a156.672,156.672,0,0,0,9.894,18.549c1.369,1.089,2.791,2.184,4.166,3.243,2.367,1.823,4.815,3.709,7.072,5.623,9.943,12.272,15.283,22.547,17.315,33.315-.915,4.507-1.577,8.979-2.217,13.3-1.323,8.931-2.691,18.164-6.348,28.188-.052.249-.143.369-.276.369-.208,0-.493-.284-.824-.614l-.145-.144c-.373-.366-.8-.757-1.21-.757a.806.806,0,0,0-.68.5,3.087,3.087,0,0,0-1.822,1.2,5.058,5.058,0,0,1-1.124.975c-3.319-4.223-5.563-9.113-7.732-13.843a90.384,90.384,0,0,0-5.661-10.976,6.485,6.485,0,0,0-.851-1,7.553,7.553,0,0,1-.966-1.141c-.4-.6-.764-1.23-1.156-1.9-.5-.846-1.007-1.721-1.671-2.715-.393-.592-.784-1.256-1.2-1.96l-.005-.007h0c-.463-.786-.987-1.676-1.619-2.646-1.631-2.5-4.2-5.835-6.681-9.062l-.069-.089-.632-.821a34.283,34.283,0,0,1-.627-9.837c-1.87-4.619-2.626-9.417-3.425-14.5-.3-1.907-.61-3.877-.984-5.826-1.182-6.247-2.629-13.546-4.395-20.32a21.1,21.1,0,0,0-.178-6.365,23.535,23.535,0,0,1-.29-5.464c-4.768-6.768-6.182-15.053-7.549-23.066A100.22,100.22,0,0,0-188,130.409a10.859,10.859,0,0,0,.6-4.226,21.189,21.189,0,0,1,.1-2.314,24.809,24.809,0,0,1,.616-2.971,23.589,23.589,0,0,0,.664-3.323,134.077,134.077,0,0,0,.384-14.264c-.024-3.081-.049-6.265.054-9.479l.035-1.147c.076-2.518.154-5.121.244-7.62a7,7,0,0,1,.352-1.636,4.342,4.342,0,0,0,.285-1.511c-.327-2.956-1.728-6.016-3.083-8.975a35.173,35.173,0,0,1-3.109-8.693,16.343,16.343,0,0,0,.5-2.065,11.222,11.222,0,0,1,1.367-3.979,67.143,67.143,0,0,1,.835-13.91c.25-1.939.508-3.944.7-5.955,1.264-13.529,2.952-27.6,4.28-38.339h-4.361c-1.619,12-3.016,24.106-4.367,35.81-.687,5.954-1.4,12.111-2.132,18.2a1.259,1.259,0,0,1-.4.075c-.661,0-.718-.776-.764-1.4a2.353,2.353,0,0,0-.081-.572c-.151-.392-.322-.79-.5-1.211-.292-.679-.592-1.378-.826-2.092a30.846,30.846,0,0,1-.782-3.042,26.538,26.538,0,0,0-1.074-3.893,58.129,58.129,0,0,0-2.92-6.056,64.76,64.76,0,0,1-2.913-5.989c-.419-1.041-.715-2.049-1.029-3.116-.3-1.039-.62-2.111-1.061-3.233a14.545,14.545,0,0,0-.9-1.809c-.794-1.425-1.614-2.9-1.191-4.551,3.316-4.287,6.875-8.168,10.316-11.922,1.552-1.692,3.154-3.44,4.714-5.2h-2.926l-.052.049-.006.006c-.07.066-.143.134-.207.205-.821.873-1.553,1.821-2.262,2.737-.645.834-1.253,1.621-1.909,2.337-1.264,1.373-2.508,2.694-3.712,3.971l-.013.014c-1.708,1.813-3.322,3.525-4.94,5.327a.551.551,0,0,1-.342.141c-.73,0-1.187-1.988-1.459-3.175-.044-.19-.085-.37-.12-.508a15.183,15.183,0,0,1-2.732-4.622c-.241-.539-.489-1.1-.756-1.647a8.671,8.671,0,0,1-.535-1.77c-.313-1.353-.637-2.753-1.859-3.064h-1.005c-.623,2.714.494,4.758,1.575,6.734a19.652,19.652,0,0,1,1.282,2.653,26.144,26.144,0,0,0,1.224,2.578c.986,1.9,2.005,3.855,1.867,6.253-3.35,5.264-7.505,8.772-11.524,12.165-.889.75-1.808,1.526-2.705,2.31-1.219-1.078-1.364-2.622-1.5-4.116a6.148,6.148,0,0,0-1.264-3.885,42.872,42.872,0,0,0-1.453-9.512,6.508,6.508,0,0,0-.52-1.278,5.453,5.453,0,0,1-.48-1.193,5.99,5.99,0,0,1,.023-1.689,6.922,6.922,0,0,0,.037-1.7,2.235,2.235,0,0,0-.3-.73,2.747,2.747,0,0,1-.364-.926c-.03-.2-.057-.467-.088-.78-.164-1.671-.469-4.782-2.247-4.989a2.161,2.161,0,0,0-.754-.166.814.814,0,0,0-.652.277c-.5.584-.27,1.973-.135,2.8v.005c.039.242.07.433.077.558a21.172,21.172,0,0,0,.585,3.28l0,.008c.1.437.2.851.26,1.179.425,2.231.962,4.384,1.435,6.284.181.727.353,1.413.506,2.058.447,2.046.819,4.16,1.178,6.2a84.1,84.1,0,0,0,2.46,11.059c-1.074.827-2.121,1.781-3.133,2.7a30.139,30.139,0,0,1-5.134,4.051c-5.237,8.156-10.446,15.952-16.583,21.686a18.822,18.822,0,0,1-2.542,4.529,23.584,23.584,0,0,0-2.5,4.269,25.444,25.444,0,0,0-1.32,5.567,32.451,32.451,0,0,1-1.089,5.03c-.78,2.344-1.739,4.938-2.931,7.931v9.312a156.531,156.531,0,0,0,6.39-15.772,38.427,38.427,0,0,0,1.22-5.344,30.749,30.749,0,0,1,1.433-5.84,22.991,22.991,0,0,1,1.916-3.576,16.422,16.422,0,0,0,2.314-4.885c3.784-2.9,6.9-7.645,9.915-12.237,3.483-5.307,7.085-10.794,11.736-13.452.119-.217.254-.464.487-.464a.592.592,0,0,1,.334.133,35.545,35.545,0,0,1,.7,4.094c.076.582.154,1.184.244,1.776,5.432,5.894,11.2,11.786,17.131,17.513.341.963.678,1.938,1,2.881.917,2.654,1.864,5.4,3.1,8.423.4.987.9,1.98,1.433,3.03,1.315,2.6,2.674,5.283,2.663,8.278a18.579,18.579,0,0,1-.737,4.014c-.195.767-.395,1.555-.537,2.285-1.933,9.761-4.205,21.135-6.4,31.474q-.128.6-.255,1.2c-.806,3.819-1.64,7.769-3.472,10.9.648,5.034,1.091,9.822,1.489,14.3.084.941.186,1.91.286,2.847v.006c.424,3.995.862,8.126.127,12.363a18.889,18.889,0,0,1,1.287,7.3c.051,1.19.1,2.42.265,3.615a3.457,3.457,0,0,0,.471,1.147,3.714,3.714,0,0,1,.524,1.325c.061.511.075.975.089,1.423a12.715,12.715,0,0,0,.094,1.394c.051.359.111.718.174,1.1v.007a12.08,12.08,0,0,1,.184,4.52,32.958,32.958,0,0,1-4.218-4.06,29.144,29.144,0,0,0-5.045-4.657,13.105,13.105,0,0,0-1.3-3.369c-.149-.292-.277-.544-.373-.764a1.608,1.608,0,0,0-.739-.666,1.877,1.877,0,0,1-.749-.641,35.17,35.17,0,0,1-1.462-3.2,20.613,20.613,0,0,0-1.787-3.656,22.87,22.87,0,0,1-1.945-3.628c-1.054-2.28-2.144-4.637-4.277-5.844a119.873,119.873,0,0,0,7.677,15.029c1.624,2.841,3.3,5.776,4.8,8.724a31.287,31.287,0,0,0,3.428,3.073,33,33,0,0,1,2.524,2.185,2.344,2.344,0,0,1,.276.686,3.7,3.7,0,0,0,.4.965,53.9,53.9,0,0,1,3.395,4.859c.267.432.488.836.7,1.226.277.5.538.981.88,1.5a18.7,18.7,0,0,1,1,1.7,11.527,11.527,0,0,0,.585,1.013,6.674,6.674,0,0,0,1.188,1.189,7.449,7.449,0,0,1,1.211,1.2c1.679,2.347,3.294,4.8,4.856,7.178a122.76,122.76,0,0,0,9.661,13.333,69.952,69.952,0,0,0,2.773,10.288c.611,1.881,1.186,3.654,1.6,5.238.237.926.512,1.9.778,2.851l.006.02a48.534,48.534,0,0,1,1.491,6.3,13.7,13.7,0,0,1,.082,1.424,10.128,10.128,0,0,0,.092,1.389,15.106,15.106,0,0,0,.728,2.391,13.537,13.537,0,0,1,.7,2.313,11.518,11.518,0,0,1,.095,1.966,6.047,6.047,0,0,0,.508,3.078,51.218,51.218,0,0,0-2.245,9.479,54.937,54.937,0,0,1-1.931,8.575.784.784,0,0,1-.332.084c-.6,0-.868-.935-1.173-2.017-.036-.127-.072-.255-.109-.383-.352-1.214-.782-2.4-1.82-2.4a1.949,1.949,0,0,0-.785.191c-.934,1.768-.1,3.186.714,4.558a9.261,9.261,0,0,1,.8,1.561c.453,1.267.862,2.537,1.258,3.765l0,.012c.27.839.55,1.707.843,2.574a20.914,20.914,0,0,0-1.044,8.574c.021.693.041,1.348.029,1.939a106.641,106.641,0,0,1-.826,13.324c-.229,1.614-.612,3.276-.982,4.883-.345,1.5-.7,3.048-.934,4.56-.718,4.59-1.48,9.3-2.217,13.862-1.721,10.646-3.5,21.655-4.926,32.332-2.98,4.722-4.633,10-6.231,15.1-.685,2.186-1.393,4.446-2.195,6.625a55.61,55.61,0,0,1-3.1,6.583,54.356,54.356,0,0,0-2.832,5.941,16.952,16.952,0,0,0-.82,3.7c-.124.85-.252,1.727-.464,2.6-.732,3.008-1.489,5.784-2.221,8.468-1.116,4.1-2.171,7.963-2.926,11.911-1.9,2.323-3.865,4.615-5.762,6.832-3.108,3.631-6.32,7.383-9.357,11.372-.775,1.213-1.514,2.562-2.229,3.867-2.43,4.434-4.943,9.018-9.242,9.018h-.055c.3-3.811.295-7.518.285-11.1v-.009c-.005-1.914-.01-3.893.034-5.846.032-1.521.029-3.063.025-4.554v-.017c-.015-6.287-.03-12.788,2.627-19.6a44.614,44.614,0,0,1,7.056-2.431c3.826-1.083,7.782-2.2,11.006-4.955a32.168,32.168,0,0,1,3.742-7.378,40.591,40.591,0,0,0,2.768-4.9c-.114-1.252-.294-2.6-.485-4.026-1.023-7.647-2.3-17.164,5.183-23.38-.172-1.777.916-4.095,1.969-6.337a32.711,32.711,0,0,0,1.59-3.776,5.426,5.426,0,0,1,.389-.9c.284-.566.578-1.149.369-1.519-.129-.228-.434-.358-.933-.4-.928,2.2-1.868,4.444-2.78,6.615l-.081.193q-1.251,2.98-2.5,5.961a19.779,19.779,0,0,0-6.106,9.712,12.5,12.5,0,0,0,.168,5.045,19.791,19.791,0,0,1,.369,3.386,15.058,15.058,0,0,1-.288,2.471,14.193,14.193,0,0,0-.26,2.087c-.027.88,0,1.67.018,2.434.023.8.045,1.548.012,2.365a37,37,0,0,0-6.36,10.292,37.314,37.314,0,0,1-8.487,2.354c-3.551.689-7.221,1.4-10.242,3.381a149.813,149.813,0,0,0-5.753-16.157,165.043,165.043,0,0,0-7.511-15.452c-.964-1.749-1.948-3.5-2.9-5.2-1.644-2.93-3.344-5.961-4.943-8.97v10.523l.225.437.01.019c.126.246.283.552.436.84.727,1.372,1.54,2.709,2.327,4,.822,1.35,1.672,2.747,2.406,4.159,1.441,2.759,3.1,6.451,4.927,10.973,1.2,2.989,2.127,5.458,2.174,7.766.005.1.235.322.458.542a2.361,2.361,0,0,1,.458.524,11.818,11.818,0,0,1,.513,3.638,4.052,4.052,0,0,0,1.029,2.06,5.329,5.329,0,0,1,.892,1.488,20.7,20.7,0,0,0,.6,6.761,30.224,30.224,0,0,1,.693,4.723,21.374,21.374,0,0,1-.223,3.25c-.107.9-.217,1.828-.235,2.709-.075,3.682-.107,7.227-.139,10.656v.064c-.023,2.469-.046,5.021-.085,7.645-.008.56-.012,1.131-.016,1.683v.019c-.027,3.736-.054,7.6-1.387,11.383l-1.5,1.186-.138.109c-4.335,3.427-8.818,6.972-13.425,9.978v54.481a79.6,79.6,0,0,1,4.91-12.319,23.792,23.792,0,0,1,3.3-4.864,8.712,8.712,0,0,1,3.918-2.652,34.364,34.364,0,0,0,.632,9.842c-1.9,10.472-7.194,19.081-12.313,27.405l-.443.72v25.5a32.261,32.261,0,0,0,3.507-8.188c.48-1.494.934-2.9,1.5-4.281a61.751,61.751,0,0,1,4.107-7.688c.592-.994,1.15-1.931,1.672-2.856.855-1.508,1.824-2.921,2.761-4.287a37.814,37.814,0,0,0,3.6-6,51.526,51.526,0,0,0,2.645-8.71,53.08,53.08,0,0,1,2.686-8.858c-.133-1.577-.314-3.162-.488-4.7a59.843,59.843,0,0,1-.448-14.164,22.36,22.36,0,0,1,2.906-2.693,19.727,19.727,0,0,0,2.664-2.466,37.275,37.275,0,0,1,4.047-3.879c2.144-1.871,4.361-3.805,5.435-5.773a12.09,12.09,0,0,0,.931-2.954,21.425,21.425,0,0,1,.687-2.509c3.206-8.759,7.58-17.912,11.143-23.317a37.724,37.724,0,0,0,5.764-3.4c.5-.335,1.012-.681,1.523-1.016,2.044-2.331,4.333-4.657,6.758-7.119,1.751-1.779,3.562-3.618,5.346-5.53.708-.757,1.455-1.586,2.245-2.465,3.867-4.3,8.679-9.642,12.656-10.355-.45,4.212-.99,7.736-3.464,11.519-.328,1.666-.62,3.341-.9,4.962-1.16,6.66-2.255,12.951-5.708,18.9a22.037,22.037,0,0,1-1.545,2.173,24.52,24.52,0,0,0-1.8,2.56c-.939,1.612-1.835,3.416-2.7,5.16a62.24,62.24,0,0,1-3.566,6.539,20.735,20.735,0,0,1-1.932,2.359,15.605,15.605,0,0,0-2.483,3.29,51.738,51.738,0,0,0-3.311,9.183c-1.118,3.854-2.274,7.84-4.627,11.383-.214,1.37-.359,2.732-.5,4.049-.4,3.787-.815,7.7-2.946,12.262.816,8.216-3.412,16.938-7.186,23.618-1.72,3.041-3.507,6.146-5.4,9.433l-.014.025c-4.671,8.118-9.5,16.512-13.485,24.238-4.888,4.363-9.2,10.45-13.379,16.335l-.1.148-.567.8a12.11,12.11,0,0,0-3.767,2.507,3.231,3.231,0,0,0-1.282,1.318c-.465.688-.946,1.4-1.7,1.4a1.707,1.707,0,0,1-.789-.22,3.224,3.224,0,0,1-.487-.856v2.021c.007.057.017.147.03.261a4.409,4.409,0,0,1-.03,1.651V654Zm13.2-175.313c-1.376,3.474-3.812,4.442-6.167,5.378-.616.245-1.253.5-1.861.792a15.292,15.292,0,0,1,8.028-6.17Zm84.856-82.33c-.9,1.662-1.833,3.38-2.786,5.006-.885,1.511-1.694,3.089-2.476,4.614l0,0a38.092,38.092,0,0,1-3.061,5.339,5.036,5.036,0,0,1-1.643,1.2c-.951.518-1.848,1.007-1.791,2.129a42.474,42.474,0,0,0-8.793,2.752c-1.259.5-2.558,1.011-3.859,1.46a22.415,22.415,0,0,0-2.992,2.737c-.491.506-1,1.028-1.507,1.505a14.537,14.537,0,0,0-1.137,1.256c-.949,1.134-1.845,2.2-3.224,2.2a2.824,2.824,0,0,1-.476-.042,20.5,20.5,0,0,0,1.592-5.37,22.514,22.514,0,0,1,1.4-4.983,17.5,17.5,0,0,1,2.01-3.082c.544-.724,1.105-1.473,1.578-2.237.593-.951,1.138-1.84,1.665-2.7,1.575-2.566,2.934-4.781,4.207-6.434a13.605,13.605,0,0,0,.966-1.564,9.832,9.832,0,0,1,1.07-1.669,14.755,14.755,0,0,1,2.373-1.937,11.573,11.573,0,0,0,2.947-2.645,37.784,37.784,0,0,0,2.758-5.1l.014-.028c.171-.357.333-.694.489-1.013,3.9-7.95,5.559-14.258,7.314-20.936.764-2.908,1.554-5.915,2.546-9.066a18.72,18.72,0,0,1-.445-6.831,25.747,25.747,0,0,0-.029-4.988,27.94,27.94,0,0,0-1.3-4.877c-.313-.944-.636-1.919-.894-2.889-1.591-6.029-2.1-12.014-2.634-18.35-.212-2.508-.432-5.1-.725-7.69,1-5.334,3.921-9.665,6.75-13.854,2.658-3.935,5.168-7.652,6.181-12.105-2.269,2.254-4.2,5.471-6.076,8.581-2.345,3.9-4.77,7.929-7.875,10.108.6-4.455,1.521-8.827,2.413-13.055V291.8c.894-4.236,1.818-8.616,2.374-12.939a75.048,75.048,0,0,0,.354-10.615q-.011-.776-.021-1.55c-.037-3.82-.2-7.8-.477-11.819a16.762,16.762,0,0,0,1.656-4.764,16.694,16.694,0,0,1,1.663-4.773c-.485-3.474-.812-7.062-.97-10.663.292.126.59.25.879.371l.031.013.244.1a5.644,5.644,0,0,0,1.606,1.7,6.177,6.177,0,0,1,.792.685,1.391,1.391,0,0,1,.045.671,1.747,1.747,0,0,0,.045.735c.1.152.349.209.592.264a1.13,1.13,0,0,1,.563.227,1.519,1.519,0,0,1,.05.682,2.007,2.007,0,0,0,.044.724c1.344,2.318,2.785,4.682,4.179,6.969,4.249,6.972,8.643,14.18,11.12,21.393a17.138,17.138,0,0,1,2.913,5.19,15.666,15.666,0,0,0,3.407,5.7,1.081,1.081,0,0,0,.758.272,3.915,3.915,0,0,0,1.45-.41l.117-.051.035-.015a3.193,3.193,0,0,1,1.055-.344.358.358,0,0,1,.3.126c.152.191.148.619-.012,1.307a146.028,146.028,0,0,1-2.4,19.877c-.33,1.973-.672,4.009-.984,6.028s-.592,4.068-.865,6.061c-.919,6.732-1.87,13.692-4.162,20.529.151,1.183.373,2.45.608,3.792v.006c.329,1.874.669,3.812.843,5.7a25.007,25.007,0,0,1,0,3.035,11.116,11.116,0,0,0,.113,3.17,8.552,8.552,0,0,1-.234,6.005,45.915,45.915,0,0,1-3.265,6.753c-.808,1.474-1.641,2.994-2.4,4.565-3.775,7.829-7.021,13.323-10.78,19.685-.978,1.656-1.99,3.368-3.065,5.214-.954,1.64-1.864,3.32-2.745,4.943l0,.008Zm-9.455-81.229c.107,1.071.219,2.142.327,3.179a131.044,131.044,0,0,1,1.032,17.907,31.147,31.147,0,0,1,2.613,12.163,54.088,54.088,0,0,1-1.6,13.884,98.981,98.981,0,0,1-12.382,28.609,8.136,8.136,0,0,0-2.87,2.115,5.823,5.823,0,0,1-1.141.977,4.9,4.9,0,0,0-1.106.748,2.6,2.6,0,0,1-1.507.788,1.3,1.3,0,0,1-.671-.2c2.432-5.731,4.372-11.341,6.249-16.765.98-2.834,1.994-5.764,3.068-8.684a9.544,9.544,0,0,0-.3-3.129,8.275,8.275,0,0,1-.161-3.9c.817-5.092,1.786-10.663,2.723-16.051l.005-.03c.855-4.916,1.663-9.56,2.369-13.892.168-1.028.409-2.114.642-3.165s.468-2.109.637-3.129c.216-1.291.307-2.606.395-3.878C-177.887,319.959-177.708,317.385-176.395,315.133Zm-2.772-95.522a8.339,8.339,0,0,1,2.83,3.071c.254.4.516.814.808,1.208a9.308,9.308,0,0,0-.169,3.353c.089,1.437.172,2.793-.532,3.188a48.3,48.3,0,0,0-1.469-5.413A48.248,48.248,0,0,1-179.167,219.611ZM-192.708,71a.6.6,0,0,1,.332.128,15.778,15.778,0,0,0,1.677,4.691,16.65,16.65,0,0,1,1.757,4.967,13.971,13.971,0,0,1-.2,3.372,25.437,25.437,0,0,0-.26,2.588c-.074,2.449-.129,4.921-.182,7.312-.17,7.71-.346,15.682-1.2,23.551a87.4,87.4,0,0,1-2.225,13.415l.188.855c1.849,8.392,3.76,17.07,4.088,26.251a35.749,35.749,0,0,1,2.613,5.885,35.561,35.561,0,0,0,2.627,5.908,129.319,129.319,0,0,0,2.7,24.389c.16.838.325,1.729.484,2.591a96.03,96.03,0,0,0,3.059,13.27,1.6,1.6,0,0,1-.046,1.02,2.124,2.124,0,0,0-.1.966,7.992,7.992,0,0,0,.52,1.491c.581,1.388,1.239,2.961-.166,4.128-3.658-4.98-7.092-9.42-12.084-13.325a127.521,127.521,0,0,0-7.2-10.748c-1.536-2.135-3.124-4.342-4.59-6.555l-.124-.81c-2.675-17.536-5.442-35.67-6.779-54.077,2.5-8.7,4.11-17.171,5.664-25.359,2.144-11.294,4.362-22.972,8.958-35.442C-193.06,71.205-192.928,71-192.708,71ZM-210.93,20.938a1.478,1.478,0,0,1,.747.254c.493,1.3.964,2.632,1.419,3.923,1.539,4.357,3.13,8.86,5.832,12.82a43.3,43.3,0,0,0,2.708,9.917c.3.83.6,1.687.9,2.552.277.8.6,1.653.937,2.551l0,.007c1.308,3.464,2.79,7.389,2.43,10.491A18.964,18.964,0,0,1-197.7,68.8a22.859,22.859,0,0,0-2.212,7.331c-1.685-1.4-2.271-3.423-2.837-5.378-.223-.769-.454-1.565-.747-2.293-.755-1.864-1.653-3.7-2.521-5.478l-.007-.015c-.348-.713-.709-1.45-1.054-2.178-3.455-3.259-6.727-6.671-9.891-9.971-2.807-2.928-5.708-5.954-8.729-8.863a7.1,7.1,0,0,0-.3-3.507,7.934,7.934,0,0,1-.393-2.937c5.369-3.4,9.885-8.457,14.811-14.236A.809.809,0,0,1-210.93,20.938Z" transform="translate(0 -0.005)" fill="#230738"/>
        </g>
      </g>
      <path id="Fill_15" data-name="Fill 15" d="M-382,401h0c3.4-1.365,6.777-3,10.044-4.588l.035-.017,1.617-.783c1.59-.76,3.216-1.462,4.788-2.14,2.364-1.02,4.805-2.074,7.081-3.312a8.98,8.98,0,0,0,1.725-1.35,11.326,11.326,0,0,1,1.536-1.253,20.833,20.833,0,0,1,3.9-1.755,17.574,17.574,0,0,0,3.713-1.7,19.422,19.422,0,0,0,2.963-2.694,17.457,17.457,0,0,1,5.5-4.312,44.371,44.371,0,0,1,5.622-7.9c.539-.654,1.1-1.33,1.639-2.007,1.2-1.48,2.442-2.76,3.885-4.241.846-.868,1.719-1.765,2.7-2.824a6.867,6.867,0,0,0,.8-1.1,4.931,4.931,0,0,1,.873-1.134,35.745,35.745,0,0,1,4.5-3.194c1.048-.67,2.129-1.361,3.183-2.118.657-.473,1.328-.975,1.977-1.461a46.376,46.376,0,0,1,5.707-3.852,69.614,69.614,0,0,1,7.509-3.291c1.786-.7,3.632-1.428,5.508-2.271.382-.171.785-.339,1.211-.518l.008,0a18.9,18.9,0,0,0,3.042-1.475,12.894,12.894,0,0,0,2.524-2.553c.479-.581.973-1.179,1.522-1.735,1.371-1.4,2.966-2.759,4.508-4.077,3.011-2.573,6.125-5.234,7.883-8.371a45.911,45.911,0,0,0,5.3-4.525,53.93,53.93,0,0,1,4.222-3.731,10.549,10.549,0,0,1,3.249-.414c.492,0,.983.016,1.5.032h.03c.5.015,1.06.033,1.63.033h.086a30.907,30.907,0,0,0,3.81-.442c.8-.123,1.636-.25,2.413-.344.6-.073,1.388-.227,2.22-.389a34.416,34.416,0,0,1,4.455-.671c.658-.036,1.335-.054,2.015-.054a62.58,62.58,0,0,1,9.488.884,11.246,11.246,0,0,1,4.454-1.016,8.524,8.524,0,0,1,1.056.065c14.742-6.223,29.289-9.867,46.6-13.424.97-.2,1.945-.409,2.888-.613a69.994,69.994,0,0,1,10.893-1.766l.067,0a2.838,2.838,0,0,1,.924.233l.041.015a3.173,3.173,0,0,0,1.048.248h.067a2.421,2.421,0,0,0,1.016-.314,2.618,2.618,0,0,1,1.022-.323c.22-.013.456-.02.721-.02.439,0,.879.017,1.346.036l.046,0c.464.018.945.038,1.427.038a6.4,6.4,0,0,0,4.279-1.22,3.124,3.124,0,0,0-2.449-.867c-.454,0-.91.039-1.35.077-.331.028-.643.055-.928.063-1.482.04-2.972.214-4.55.4-1.508.176-3.068.358-4.7.428-.358.009-.682.049-1.025.09a12.817,12.817,0,0,1-1.289.109h-.035a3.986,3.986,0,0,1-1.044-.251l-.014,0a3.853,3.853,0,0,0-.993-.246l-.057,0a14.484,14.484,0,0,0-2.594.582,18.627,18.627,0,0,1-2.2.539,22.253,22.253,0,0,1-2.291.2,20.929,20.929,0,0,0-2.346.212c-.882.146-1.809.386-2.705.618-.694.18-1.409.365-2.087.5-1.928.392-4.033.779-6.261,1.188-4.216.775-8.576,1.576-12.754,2.586-.611.146-1.252.292-1.872.434-1,.228-2.029.463-2.926.7-2.413.622-4.8,1.389-7.113,2.13a62.308,62.308,0,0,1-12.238,3.063,25.522,25.522,0,0,1-2.678.131c-2.025,0-4.068-.2-6.043-.388-1.767-.171-3.435-.332-5.1-.366a1.251,1.251,0,0,0-1-.449,4.522,4.522,0,0,0-1.258.265,4.527,4.527,0,0,1-1.26.265,1.257,1.257,0,0,1-.936-.374c3.717-1.893,7.209-3.509,10.585-5.072,3.885-1.8,7.9-3.658,12.43-6.007.89-.462,1.8-.982,2.756-1.534a47.584,47.584,0,0,1,5.033-2.633,40.626,40.626,0,0,1,8.441-2.137c2.545-.442,5.178-.694,7.723-.938a87.471,87.471,0,0,0,9.791-1.317,108.014,108.014,0,0,0,12.027-3.623l.048-.016,1.771-.6a119.015,119.015,0,0,0,12.307-5.491c.917-.448,1.955-.955,2.929-1.424,1.4-.675,2.766-1.422,4.087-2.144a48.7,48.7,0,0,1,6.622-3.209,22.464,22.464,0,0,1,5.489-1.051,21.985,21.985,0,0,0,4.377-.75,17.583,17.583,0,0,0,1.921-.811c.471-.22.958-.447,1.447-.648,6.319-2.618,14.471-8.614,20.054-12.9.757-.581,1.521-1.163,2.2-1.677,3.65-2.782,7.1-5.409,10.416-8.476,1.167-1.078,2.347-2.219,3.6-3.427,2.556-2.473,5.2-5.029,8.028-7.323a38.694,38.694,0,0,1,3.643-2.541,37.816,37.816,0,0,0,3.593-2.507,33.294,33.294,0,0,0,3.272-3.256l0,0c.4-.431.805-.876,1.21-1.3.44-.463.877-.975,1.3-1.469a15.757,15.757,0,0,1,3.182-3.1,23.59,23.59,0,0,1,5.587-2.175l.008,0c.613-.185,1.248-.376,1.852-.571a118.633,118.633,0,0,1,14.112-3.8,16.48,16.48,0,0,0,1.788-.507,14.729,14.729,0,0,1,1.85-.514c1.5-.275,3.134-.552,4.868-.844l.018,0c3.785-.638,8.076-1.361,12.092-2.289,1.212-.281,2.433-.653,3.614-1.012,1.2-.366,2.447-.745,3.672-1.024a18.334,18.334,0,0,1,2.235-.319,7.934,7.934,0,0,0,4.6-1.448,3.638,3.638,0,0,0-2.381-.818,11.343,11.343,0,0,0-3.682.9,18.18,18.18,0,0,1-2.032.65c-6.419,1.456-15.9,3.5-24.083,4.461,4.715-4.377,9.85-6,15.288-7.714.845-.267,1.719-.542,2.6-.831,4.3-1.413,8.651-2.586,13.252-3.828A202.421,202.421,0,0,0-5.089,191.8a2.136,2.136,0,0,0-1.525-.5,11.49,11.49,0,0,0-3.149.681c-.4.124-.769.241-1.108.33-2.946.787-5.962,1.7-9.155,2.664-2.559.774-5.2,1.574-7.893,2.33-5.915,1.669-12.056,3.58-17.474,5.266l-.005,0c-.694.214-1.43.394-2.142.568a20.186,20.186,0,0,0-3.535,1.09,41.546,41.546,0,0,0-5.937,3.631,43.873,43.873,0,0,1-6,3.684,50.245,50.245,0,0,1-8.789,2.837c-1.669.432-3.393.878-5.057,1.4-.339.111-.658.243-1,.384a11.638,11.638,0,0,1-1.483.537c-.236.065-.439.108-.635.15a4.234,4.234,0,0,0-1.4.5,13.9,13.9,0,0,0-3.662,3.524,21.408,21.408,0,0,1-2.321,2.561,34.329,34.329,0,0,1-4.435,3.151c-1.073.682-2.18,1.387-3.243,2.167-2,1.454-3.947,3.071-5.832,4.634l-.018.015-.674.559c-2.363,1.95-4.452,3.876-6.473,5.739a106.008,106.008,0,0,1-11.062,9.243c-.557.4-1.267.809-1.954,1.209l-.005,0c-.54.314-1.1.639-1.579.954a1.1,1.1,0,0,0-.334.471,1.366,1.366,0,0,1-.72.784,47.685,47.685,0,0,0-6.685,4.038,72.114,72.114,0,0,1-6.574,4.087c-6.175,3.142-11.849,4.132-18.468,4.651-22.608,12.172-38.948,17.6-52.982,17.6-.469,0-.941-.006-1.4-.019a28.885,28.885,0,0,1,3.415-6.454,26.84,26.84,0,0,0,3.546-6.9c5.7-5.1,11.239-10.864,16.592-16.441l0,0c2.19-2.282,4.455-4.641,6.7-6.921a52.475,52.475,0,0,1,7.459-5.723c2.075-1.418,4.221-2.885,6.3-4.53a5.741,5.741,0,0,0,1.063-1.247,6.748,6.748,0,0,1,1.05-1.258c.843-.726,1.7-1.375,2.535-2a34.814,34.814,0,0,0,3.547-2.937c1.672-1.644,3.457-3.569,5.348-5.608l0-.006h0c1.356-1.462,2.758-2.974,4.222-4.5,4.194-4.351,7.587-8.531,10.981-12.786,3.638-4.574,11.789-8.658,18.339-11.939l.827-.414c.837-.419,1.675-.858,2.486-1.282a45.583,45.583,0,0,1,6.452-2.985,54.093,54.093,0,0,1,7.357-1.664,59.453,59.453,0,0,0,6.6-1.433c1.924-.574,3.874-1.3,5.759-2.01l.045-.017,1.2-.448c1.193-.445,2.452-.881,3.67-1.3,1.106-.383,2.246-.777,3.335-1.178,5.759-2.121,11.475-4.814,17-7.418,3.8-1.791,7.734-3.643,11.693-5.319a58.555,58.555,0,0,1,5.644-1.921c1.039-.315,2.021-.613,2.968-.932.968-.325,1.924-.673,2.849-1.01a49.293,49.293,0,0,1,5.748-1.839,76.879,76.879,0,0,1,12.866-1.486c1.628-.094,3.31-.191,4.934-.331,1.639-.141,3.264-.409,4.836-.667,1.356-.223,2.758-.454,4.142-.6.75-.078,1.556-.09,2.335-.1,2.1-.031,4.28-.063,5.941-1.328a28.891,28.891,0,0,0-3.451-.187c-1.951,0-3.945.15-5.637.3-3.213.28-6.54.719-9.757,1.143a132.175,132.175,0,0,1-17.017,1.5h-.275a54.612,54.612,0,0,1-9.083,3.287c-1.473.439-3,.892-4.487,1.4a114.464,114.464,0,0,0-11.978,5.234c-4.116,1.976-8.371,4.019-12.477,5.511-3.38,1.228-6.554,2.356-9.48,3.391a171.292,171.292,0,0,1-18.649,5.362c-.787.183-1.6.412-2.38.634a21.637,21.637,0,0,1-5.767,1.09c-.188,0-.377-.005-.56-.016-2.232,1.113-4.507,2.176-6.708,3.2l0,0c-6.744,3.152-13.717,6.41-20.177,11.452-1.009-.25-.78-1.316-.538-2.443a4.086,4.086,0,0,0,.111-2.152,83.786,83.786,0,0,0,.567-11.85,34.878,34.878,0,0,0-1.816-9.785c-.221-.739-.51-1.511-.789-2.258a21.489,21.489,0,0,1-1.168-3.816,20.989,20.989,0,0,1,.269-6.073c.129-.92.262-1.87.333-2.775a4.936,4.936,0,0,0-.112-1.3,4.075,4.075,0,0,1-.1-1,66.891,66.891,0,0,1,2.28-11.087c.678-2.576,1.379-5.24,1.845-7.789.032-.173.084-.377.14-.593.252-.98.6-2.322-.46-2.853-1.767,1.647-2.067,3.892-2.356,6.063-.107.8-.208,1.556-.379,2.282-.408,1.692-.915,3.378-1.405,5.009-.3,1-.613,2.038-.9,3.067a128.582,128.582,0,0,0-2.178,17.088c.414,1.419.863,2.868,1.3,4.27l0,.007h0c.712,2.3,1.449,4.679,2.053,6.991.841,12.923-.467,22.318-4.241,30.463-2.772,2.569-5.359,5.235-7.86,7.814-5.161,5.321-10.5,10.823-17.754,15.763a.443.443,0,0,1-.27.143c-.213,0-.28-.385-.359-.831-.014-.083-.029-.168-.046-.253-.108-.563-.272-1.084-.74-1.084a1,1,0,0,0-.4.1,1.564,1.564,0,0,0-.82-.2,5.472,5.472,0,0,0-.988.126,5.486,5.486,0,0,1-.989.127,2.089,2.089,0,0,1-.223-.011,54.337,54.337,0,0,1,1.4-12.937,73.2,73.2,0,0,0,1.424-10,5.291,5.291,0,0,0-.1-1.078,6.244,6.244,0,0,1-.111-1.217c.024-.555.073-1.114.126-1.705.07-.793.15-1.691.176-2.717.016-.579.07-1.205.126-1.868.064-.752.136-1.6.17-2.559.094-2.5-.052-6.048-.193-9.475l-.028-.683a28.507,28.507,0,0,1,4.276-6.866,52.989,52.989,0,0,1,4.651-11.35c.7-1.4,1.424-2.838,2.094-4.289,2.325-5.034,4.751-10.413,6.745-15.645a17.219,17.219,0,0,0,2.935-4.345,19.417,19.417,0,0,1,2.4-3.766c.016-6.787,3.024-12.989,5.933-18.986A81.571,81.571,0,0,0-139.4,112.37a8.759,8.759,0,0,0,2.423-2.526,17.044,17.044,0,0,1,1.18-1.5,19.851,19.851,0,0,1,1.838-1.692,18.835,18.835,0,0,0,2.027-1.893,108.329,108.329,0,0,0,7.081-9.316c1.458-2.066,2.966-4.2,4.577-6.3,1.342-1.768,2.9-3.814,4.376-5.716a5.693,5.693,0,0,1,1.022-.923,3.572,3.572,0,0,0,.916-.87,25.241,25.241,0,0,0,2.206-7.453,28.427,28.427,0,0,1,2.054-7.27,13.566,13.566,0,0,0,1.308-1.136,9.193,9.193,0,0,1,2.842-2.016,55.086,55.086,0,0,1,7.21-8.872c1.094-1.173,2.226-2.387,3.314-3.636,6.1-7.006,13.11-14.764,22.046-24.413.545-.589,1.106-1.186,1.648-1.764l.012-.012c3.073-3.273,6.251-6.657,8.427-10.462a50.484,50.484,0,0,1,6.6-3.643A31.3,31.3,0,0,0-49.8,7.19a1.3,1.3,0,0,0-1.006-.532,3.493,3.493,0,0,0-1.922,1.031,3.727,3.727,0,0,1-.711.516c-4.839,2.133-11.341,5.6-16.089,8.127l-1.084.577c-.782.42-1.583.891-2.357,1.347a30.58,30.58,0,0,1-4.99,2.552,10.812,10.812,0,0,1-3.024.47,15.129,15.129,0,0,0-2.039.212c-.965.191-1.9.471-2.808.742-.84.251-1.633.489-2.426.652-1.481.305-2.923.586-4.317.857h-.006c-2.059.4-4,.78-5.991,1.218h-.042a.383.383,0,0,1-.343-.161c-.317-.478.28-1.9.637-2.744.058-.138.113-.269.154-.372a12.283,12.283,0,0,1,.359-4.4c.095-.473.192-.958.273-1.444a7.04,7.04,0,0,1,.488-1.436c.543-1.306,1.105-2.657-.457-3.424-1.73,1.518-1.952,3.415-2.167,5.251a15.894,15.894,0,0,1-.4,2.382,20.766,20.766,0,0,0-.413,2.329,9.534,9.534,0,0,1-1.726,5.041c-4.791,1.913-9.287,2.269-13.635,2.613-.948.075-1.928.153-2.9.245a4.666,4.666,0,0,1,.957-3.462,5.016,5.016,0,0,0,1.01-3.19,35.471,35.471,0,0,0,3.558-7.031,5.248,5.248,0,0,0,.264-1.1,4.281,4.281,0,0,1,.254-1.028,4.748,4.748,0,0,1,.826-1.126,5.615,5.615,0,0,0,.83-1.1,1.789,1.789,0,0,0,.142-.629,2.1,2.1,0,0,1,.194-.79c.075-.147.187-.341.317-.566.691-1.194,1.977-3.416.863-4.4-.271-.407-.554-.613-.841-.613-.68,0-1.247,1.142-1.585,1.824-.091.184-.163.329-.219.417a17.225,17.225,0,0,0-1.15,2.415c-.151.363-.292.7-.415.965-.761,1.658-1.417,3.32-2,4.787l0,.012c-.237.6-.461,1.168-.674,1.689-.672,1.565-1.426,3.141-2.156,4.665a68.568,68.568,0,0,0-3.64,8.579c-1.119.037-2.281.173-3.4.3a34.8,34.8,0,0,1-3.986.315,13.191,13.191,0,0,1-1.422-.072c-7.449,2.946-14.7,5.663-21.565,6.557a15.58,15.58,0,0,1-3.884,1.8,19.5,19.5,0,0,0-3.729,1.648,21.164,21.164,0,0,0-3.561,3.091,26.916,26.916,0,0,1-3.133,2.829c-5.134,3.716-11.2,7.236-17.068,10.64l-.005,0c-2.246,1.3-4.57,2.651-6.8,3.987-1.124.675-2.4,1.309-3.634,1.922a43.976,43.976,0,0,0-4.144,2.24,59.126,59.126,0,0,0-6.989,5.549,50.077,50.077,0,0,1-6.506,5.141c-1.919-1.994-2.489-4.5-3.092-7.16a22.834,22.834,0,0,0-1.8-5.592,74.429,74.429,0,0,0-1.185-13.128c-.223-1.487-.453-3.023-.647-4.528-.213-1.664-.395-3.356-.57-4.993a94.88,94.88,0,0,0-1.974-12.827.715.715,0,0,0-.529.272,2.1,2.1,0,0,0-.048,1.492,3.212,3.212,0,0,1,.06.356c.047.516.08,1.015.111,1.5.062.95.126,1.93.305,3.1a4.968,4.968,0,0,0,.489,1.3,4.211,4.211,0,0,1,.439,1.164c.2,1.529.32,3.14.431,4.7.106,1.482.216,3.014.4,4.484.407,3.217.647,6.288.9,9.54.107,1.37.218,2.786.343,4.237a51.865,51.865,0,0,0,2.634,11.1,12.044,12.044,0,0,1,.4,1.924c.234,1.564.455,3.041,2,3.878a115.072,115.072,0,0,1-13.649,11.394l-.008.006c-1.358,1.022-2.763,2.078-4.153,3.149-.693.534-1.4,1.088-2.157,1.673l-.005,0c-4.991,3.883-11.2,8.717-17.787,12.369l-1.709.947c-5.155,2.859-10.486,5.814-15.635,8.463a16.7,16.7,0,0,1-2.478.942,16.062,16.062,0,0,0-2.926,1.159,41.173,41.173,0,0,0-5.339,3.908c-1.111.905-2.26,1.84-3.4,2.659-1.173.84-2.416,1.623-3.619,2.38a37.428,37.428,0,0,0-4.947,3.475,43.888,43.888,0,0,0-4.046,4.287,13.685,13.685,0,0,0-1.225,1.849,11.386,11.386,0,0,1-1.66,2.344,15.246,15.246,0,0,1-2.42,1.843,19.344,19.344,0,0,0-2.162,1.583c-.706.625-1.413,1.289-2.1,1.932-.578.544-1.177,1.106-1.778,1.649-1.351,1.219-2.727,2.494-3.874,3.59-.859.817-1.86,1.8-2.919,2.842-2.45,2.409-5.226,5.138-7.816,7.37-.808.693-1.683,1.314-2.529,1.914a15.867,15.867,0,0,0-4.607,4.275,39.269,39.269,0,0,1-2.349-9.871c-.24-1.666-.488-3.389-.873-5.117a115.873,115.873,0,0,1-6-12.171c-1.473-3.322-3-6.756-4.9-10.23.543-3.3,2.495-6.33,4.382-9.26.45-.7.913-1.417,1.349-2.128.084-1.677.312-3.346.533-4.959a48.217,48.217,0,0,0,.566-6.015,3.871,3.871,0,0,0-.293-1.369c-.249-.737-.506-1.5-.013-2.072a5.8,5.8,0,0,1,3.829-1.468,12.543,12.543,0,0,1,1.88.187,12.558,12.558,0,0,0,1.878.187,5.443,5.443,0,0,0,1.39-.171c5.352-5.48,10.883-11.146,13.59-17.412a11.44,11.44,0,0,0,1.469-3.459c.142-.468.276-.91.428-1.337.24-.692.461-1.414.674-2.112.245-.8.5-1.635.782-2.414.294-.812.659-1.626,1.011-2.413,1-2.226,2.026-4.525,1.619-7.083-.047,0-.087,0-.123,0-1.027,0-1.319,1.063-1.628,2.189a5.524,5.524,0,0,1-.682,1.74c-.529,1.756-1.193,3.577-1.96,5.686l-.032.087q-.2.556-.417,1.148c-.268.739-.5,1.529-.74,2.365a24.264,24.264,0,0,1-1.664,4.566,54.684,54.684,0,0,1-5.605,7.673c-.327.386-.668.811-1.03,1.262-.7.867-1.413,1.76-2.122,2.493l-.171.175a25.37,25.37,0,0,1-3.7,3.4,5.7,5.7,0,0,1-2.649.576,17.559,17.559,0,0,1-1.845-.129l-.018,0a17.408,17.408,0,0,0-1.8-.127,5.011,5.011,0,0,0-4,1.759,19.24,19.24,0,0,1-2.328-6.856,28.97,28.97,0,0,0-1.3-4.855,19.221,19.221,0,0,0-1.633-2.982,13.853,13.853,0,0,1-1.744-3.426,5.952,5.952,0,0,1-.123-2.206,3.74,3.74,0,0,0-.564-2.823,35.283,35.283,0,0,1,4.023-2.431,25.827,25.827,0,0,0,3.932-2.443,7.594,7.594,0,0,0,1.334-1.518c.236-.322.479-.655.764-.981,3.024-3.465,6.259-6.634,9.683-9.989,1.72-1.685,3.5-3.428,5.272-5.233a11.925,11.925,0,0,1,2.769-.314,25.26,25.26,0,0,1,5.285.74,27.2,27.2,0,0,0,4.874.734,32.407,32.407,0,0,1,5.8-3.2,25.683,25.683,0,0,0,5.529-3.129,22.246,22.246,0,0,0,3.93-4.815c.488-.722.991-1.464,1.5-2.151.833-1.118,1.735-2.239,2.608-3.324,1.021-1.269,1.985-2.467,2.832-3.642a12.052,12.052,0,0,0,.975-1.787,12.356,12.356,0,0,1,1.017-1.858,4.716,4.716,0,0,1,1.006-.925,3.955,3.955,0,0,0,.936-.872c.756-1.135,2.192-3.252,3.5-5.173.119-.175.286-.374.463-.584.657-.783,1.473-1.757,1.088-2.791-1.17.18-1.592,1.169-2,2.126a6.4,6.4,0,0,1-.71,1.359,11.4,11.4,0,0,1-1.434,1.447,11.061,11.061,0,0,0-1.557,1.6,10.775,10.775,0,0,0-.986,1.8,11.051,11.051,0,0,1-1.016,1.848,3.99,3.99,0,0,1-.742.768,4.425,4.425,0,0,0-.748.761,4.166,4.166,0,0,0-.459.978,3.428,3.428,0,0,1-.319.71,40.514,40.514,0,0,1-2.99,3.447c-.921.988-1.874,2.01-2.726,3.071A30.906,30.906,0,0,0-293.66,41.9a15.241,15.241,0,0,1-3.132,3.982,25.754,25.754,0,0,1-5.933,3.1,43.556,43.556,0,0,0-4.782,2.246,3.476,3.476,0,0,1-1.293.25,6.666,6.666,0,0,1-2.4-.607c-.336-.131-.684-.267-1.03-.374a7.824,7.824,0,0,1-1.3.111,7.522,7.522,0,0,1-3.44-.848c2.164-3.563,6.132-6.765,10.333-10.154,1.579-1.274,3.212-2.591,4.723-3.917.328-.288.729-.581,1.154-.891,1.443-1.053,3.078-2.246,2.616-3.84-2.806,1.037-5.365,3.343-7.84,5.574a46.516,46.516,0,0,1-5.037,4.135c-.717-1,.291-1.742,1.1-2.338a4.661,4.661,0,0,0,.726-.6,54.012,54.012,0,0,1,8.631-7.708c1.043-.78,2.159-1.536,3.239-2.267l0,0c1.192-.807,2.424-1.642,3.551-2.505q.358-.271.721-.541l.014-.011c1.832-1.367,3.727-2.781,4.639-4.557a2.046,2.046,0,0,0-1.5-.678c-1.119,0-2.3.916-3.249,1.652-.337.261-.655.508-.936.689a18.38,18.38,0,0,0-2.6,2.289,19.668,19.668,0,0,1-1.708,1.575c-1.264.949-2.6,1.868-3.892,2.757a62.878,62.878,0,0,0-6.174,4.617c-6.193,5.514-11.067,12.505-13.685,16.261a3.191,3.191,0,0,1-2,.694,7.6,7.6,0,0,1-.956-.08,7.656,7.656,0,0,0-.959-.08,3.09,3.09,0,0,0-1.592.422,71.982,71.982,0,0,1-9.669,4.648,60.451,60.451,0,0,0-12.643,6.6c-1.018-.236-.908-1.067-.792-1.948a4.1,4.1,0,0,0,.044-1.224,2.577,2.577,0,0,0-.048-1.694c-.174-.718-.355-1.459.178-2.022a3.489,3.489,0,0,0,1.9-.864,3.474,3.474,0,0,1,1.906-.863,4.1,4.1,0,0,0,2.68,1.589,2.476,2.476,0,0,0,1.168-.314,2.4,2.4,0,0,0-1.816-1.466,2.4,2.4,0,0,1-1.7-1.228,69.325,69.325,0,0,1,5.566-5.121c3.808-3.26,7.745-6.631,9.117-10.534a2.828,2.828,0,0,0-.749-.109c-1.478,0-2.249,1.4-3.066,2.88a10.7,10.7,0,0,1-1.56,2.333,31.054,31.054,0,0,1-4.161,3.3c-1.1.782-2.247,1.59-3.251,2.447-.944.813-1.778,1.636-2.584,2.433a27.316,27.316,0,0,1-3.663,3.218c-1.038-1.276-1.113-3.1-1.185-4.863-.014-.345-.029-.7-.05-1.038-.061-1.017-.033-2.089-.006-3.125.015-.578.031-1.171.031-1.745a2.183,2.183,0,0,0-.174-.73,2.664,2.664,0,0,1-.2-.853,7.079,7.079,0,0,1,.2-1.569,6.5,6.5,0,0,0,.2-1.708c-.061-1.142-.226-2.306-.4-3.538A29.017,29.017,0,0,1-352.8,27.5c.323-1.95.842-3.9,1.343-5.792l0-.014c.112-.424.229-.861.34-1.29.566-2.138,1.2-4.423,1.967-6.652a22.262,22.262,0,0,0,1.512-4.148c.265-.909.54-1.848.892-2.784a11.952,11.952,0,0,1,.721-1.463c.888-1.623,1.894-3.462.534-5.358-1.283.3-1.594,1.252-1.923,2.26a8.614,8.614,0,0,1-.354.956c-.963,2.06-1.8,4.39-2.7,6.857-.41,1.134-.833,2.306-1.268,3.445-.762,1.975-1.575,4.305-2.414,6.926-.208.663-.387,1.351-.559,2.016a16.718,16.718,0,0,1-1.841,4.9,110.875,110.875,0,0,1,.3,13.639,109.344,109.344,0,0,0,.324,13.847,125.7,125.7,0,0,0-15.724,9.8c-3.437,2.4-6.683,4.67-10.356,6.785V77.88c1.05-1.485,1.884-2.7,2.624-3.814a64.96,64.96,0,0,0,9.517-7.04c4.07-3.422,7.914-6.654,13.091-8.624a.821.821,0,0,1,.239-.038c.309,0,.561.215.75.64a5.427,5.427,0,0,0-.44,2.435,8.926,8.926,0,0,1-.132,1.554c.265.538.536,1.079.8,1.6,1.894,3.784,3.852,7.7,4.09,11.151a16.385,16.385,0,0,0-2.049,2.886,12.675,12.675,0,0,1-3.392,4.079c-.234,1.492-.511,3-.78,4.451-1.011,5.485-2.056,11.156-.982,17.223-.99,1.572-1.86,3.2-2.7,4.78-2.36,4.425-4.8,9-10.171,12.8a7.027,7.027,0,0,1-.717,2.059,5.913,5.913,0,0,0-.744,2.467c-.312.128-.622.246-.922.359a6.15,6.15,0,0,0-3.495,2.355c.977,4.481.431,9.043-.008,12.709l0,.014c-.27,2.255-.479,4.408-.68,6.489l0,.049q-.093.96-.184,1.877c-.1,1.019-.2,2.036-.29,3.019v.006a87.555,87.555,0,0,1-1.325,10.075,3.8,3.8,0,0,1,.056,2.672,9.829,9.829,0,0,0-.182,1.042c-.057.581-.055,1.19-.053,1.779a15.806,15.806,0,0,1-.072,1.936A67.343,67.343,0,0,1-382,179.291V340.254c4.219-3.162,12.068-9.051,17.441-9.051a5.945,5.945,0,0,1,1.985.317,28.034,28.034,0,0,0-4.286,6.856A52.108,52.108,0,0,1-382,348.091v9.41c1.032-.437,2.081-.817,3.1-1.184a31.108,31.108,0,0,0,5.3-2.292,42.024,42.024,0,0,0,5.959-4.551,43.481,43.481,0,0,1,6.041-4.62c.66-1.109,1.293-2.245,1.9-3.344a48.591,48.591,0,0,1,6.48-9.661,18.281,18.281,0,0,1,3.284-.422,16.551,16.551,0,0,0,2.945-.37,30.97,30.97,0,0,1,4.59-.655,20.658,20.658,0,0,0,6.426-1.252,10.1,10.1,0,0,0,2.036-1.523,17.579,17.579,0,0,1,1.672-1.349A103.9,103.9,0,0,1-313.6,316.045a31.079,31.079,0,0,0,5.558.486c.487.013.99.027,1.488.047,2.486-.58,5.139-1.037,7.947-1.522h0c2.039-.352,4.147-.715,6.27-1.142.844-.167,1.749-.365,2.708-.574a50.35,50.35,0,0,1,9.841-1.5,8.541,8.541,0,0,1,3.64.641c-2.328,2.6-4.384,4.69-7.843,6.015-1.028.962-2.037,1.951-3.013,2.907l0,0c-3.957,3.878-7.7,7.541-12.856,9.845a17.549,17.549,0,0,1-2.1.721,19.963,19.963,0,0,0-2.422.838c-1.378.62-2.819,1.381-4.212,2.117a51.872,51.872,0,0,1-5.614,2.693,16.719,16.719,0,0,1-2.452.662,12.83,12.83,0,0,0-3.224,1,42.306,42.306,0,0,0-6.626,4.54,32.936,32.936,0,0,1-8.575,5.383c-.8.814-1.554,1.656-2.281,2.47a29.075,29.075,0,0,1-7.842,6.766c-3.377,5.864-10.4,9.66-16.14,12.313-2.56,1.179-5.191,2.369-7.977,3.63-4.182,1.892-8.5,3.846-12.668,5.806V401Zm29.147-87.457a14.189,14.189,0,0,1,3.859.564,6.6,6.6,0,0,1-3.68,1.137,12.924,12.924,0,0,1-3.076-.492c-.527-.129-1.071-.262-1.614-.356A12.463,12.463,0,0,1-352.853,313.544Zm85.189-7.9a1.417,1.417,0,0,0-1.335.638,35.247,35.247,0,0,0-7.254-2.357c-1.089-.268-2.211-.544-3.3-.864h-.1a19.126,19.126,0,0,0-3.284.4c-.556.1-1.13.2-1.686.28a12.111,12.111,0,0,0-1.367.291,8.029,8.029,0,0,1-1.885.325,2.228,2.228,0,0,1-1.651-.646A16.851,16.851,0,0,0-285.9,300.9a18.436,18.436,0,0,1,3.343-2.665,14.722,14.722,0,0,1,2.849-1.1c.7-.222,1.433-.451,2.109-.729.822-.339,1.6-.664,2.345-.979a63.966,63.966,0,0,1,5.991-2.312,11.307,11.307,0,0,0,1.41-.588,8.2,8.2,0,0,1,1.511-.6,10.647,10.647,0,0,1,2.06-.157l.441,0h.013l.474,0a8.578,8.578,0,0,0,2.8-.361,31.232,31.232,0,0,0,4.321-2.1c.281-.154.552-.3.808-.44a83.843,83.843,0,0,0,14.97-10.48c1.9-1.57,3.869-3.194,6.037-4.815a15.158,15.158,0,0,1,2.956-4.752,20.652,20.652,0,0,0,2.374-3.36,22.369,22.369,0,0,0,1.441-3.83c.244-.79.5-1.606.792-2.384a86.238,86.238,0,0,1,7.02-13.535c1.048-1.761,2.13-3.579,3.162-5.426,3.223-3.083,7.272-4.577,11.188-6.021,3.677-1.356,7.149-2.637,9.965-5.122a37.358,37.358,0,0,0-8.222,2.826c-3.415,1.465-6.946,2.981-10.063,2.981h-.093c2.52-2.663,5.214-5.12,7.819-7.5,2.65-2.418,5.39-4.917,7.848-7.556a61.821,61.821,0,0,0,5.316-6.894q.367-.525.732-1.047c1.841-2.63,3.631-5.359,5.319-8.112a13.724,13.724,0,0,0,3.413-2.393,13.733,13.733,0,0,1,3.388-2.381c1.34-2.554,2.835-5.1,4.446-7.569.115.177.225.354.332.525.073.117.146.234.221.352a4.566,4.566,0,0,0,.266,1.9,5.05,5.05,0,0,1,.206.833c.015.093-.134.28-.292.478a1.374,1.374,0,0,0-.316.5c-.005.148.137.3.275.455a.93.93,0,0,1,.276.422c.008.085-.138.274-.293.474a1.6,1.6,0,0,0-.319.507c-.2,2.169-.353,4.413-.5,6.584v.009c-.462,6.688-.941,13.6-2.719,19.613a13.9,13.9,0,0,1-.515,4.836,12.615,12.615,0,0,0-.418,5.427c.151.668,1,.848,1.69.992.507.107.944.2,1.009.449.054.206-.145.5-.626.918a118.46,118.46,0,0,1-11.077,12.063l-.008.007c-1.18,1.172-2.4,2.384-3.589,3.594-1.174,1.192-2.357,2.439-3.5,3.646a90.385,90.385,0,0,1-12.6,11.671c-.458.853-.908,1.79-1.384,2.783-.682,1.421-1.387,2.889-2.179,4.242a20.517,20.517,0,0,1-1.437,2.007,8.96,8.96,0,0,0-1.444,2.191c-.835,3.184-4.374,4.875-8.471,6.833-1.251.6-2.541,1.215-3.8,1.9-6.274,3.4-11.074,5.507-16.632,7.946l-.008,0c-1.475.647-3,1.316-4.618,2.039-1.4.628-2.792,1.3-4.137,1.953-1.428.691-2.9,1.406-4.354,2.046-1.335.592-2.645,1.263-3.913,1.913a31.9,31.9,0,0,1-4.588,2.09,2.555,2.555,0,0,1-.718.091,8.015,8.015,0,0,1-.946-.076l-.015,0A7.575,7.575,0,0,0-267.664,305.647Zm-92.446-3.5h0a8.111,8.111,0,0,1-3.581,1.261,9.679,9.679,0,0,0-2.541.676,14.2,14.2,0,0,1-.44-4.973c.1-2.947.186-5.73-3.128-8.594a103.542,103.542,0,0,1,6.949-12.451,116.842,116.842,0,0,0,6.125-10.7c.447-.932.854-1.927,1.248-2.888s.81-1.979,1.255-2.9a13.239,13.239,0,0,1,.969-1.558,13.478,13.478,0,0,0,.868-1.375,8.509,8.509,0,0,0,.528-1.5,7.464,7.464,0,0,1,.591-1.61c.534-.984,1.177-1.951,1.8-2.886.639-.96,1.3-1.95,1.864-2.989.917-1.7,1.764-3.51,2.583-5.263l.007-.015.361-.771a116.03,116.03,0,0,1,8.615-12.948l.005-.007c.614-.84,1.25-1.709,1.869-2.565-.083-.875-.161-1.759-.237-2.614v-.013c-.09-1.018-.184-2.071-.284-3.1,1.85-7.266,3.2-14.78,4.507-22.046,1.192-6.632,2.425-13.49,4.034-20.143a19.548,19.548,0,0,0,3.993-3.362,20.67,20.67,0,0,1,3.585-3.1,44.753,44.753,0,0,1,8.879-3.778c1.916-.665,3.9-1.353,5.74-2.147,1.775-.763,3.656-1.791,5.474-2.785,2.8-1.532,5.447-2.978,7.278-3.214a21.574,21.574,0,0,0-.868,8.41c-1.907,5.115-3.511,10.394-5.062,15.5-1.477,4.861-3,9.886-4.79,14.764a11.143,11.143,0,0,1,0,4.648,12.678,12.678,0,0,0-.156,3.926,188.827,188.827,0,0,0-6.107,30.4c-.165,1.266-.253,2.549-.339,3.79-.089,1.29-.181,2.622-.358,3.913-.351,2.512-1,5.762-1.922,9.66A19.271,19.271,0,0,1-313.046,263a1.487,1.487,0,0,0,.049.573,1.876,1.876,0,0,1,.057.572,9.5,9.5,0,0,1-1.353,2.627l-.032.047a3.305,3.305,0,0,0-.3,1.877,4.316,4.316,0,0,1-.109,1.395,16.885,16.885,0,0,0-2.833,4.812,24.87,24.87,0,0,1-1.784,3.479,17.524,17.524,0,0,1-1.668,2.009,22.382,22.382,0,0,0-1.484,1.735c-1.808,2.413-3.522,4.758-5.18,7.027q-1.81,2.477-3.753,5.112c-.27.365-.539.735-.8,1.093a27.9,27.9,0,0,1-6.4,6.948l-1.439.07c-3.459.169-7.035.344-10.513.344a69.41,69.41,0,0,1-9.521-.579ZM-206.525,205.6h0c-1.474.737-1.587,2.087-1.7,3.392a7.616,7.616,0,0,1-.2,1.409c-.3,1.073-.637,2.124-.962,3.141l0,.007c-.217.679-.442,1.381-.656,2.09a17.257,17.257,0,0,0-4.82,5.245c-.31.462-.6.9-.886,1.278a86.864,86.864,0,0,1-6.93,8.49c-.936.978-2,1.913-3.026,2.816-.94.826-1.911,1.68-2.785,2.567-2.6,2.637-5.282,5.326-7.873,7.927-6.338,6.361-12.891,12.938-19.031,19.463-4.274,1.726-7.916,4.455-11.439,7.094-1.506,1.128-3.061,2.294-4.641,3.362a45.557,45.557,0,0,1-5.229,2.9,44.052,44.052,0,0,0-4.762,2.619,13.98,13.98,0,0,0-2.317,2.064c-.492.507-1,1.031-1.562,1.511-1.921,1.645-3.75,3.129-5.518,4.564-2.724,2.211-5.3,4.3-7.7,6.575-2.417.648-4.857,1.244-7.216,1.82-3.815.932-7.759,1.9-11.7,3.1-1.1.439-2.245.986-3.351,1.515-2.584,1.236-5.255,2.513-7.584,2.513a4.98,4.98,0,0,1-3.006-.927c2.026-2.4,3.79-4.874,5.5-7.27.912-1.28,1.853-2.6,2.818-3.888.748-1,1.481-2.023,2.189-3.015,3-4.2,6.106-8.55,11.161-11.833a37.465,37.465,0,0,1,5.92,1.748,25.959,25.959,0,0,0,8.659,2c.383,0,.767-.016,1.143-.048a26.583,26.583,0,0,1,6.087-3.152,33.942,33.942,0,0,0,4.191-1.932c.524-.892,1.049-1.881,1.6-2.927,2.962-5.583,6.645-12.528,14.666-13.111.734-1.262,2.576-2.287,4.357-3.279a27.084,27.084,0,0,0,2.884-1.76,4.412,4.412,0,0,1,.695-.415c.458-.239.931-.486.967-.83.022-.215-.124-.449-.448-.716-3.354,2.058-6.532,4.006-9.716,5.954a16.484,16.484,0,0,0-8.777,3.56,10.267,10.267,0,0,0-2.3,3.451,16.192,16.192,0,0,1-1.368,2.435,12.427,12.427,0,0,1-1.37,1.5,11.64,11.64,0,0,0-1.174,1.27c-.426.559-.78,1.082-1.122,1.587-.377.557-.732,1.081-1.157,1.62a30.875,30.875,0,0,0-9.219,3.834,31.061,31.061,0,0,1-6.859-2.478c-2.725-1.234-5.543-2.509-8.527-2.63a125.472,125.472,0,0,0,6.148-27.4c.19-1.659.369-3.349.542-4.984.816-7.7,1.66-15.669,3.9-23.178.139-2.506.445-5.015.74-7.44a74.406,74.406,0,0,0,.795-11.67,113.432,113.432,0,0,0,3.894-11.541c.88-2.955,1.788-6.008,2.881-8.962a62.979,62.979,0,0,1,4.249-10c.865-1.77,1.682-3.442,2.326-4.934a19.181,19.181,0,0,0,.67-1.87,6.9,6.9,0,0,1,1.674-3.2,7.567,7.567,0,0,1,2.727-1.454,13.84,13.84,0,0,0,2.4-1.08c1.366-.829,2.807-1.852,4.332-2.935,1.643-1.167,3.341-2.373,5.128-3.468,1.131-.692,2.288-1.376,3.408-2.037,2.265-1.338,4.6-2.72,6.754-4.192,1.416-.971,2.667-2.008,3.876-3.01,1.192-.988,2.317-1.92,3.532-2.741,1.442-.97,2.93-1.839,4.369-2.678,1.421-.829,2.762-1.612,4.026-2.465.955-.648,1.851-1.34,2.717-2.008A27.313,27.313,0,0,1-235,125.52a41.055,41.055,0,0,1,6.564-2.251c.736-.207,1.427-.4,2.042-.592a70.609,70.609,0,0,1,8.617-1.885c2.313-.407,4.5-.791,6.494-1.32a5.458,5.458,0,0,1,1.354-.131c.307,0,.628.011.939.022s.632.022.944.022a6.956,6.956,0,0,0,.943-.053c2.085-.277,4.145-.535,6.137-.785h.012c3.6-.452,7-.878,10.217-1.37a16.6,16.6,0,0,1,.994-4.148,17.149,17.149,0,0,0,1.033-4.356c.332-5.329-2.448-11.777-8.261-19.166a79.167,79.167,0,0,0-8.527-8.963c-1.157-1.088-2.248-2.114-3.306-3.177a73.564,73.564,0,0,0,7.111-5.579c2.027-1.727,4.122-3.512,6.379-5.111a171.437,171.437,0,0,1,14.793-9.022,157.5,157.5,0,0,0,15.262-9.391,31.4,31.4,0,0,0,3.367-2.975,25.031,25.031,0,0,1,3.764-3.215,18.868,18.868,0,0,1,3.024-1.483,13.562,13.562,0,0,0,3.882-2.141c3.936-.127,8.309-1.8,12.538-3.427,4.4-1.689,8.958-3.436,13.027-3.436a13.337,13.337,0,0,1,1.344.066.924.924,0,0,1,.387-.13c.149,0,.257.1.33.293a30.048,30.048,0,0,1-1.532,3.138l0,.009c-.213.4-.433.806-.641,1.21.872,6.675,1.949,13.353,3.2,19.848-.239.839-.486,1.677-.724,2.488-.642,2.183-1.305,4.44-1.921,7.007-.2.836-.329,1.723-.47,2.661-.355,2.373-.722,4.827-2.17,6.834a15.14,15.14,0,0,1-2.407,2.312c-.5.417-1.011.848-1.457,1.268-7.9,7.4-14.056,13.1-19.371,17.93l-.676.617c-2.391,2.187-4.864,4.449-7.615,5.677-1.923,3.583-3.94,7.022-5.841,10.237-.4.682-.8,1.386-1.187,2.066a35.83,35.83,0,0,1-5.809,8.281,15.2,15.2,0,0,1-2.617,5.473c-.535.818-1.088,1.662-1.55,2.533a2.863,2.863,0,0,0-.229.988,3.083,3.083,0,0,1-.282,1.143c-.207.377-.423.7-.632,1.01a10.783,10.783,0,0,0-.587.942c-.133.257-.26.517-.394.793a9.9,9.9,0,0,1-2.05,3.131,26.607,26.607,0,0,1-.92-4.744,23.8,23.8,0,0,0-1.173-5.478,11.075,11.075,0,0,0,.745-2.918c.036-.243.067-.451.1-.627a1.335,1.335,0,0,0-.182-.8,1.545,1.545,0,0,1-.2-.787,27.841,27.841,0,0,1,.542-2.843,16.341,16.341,0,0,0,.536-3.272,18.76,18.76,0,0,1,.422-3.342c.378-2.025.769-4.12-.1-5.939a97.068,97.068,0,0,0-2,13.689c-.26,2.661-.53,5.413-.925,8.089a25.445,25.445,0,0,0,.848,3.681,26.769,26.769,0,0,1,.662,2.664,1.847,1.847,0,0,1-.144.6,2.965,2.965,0,0,0-.2.823,41.968,41.968,0,0,1-.025,4.865c-.027.384-.068.737-.108,1.078-.057.491-.111.955-.123,1.486a14.62,14.62,0,0,1-.147,1.609,8.97,8.97,0,0,0-.094.955,5.647,5.647,0,0,0,.238,1.338,6.137,6.137,0,0,1,.249,1.4c.012,2.364-.071,4.77-.152,7.1a99.6,99.6,0,0,0,.152,13.507,56.17,56.17,0,0,0-3.04,8.149c-.49,1.553-.952,3.019-1.437,4.279-.271.709-.543,1.467-.805,2.2a39.356,39.356,0,0,1-2.035,4.995,11.284,11.284,0,0,1-.621.982,8.06,8.06,0,0,0-.6.975,12.693,12.693,0,0,0-.655,1.951,11.426,11.426,0,0,1-.63,1.868,9.352,9.352,0,0,1-.877,1.354,4.877,4.877,0,0,0-1.13,2.3,42.052,42.052,0,0,0-6.054,5.254,45.141,45.141,0,0,1-5.393,4.789.528.528,0,0,1-.395-.243c-.205-.354.041-1.039.3-1.764.31-.864.662-1.844.316-2.457a1.252,1.252,0,0,0-.915-.566ZM-263.937,286.6a11.322,11.322,0,0,0-1.627.154l-.211.032-.025,0a8.054,8.054,0,0,1-1.03.118.931.931,0,0,1-.192-.016,2.66,2.66,0,0,0-.545-.049c-.189,0-.38.013-.549.024h-.01c-.183.012-.356.023-.527.023a1.194,1.194,0,0,1-1.24-.665c4.392-2.669,8.394-5.49,12.265-8.218l.008-.006c2.006-1.414,4.081-2.876,6.185-4.3a7.8,7.8,0,0,0,1.3-2.224,6.738,6.738,0,0,1,1.759-2.671c3.1-3.124,6.54-6.5,9.871-9.767,2.8-2.75,5.453-5.347,7.9-7.795.6-.591,1.264-1.189,1.911-1.767.664-.593,1.347-1.2,1.958-1.813.773-.764,1.47-1.605,2.144-2.419,1.424-1.718,2.768-3.341,4.725-4.213-.438.762-.879,1.537-1.306,2.287l-.013.022a106.75,106.75,0,0,1-7.844,12.4c-1.145,5.995-5.214,12.165-11.77,17.844a81.519,81.519,0,0,1-22.045,13.172A3.18,3.18,0,0,0-263.937,286.6ZM-352.686,118.66a.985.985,0,0,1,.711.4l.055.087.221.351c3.844,9.921,8.435,19.666,14.036,31.374.351,3.618.978,7.359,1.584,10.977.721,4.3,1.467,8.754,1.753,13.028-1.128,1.678-2.1,3.427-3.035,5.118a47.866,47.866,0,0,1-4.9,7.629,10.529,10.529,0,0,1-1.041,3.9,19.863,19.863,0,0,0-.751,2.04c-.526,1.828-.937,3.819-1.335,5.744a57.534,57.534,0,0,1-1.54,6.315,21.7,21.7,0,0,1-1.654,3.509c-.441.808-.9,1.644-1.292,2.54-1.521,3.414-3.1,6.756-3.9,8.445a57.548,57.548,0,0,0-2.633,6.984,47.339,47.339,0,0,1-3.233,8.123,25.106,25.106,0,0,1-.5,6.013,24.868,24.868,0,0,0-.5,6.106,40.833,40.833,0,0,0-3.781,7.872,59.376,59.376,0,0,1-2.456,5.641c-1.22,2.352-2.715,4.682-4.162,6.936-1.351,2.1-2.747,4.28-3.954,6.518a22.8,22.8,0,0,1-1.406-3.372,15.046,15.046,0,0,0-2.066-4.187c.126-8.255-.191-16.752-.5-24.968v-.007c-.206-5.525-.419-11.237-.5-16.826-.15-1.812-.165-3.623-.179-5.374a46.622,46.622,0,0,0-.624-8.667,153.211,153.211,0,0,0,4.794-18.064c1.159-5.222,2.358-10.621,4.034-15.815a12.923,12.923,0,0,1-.412-4.591,16.824,16.824,0,0,1,.392-2.649,17.581,17.581,0,0,0,.336-2.047,1.6,1.6,0,0,0-.179-.781,1.8,1.8,0,0,1-.193-.808,2.054,2.054,0,0,1,.388-.85,2.167,2.167,0,0,0,.39-.837,1.831,1.831,0,0,0-.194-.838,1.708,1.708,0,0,1-.183-.756,3.944,3.944,0,0,1,.166-.678,4.762,4.762,0,0,0,.181-.73c.232-2.016.484-4.034.728-5.986.425-3.4.826-6.611,1.114-9.684.085-.921.1-1.8.105-2.65a20.962,20.962,0,0,1,.255-3.634,48.457,48.457,0,0,1,4.03-12.164,22.008,22.008,0,0,0,4.036-1.939,18.944,18.944,0,0,1,4.464-2.054,7.089,7.089,0,0,0,1.311-2.118C-354.079,119.972-353.433,118.66-352.686,118.66Zm10.749,102.382a1.06,1.06,0,0,1,.37.075c-.1.209-.214.51-.342.858-.373,1.017-.883,2.409-1.645,2.409a.723.723,0,0,1-.281-.06,3.644,3.644,0,0,0,.707-1.549C-342.873,221.922-342.61,221.042-341.937,221.042Zm165.859-45a6.8,6.8,0,0,1,.446,3.387c-.02.395-.04.8-.029,1.209a7.54,7.54,0,0,0-1.714,2.146c-.606.965-1.179,1.877-1.816,1.877a.689.689,0,0,1-.078,0,37.969,37.969,0,0,0,1.609-4.335A38.511,38.511,0,0,1-176.078,176.04Zm61.742-105.569c.148,0,.25.093.321.293a12.931,12.931,0,0,0-1.107,3.924,13.567,13.567,0,0,1-1.187,4.147,11.474,11.474,0,0,1-1.748,2.151,20.611,20.611,0,0,0-1.414,1.6c-1.254,1.638-2.507,3.3-3.719,4.916-3.77,5.015-7.669,10.2-11.974,15a71.066,71.066,0,0,1-7.915,7.877l-.179.421c-2.788,6.562-5.671,13.346-9.9,19.691a28.939,28.939,0,0,1-1.046,5.181,28.949,28.949,0,0,0-1.047,5.191,107.282,107.282,0,0,0-9.836,17.536c-.281.609-.575,1.238-.887,1.9l-.013.027a78.305,78.305,0,0,0-4.289,10.332,1.275,1.275,0,0,1-.515.649,1.7,1.7,0,0,0-.535.606,6.571,6.571,0,0,0-.359,1.236c-.272,1.2-.58,2.57-2.085,2.683-.085-5.05-.28-9.639-1.8-14.654a103.1,103.1,0,0,0,.279-10.605c-.017-2.151-.035-4.375.032-6.543l.292-.576c6.58-12.975,13.383-26.39,21.283-39.3,5.856-4.613,10.993-9.492,15.961-14.211,6.845-6.5,13.923-13.224,22.982-19.344A1,1,0,0,1-114.336,70.471Zm-172.715,88.161c.676,1.144.144,2.025-.37,2.877a4.746,4.746,0,0,0-.644,1.376,7.615,7.615,0,0,0-.559,1.176c-.408.98-.869,2.089-1.483,2.089a.567.567,0,0,1-.226-.049,9.368,9.368,0,0,0,.428-2.459C-289.751,161.817-289.594,159.929-287.051,158.632Zm-1.261-6.273a1.364,1.364,0,0,0-.687.193c-.149,1.773-1.833,2.607-3.319,3.344-.357.177-.693.343-.992.515a16.189,16.189,0,0,1-2.961,1.19,23.849,23.849,0,0,0-2.449.911c-.953.44-1.839.934-2.7,1.412a28.529,28.529,0,0,1-3.326,1.67,50.574,50.574,0,0,1-11.352,3.326c4.094-3.605,7.622-7.277,11.033-10.827,1.557-1.621,3.167-3.3,4.8-4.933a104.087,104.087,0,0,0,7.643-8.32c.915-1.162,1.881-2.226,2.815-3.255a30.021,30.021,0,0,0,4.105-5.231,101.807,101.807,0,0,0,9.519-6.742,101.521,101.521,0,0,1,9.551-6.762c3.214-1.913,6.6-3.549,9.866-5.131,3.47-1.679,7.058-3.414,10.4-5.464,5.784-3.559,12.585-9.541,14.82-11.506,1.8-1.589,3.655-2.937,5.445-4.24.847-.617,1.647-1.2,2.4-1.781a61.821,61.821,0,0,0,5.843-5.2c.8-.781,1.557-1.518,2.347-2.237a26.254,26.254,0,0,1,2.154-1.716A15.775,15.775,0,0,0-210.3,78.89c9.537,7.019,24.856,25.437,17.043,36.2-2.708.315-5.5.582-8.46.866h-.007c-9.407.9-20.068,1.92-29.508,4.831-.712.221-1.457.4-2.177.581a19.262,19.262,0,0,0-3.494,1.087c-5.5,2.564-10.828,6.178-15.979,9.674q-.856.581-1.706,1.156c-7.141,4.833-15.738,10.532-25.358,16.148a.856.856,0,0,1-.627-.423c-.2-.431.117-1.088.454-1.783.374-.77.761-1.565.492-2.147a1.4,1.4,0,0,0-1.008-.682,6.18,6.18,0,0,0-1.75,3.452,5.631,5.631,0,0,1-2.692,4.127,1.983,1.983,0,0,1-1.441.846,2.4,2.4,0,0,1-.9-.234A2.423,2.423,0,0,0-288.312,152.359Zm-53.339-46.668c.3,0,.51.193.652.589-.083.46-.163.929-.24,1.383l0,.014c-.623,3.674-1.266,7.473-4.505,10.6a21.147,21.147,0,0,1-2.765-5.358l-.07-.179a18.213,18.213,0,0,1,3.213-3.613,21.076,21.076,0,0,0,2.939-3.184A1.928,1.928,0,0,1-341.651,105.692Zm-4.3-18.618a.758.758,0,0,1,.424.177c.465,2.94,1.276,6.009,2.06,8.977.46,1.742.936,3.543,1.337,5.3a30.353,30.353,0,0,0-4.164,3.159,28.705,28.705,0,0,1-4.573,3.4c-1.439-2.621-.245-4.667.91-6.646a14.439,14.439,0,0,0,1.283-2.571,15.989,15.989,0,0,1,.886-6.116,20.287,20.287,0,0,0,.931-4.694,1.673,1.673,0,0,0,.375-.493C-346.333,87.312-346.194,87.074-345.95,87.074Zm243.024-58.732c.313,0,.569.216.76.642-.286,1.09-.6,2.191-.908,3.256a44.4,44.4,0,0,0-2.2,11.368,35.2,35.2,0,0,0-2.922,7.949c-.191.679-.388,1.381-.6,2.084-.2.678-.395,1.408-.6,2.181-.774,2.923-1.649,6.232-3.366,8.121a15.576,15.576,0,0,1-3.745,2.74,18.883,18.883,0,0,0-5,3.821,8.173,8.173,0,0,1,.657-4.916,19.532,19.532,0,0,0,.6-1.9c.384-1.635.663-3.328.934-4.966l0-.023c.1-.6.2-1.22.307-1.828-.774-3.807-1.35-7.629-1.907-11.326-.5-3.3-1.012-6.719-1.666-10.109a5.79,5.79,0,0,0,1.463-2.476,6.428,6.428,0,0,1,1.147-2.154c.519.03,1.055.044,1.593.044,4.847,0,9.964-1.168,15.218-2.47A.825.825,0,0,1-102.927,28.342ZM-325.895,52.366a2,2,0,0,1,1.035.408,57.56,57.56,0,0,0-6.46,6.5c-3.816,4.278-7.761,8.7-14.331,11.088a6.21,6.21,0,0,1-1.65-4.817,9.647,9.647,0,0,0-.137-1.966,65.16,65.16,0,0,1,11.293-6.054,71.22,71.22,0,0,0,9.854-5.089A1.1,1.1,0,0,1-325.895,52.366ZM-71.6,18.837c.317,0,.571.214.756.636C-79.679,28.593-88.2,37.97-96.44,47.039c-3.435,3.78-6.986,7.689-10.513,11.527a.694.694,0,0,1-.494-.371c-.121-.317.135-.735.341-1.071a1.91,1.91,0,0,0,.218-.415c.084-.329.157-.674.234-1.038.126-.594.256-1.208.444-1.8a24.859,24.859,0,0,1,.931-2.409,21.473,21.473,0,0,0,1.137-3.1,48.6,48.6,0,0,0,.913-5.394,52.562,52.562,0,0,1,.9-5.411c.217-.907.5-1.735.806-2.611.286-.827.581-1.681.82-2.621a12.012,12.012,0,0,0,.248-1.619c.145-1.334.294-2.713,1.373-3.615,4.267-1.275,8.509-2.162,12.611-3.02,3.189-.667,6.486-1.357,9.771-2.223,1.307-.792,2.629-1.6,3.908-2.391l.008,0,.947-.582A.868.868,0,0,1-71.6,18.837Z" transform="translate(-26 276)" fill="#281537"/>
    </g>
  </g>
</svg>
