<svg xmlns="http://www.w3.org/2000/svg" width="45" height="45" viewBox="0 0 45 45">
  <g id="Group_1" data-name="Group 1" transform="translate(0.5 0.5)">
    <circle id="Oval_Copy_15" data-name="Oval Copy 15" cx="22" cy="22" r="22" fill="none" stroke="#434565" stroke-miterlimit="10" stroke-width="1"/>
    <path id="Fill_1" data-name="Fill 1" d="M24,18H2a1.94,1.94,0,0,1-.625-.1L9.25,10.042l2.031,1.916a2.517,2.517,0,0,0,3.459,0l2.031-1.927L24.625,17.9A1.94,1.94,0,0,1,24,18Zm1.677-.937h0L17.74,9.1l8.135-7.729a2.1,2.1,0,0,1,.125.7V15.927a2.128,2.128,0,0,1-.322,1.135Zm-25.354,0h0A2.122,2.122,0,0,1,0,15.927V2.073a2.121,2.121,0,0,1,.125-.7L8.281,9.114.324,17.061ZM13.011,11.34a1.182,1.182,0,0,1-.813-.35L.938.323A1.915,1.915,0,0,1,2,0H24a1.915,1.915,0,0,1,1.062.323L13.823,10.99A1.177,1.177,0,0,1,13.011,11.34Z" transform="translate(9 13)" fill="#fff"/>
  </g>
</svg>
