<svg xmlns="http://www.w3.org/2000/svg" xmlns:xlink="http://www.w3.org/1999/xlink" width="49.594" height="56.373" viewBox="0 0 49.594 56.373">
  <defs>
    <linearGradient id="linear-gradient" x1="1" y1="0.769" x2="0" y2="0.769" gradientUnits="objectBoundingBox">
      <stop offset="0" stop-color="#eeb462"/>
      <stop offset="0.496" stop-color="#d17e29"/>
      <stop offset="1" stop-color="#ea9d32"/>
    </linearGradient>
    <radialGradient id="radial-gradient" cx="0.5" cy="0.5" r="0.501" gradientUnits="objectBoundingBox">
      <stop offset="0" stop-color="#ec9b27" stop-opacity="0"/>
      <stop offset="1" stop-color="#fff" stop-opacity="0.494"/>
    </radialGradient>
  </defs>
  <g id="Group_6" data-name="Group 6" transform="translate(-34.715 12.373)">
    <g id="Group_7" data-name="Group 7" transform="translate(40 -6)">
      <path id="Combined_Shape" data-name="Combined Shape" d="M8.2,26.006,4.079,18.178v5.447L0,21.27V7.09L12.28,0,24.56,7.09v4.69l-4.142,2.4v9.484L16.349,26.01V16.52l-4.07,2.347V14.18l8.2-4.734L12.237,4.685,10.428,5.74l4.438,2.565-4.079,2.355L6.37,8.108,4.079,9.445,0,7.09,4.079,9.446,8.2,17.272V11.825L12.28,14.18v14.18Z" transform="translate(9.437 10.932)" fill="url(#linear-gradient)"/>
      <path id="Path_10_Copy" data-name="Path 10 Copy" d="M0,7.09,12.28,0V4.69L8.138,7.09v9.484L4.069,18.92V9.431L0,11.778Z" transform="translate(21.717 18.022)" fill="url(#linear-gradient)"/>
      <path id="Combined_Shape-2" data-name="Combined Shape" d="M21.658-50h0L0-37.5v6.076L21.647-44.05l14.3,8.274,5.174-2.989L21.659-50ZM43.316-35.026h0l-5.325,3.074v11.465l5.327-3.079V-35.026ZM5.27-29.508h0L0-26.432V-15l5.27-3.045V-29.508ZM43.316-18.551h0L21.628-6.014l-14.2-8.3L2.149-11.26,21.658,0,43.316-12.5v-6.051Z" transform="translate(0 50)" fill="#ec9b27"/>
      <ellipse id="Oval" cx="24.797" cy="19.357" rx="24.797" ry="19.357" transform="translate(-5.285 -6.373)" opacity="0.482" fill="url(#radial-gradient)" style="mix-blend-mode: screen;isolation: isolate"/>
    </g>
  </g>
</svg>
