<svg id="Group_16" data-name="Group 16" xmlns="http://www.w3.org/2000/svg" width="94.831" height="98.7" viewBox="0 0 94.831 98.7">
  <path id="Fill_1" data-name="Fill 1" d="M40.761,80.593a2.4,2.4,0,0,1-.971-.182c-4.255-1.912-8.57-3.878-12.744-5.779-3.977-1.812-8.087-3.685-12.139-5.507a2.587,2.587,0,0,1-1.767-2.747c.058-10.331.038-20.72.012-29.52A2.043,2.043,0,0,1,14.6,34.669c1.5-.616,2.956-1.279,4.493-1.982.612-.28,1.245-.569,1.881-.854-.092-.14-.175-.269-.253-.39-.15-.232-.279-.433-.417-.629Q12.313,19.468,4.322,8.124L.7,2.978C.659,2.923.619,2.869.579,2.814.5,2.7.415,2.589.341,2.472A1.508,1.508,0,0,1,.612.284,1.458,1.458,0,0,1,1.462,0,1.623,1.623,0,0,1,2.769.746C3.725,2.074,4.68,3.436,5.6,4.753q.608.866,1.211,1.724Q16.771,20.6,26.724,34.729a2.752,2.752,0,0,1,.7,1.947,1.272,1.272,0,0,1-.6.835,1.383,1.383,0,0,1-.779.268c-.545,0-1.1-.4-1.741-1.274-.142-.192-.282-.414-.418-.628-.369-.584-.75-1.189-1.255-1.339a.779.779,0,0,0-.222-.031,3.371,3.371,0,0,0-1.392.542c-.241.133-.49.27-.723.371-.378.162-.752.333-1.184.53l-.01,0-.679.309c.137.079.256.15.361.213a5.508,5.508,0,0,0,.514.286l2.567,1.173c5.952,2.72,12.105,5.532,18.171,8.268a2,2,0,0,0,.795.157,1.563,1.563,0,0,0,.632-.117c6.352-2.859,12.793-5.8,19.023-8.65l1.905-.871a4.014,4.014,0,0,0,.476-.275c.1-.062.206-.131.332-.207l-1.7-.777-2.409-1.1q-.307.428-.6.844c-.4.561-.775,1.089-1.165,1.621a1.939,1.939,0,0,1-1.476.95,1.385,1.385,0,0,1-.789-.265,1.365,1.365,0,0,1-.614-.893,2.114,2.114,0,0,1,.47-1.547C60.4,27.285,65.975,19.367,71.371,11.71l.062-.087,5.048-7.164.486-.692c.385-.548.783-1.115,1.181-1.667a1.944,1.944,0,0,1,1.491-.969,1.43,1.43,0,0,1,.856.31c.725.537.759,1.424.091,2.374C77.591,8.07,74.542,12.4,71.594,16.578l-.043.06-5.346,7.586c-1.126,1.6-2.226,3.163-3.391,4.821l-.02.029L60.857,31.83c.144.073.278.144.407.211.254.133.493.258.733.367l.907.414c1.424.65,2.9,1.322,4.355,1.962a1.726,1.726,0,0,1,1.168,1.746c-.011,10.806-.009,20.8,0,30.552,0,1.019-.58,1.492-1.453,1.888-5.04,2.286-10.14,4.613-15.072,6.864l-.383.175-3.5,1.6c-.594.271-1.19.55-1.768.819-1.444.674-2.936,1.37-4.435,1.977A2.885,2.885,0,0,1,40.761,80.593ZM16.237,38.711c-.008.144-.018.274-.027.394-.017.227-.031.423-.031.617q0,3.223,0,6.447c0,6.338,0,12.891-.021,19.34a1.209,1.209,0,0,0,.889,1.274c5.1,2.315,10.278,4.68,15.283,6.968l5.809,2.654c.217.1.437.185.716.293.142.055.3.115.473.185V75.221q0-2.753,0-5.505c0-6.378-.009-12.971.016-19.455a1.426,1.426,0,0,0-.986-1.543c-5.018-2.268-10.11-4.595-15.035-6.845l-5.78-2.639c-.259-.117-.53-.222-.818-.332C16.566,38.84,16.407,38.779,16.237,38.711Zm49.176,0h0c-.147.054-.279.1-.4.142-.23.081-.411.145-.588.225l-5.794,2.646c-5.1,2.332-10.382,4.743-15.58,7.1a1.159,1.159,0,0,0-.8,1.239c.011,6.023.01,12.137.009,18.05q0,3.868,0,7.736a5.935,5.935,0,0,0,.046.617c.013.124.027.251.04.4l.26-.093c.119-.042.2-.07.275-.1l5.252-2.4c5.435-2.481,11.056-5.047,16.6-7.548.683-.308.682-.77.681-1.3-.006-6.469-.006-13.044,0-19.4v-.284q0-2.843,0-5.686c0-.258,0-.517,0-.81v-.519Z" transform="translate(6.616 18.108)" fill="#6a5e51"/>
  <path id="Combined_Shape" data-name="Combined Shape" d="M13.048,37.632c-1.721-1.064-3.469-2.148-5.159-3.2l-.01-.006-.006,0L3.147,31.5A6.188,6.188,0,0,1,0,25.84L0,25.4c.016-4.082.033-8.3,0-12.457A6.324,6.324,0,0,1,3.257,7.14C5.478,5.773,7.729,4.373,9.906,3.02l3.075-1.91A6.786,6.786,0,0,1,16.568,0,6.69,6.69,0,0,1,20.08,1.072c3.22,1.975,6.486,4,9.985,6.2a6.065,6.065,0,0,1,3.043,5.4c0,1.559,0,3.144,0,4.676v.016q0,1.006,0,2.012h.013q0,.969,0,1.939v.007c0,1.458-.007,2.966.009,4.449a6.231,6.231,0,0,1-3.173,5.751c-1.345.832-2.713,1.68-4.036,2.5l-.011.007c-1.92,1.192-3.9,2.422-5.856,3.624a6.631,6.631,0,0,1-3.485,1.069A6.668,6.668,0,0,1,13.048,37.632ZM14.484,3.694c-2.868,1.819-6.02,3.775-9.637,5.978a3.654,3.654,0,0,0-1.9,3.406c.022,4.316.01,8.6-.005,12.586A3.629,3.629,0,0,0,4.779,29c3.259,2,6.557,4.05,9.747,6.036l.158.1a3.545,3.545,0,0,0,1.876.585,3.6,3.6,0,0,0,1.905-.6l1.153-.716c2.864-1.779,5.826-3.62,8.752-5.419a3.614,3.614,0,0,0,1.813-3.355c-.014-1.472-.011-2.968-.008-4.415q0-.938,0-1.876h-.005q0-.948,0-1.9v-.01c0-1.472,0-2.994,0-4.491a3.46,3.46,0,0,0-1.742-3.182L26.257,8.422c-2.508-1.545-5.1-3.143-7.636-4.742a3.814,3.814,0,0,0-2.056-.662A3.846,3.846,0,0,0,14.484,3.694Zm2.071,24.2a8.553,8.553,0,1,1-.036-17.106h.03a8.576,8.576,0,0,1,6.13,2.534,8.392,8.392,0,0,1,2.458,6.008,8.6,8.6,0,0,1-8.53,8.565ZM10.973,19.3a5.6,5.6,0,0,0,5.577,5.582h.008a5.593,5.593,0,0,0,5.594-5.558,5.67,5.67,0,0,0-5.579-5.61h-.018A5.666,5.666,0,0,0,10.973,19.3Z" transform="translate(30.849 5.027)" fill="#fdc379"/>
  <path id="Fill_5" data-name="Fill 5" d="M4.873,4.468c-.23.266-.507.881-.912.982A1.986,1.986,0,0,1,2.31,5.13a18.844,18.844,0,0,1-2.091-2.9A1.312,1.312,0,0,1,.521.461C1.059-.024,1.81-.215,2.284.33A39.684,39.684,0,0,1,4.741,3.7c.088.126.062.33.132.763" transform="translate(0.941 10.056)" fill="#6a5e51"/>
  <path id="Fill_7" data-name="Fill 7" d="M1.653,5.115a1.468,1.468,0,0,1-1.441-2.2A18,18,0,0,1,1.877.561,1.334,1.334,0,0,1,3.726.235,1.3,1.3,0,0,1,4.342,2,20.975,20.975,0,0,1,2.322,4.84c-.16.2-.545.228-.668.275" transform="translate(89.654 10.091)" fill="#6a5e51"/>
  <path id="Fill_9" data-name="Fill 9" d="M3.009,1.768a1.549,1.549,0,0,1-1.522,1.7C.559,3.462-.031,2.735,0,1.64A1.51,1.51,0,0,1,1.568,0a1.539,1.539,0,0,1,1.44,1.767" transform="translate(4.493 49.893)" fill="#6a5e51"/>
  <path id="Fill_11" data-name="Fill 11" d="M0,1.661A1.545,1.545,0,0,1,1.57,0C2.473.036,3.049.793,3,1.884A1.466,1.466,0,0,1,1.4,3.46,1.543,1.543,0,0,1,0,1.661" transform="translate(87.316 83.179)" fill="#6a5e51"/>
  <path id="Fill_13" data-name="Fill 13" d="M1.751,3A1.518,1.518,0,0,1,0,1.554,1.485,1.485,0,0,1,1.635,0c1.1-.021,1.816.559,1.828,1.486A1.563,1.563,0,0,1,1.751,3" transform="translate(65.376 4.501)" fill="#6a5e51"/>
  <path id="Fill_15" data-name="Fill 15" d="M3,1.7A1.588,1.588,0,0,1,1.54,3.462,1.563,1.563,0,0,1,0,1.683C.01.635.581,0,1.5,0A1.489,1.489,0,0,1,3,1.7" transform="translate(4.501 41.414)" fill="#6a5e51"/>
  <path id="Fill_17" data-name="Fill 17" d="M1.738,0C2.783.008,3.453.58,3.464,1.476A1.541,1.541,0,0,1,1.769,3,1.544,1.544,0,0,1,0,1.451C.015.549.68-.007,1.738,0" transform="translate(73.858 4.505)" fill="#6a5e51"/>
  <path id="Clip_20" data-name="Clip 20" d="M0,0H3.467V2.993H0Z" transform="translate(91.363 87.694)" fill="none"/>
  <path id="Fill_19" data-name="Fill 19" d="M1.754,0A1.543,1.543,0,0,1,3.467,1.5a1.589,1.589,0,0,1-1.738,1.5A1.523,1.523,0,0,1,0,1.418C.035.5.669-.013,1.754,0" transform="translate(91.363 87.694)" fill="#6a5e51"/>
  <path id="Fill_22" data-name="Fill 22" d="M1.663,2.985A1.511,1.511,0,0,1,0,1.453,1.6,1.6,0,0,1,1.779,0a1.559,1.559,0,0,1,1.7,1.519c0,.939-.686,1.489-1.819,1.465" transform="translate(8.496 45.862)" fill="#6a5e51"/>
  <path id="Fill_24" data-name="Fill 24" d="M1.785,0a1.514,1.514,0,0,1,1.69,1.506A1.56,1.56,0,0,1,1.743,2.993,1.567,1.567,0,0,1,0,1.519C-.009.589.69-.007,1.785,0" transform="translate(82.839 87.689)" fill="#6a5e51"/>
  <path id="Fill_26" data-name="Fill 26" d="M3.008,1.715A1.534,1.534,0,0,1,1.565,3.47,1.509,1.509,0,0,1,0,1.834,1.6,1.6,0,0,1,1.5,0,1.564,1.564,0,0,1,3.008,1.715" transform="translate(87.319 91.672)" fill="#6a5e51"/>
  <path id="Clip_29" data-name="Clip 29" d="M0,0H3.459V2.978H0Z" transform="translate(0 45.868)" fill="none"/>
  <path id="Fill_28" data-name="Fill 28" d="M1.739,2.978C.688,2.981.015,2.421,0,1.53A1.572,1.572,0,0,1,1.7,0C2.788-.02,3.477.58,3.458,1.533c-.017.923-.634,1.441-1.719,1.445" transform="translate(0 45.868)" fill="#6a5e51"/>
  <path id="Fill_31" data-name="Fill 31" d="M2.947,1.787c-.01,1.086-.564,1.7-1.508,1.673S-.01,2.815,0,1.706A1.54,1.54,0,0,1,1.524,0C2.4.029,2.957.723,2.947,1.787" transform="translate(69.858)" fill="#6a5e51"/>
  <path id="Fill_33" data-name="Fill 33" d="M2.942,1.792c0,1.063-.58,1.7-1.519,1.672S-.011,2.809,0,1.7A1.514,1.514,0,0,1,1.411,0c.931-.03,1.534.675,1.53,1.791" transform="translate(69.87 8.493)" fill="#6a5e51"/>
  <path id="Fill_35" data-name="Fill 35" d="M13.979,23.243c.029-.487.067-.819.067-1.151,0-3.99-.024-7.98.023-11.969a1.513,1.513,0,0,0-1.053-1.614C9.108,6.726,5.221,4.9,1.341,3.055.9,2.845.332,2.52.2,2.123A2.111,2.111,0,0,1,.415.516a1.389,1.389,0,0,1,1.868-.3c1.752.8,3.491,1.619,5.233,2.435,2.739,1.282,5.466,2.588,8.218,3.839a1.93,1.93,0,0,1,1.279,1.991C16.983,14.089,17,19.7,16.994,25.3c0,1.565-.972,2.193-2.38,1.546q-6.744-3.1-13.475-6.221a1.57,1.57,0,0,1-.982-2.154,1.554,1.554,0,0,1,2.223-.563q5.2,2.385,10.389,4.795c.342.158.688.306,1.211.538" transform="translate(25.865 62.199)" fill="#6a5e51"/>
  <path id="Fill_37" data-name="Fill 37" d="M2.954,23.294l6.737-3.109q2.434-1.122,4.868-2.243c1.045-.479,1.943-.263,2.312.543.385.841.014,1.671-1.015,2.149Q9.122,23.758,2.377,26.855c-1.371.629-2.348.013-2.352-1.479C.01,19.735.031,14.094,0,8.452A1.932,1.932,0,0,1,1.3,6.48c4.4-2.028,8.782-4.1,13.168-6.157.691-.324,1.457-.555,2,.072a1.9,1.9,0,0,1,.389,1.555A2.365,2.365,0,0,1,15.64,3.062Q9.826,5.839,3.965,8.516a1.514,1.514,0,0,0-1.031,1.631c.044,3.955.019,7.912.019,11.867Z" transform="translate(51.929 62.205)" fill="#6a5e51"/>
</svg>
