<svg xmlns="http://www.w3.org/2000/svg" width="99" height="84" viewBox="0 0 99 84">
  <g id="icon_4" data-name="icon 4" transform="translate(0 0)">
    <path id="Shape" d="M7.545,84c-.062-.261-.3-.194-.464-.238A9.416,9.416,0,0,1,.235,76.892c-.041-.169.025-.4-.235-.47V7.582c.345-.14.25-.5.324-.749A9.255,9.255,0,0,1,9.341,0h80.4a9.171,9.171,0,0,1,6.556,2.708,9.286,9.286,0,0,1,2.7,6.594q.018,32.7,0,65.4a9.251,9.251,0,0,1-6.25,8.786c-.548.194-1.114.339-1.672.508Z" fill="#757f93"/>
    <path id="Shape-2" data-name="Shape" d="M7.9,40.982A7.883,7.883,0,0,1,.024,33.218C-.01,30.1,0,26.985,0,23.869V14.327a3.124,3.124,0,0,1,3.307-3.27c1.332,0,2.665-.03,4,.012.579.02.7-.169.709-.711a19.9,19.9,0,0,1,.17-4.214A8.058,8.058,0,0,1,16.965.053a7.959,7.959,0,0,1,7.023,7.7c0,.884.03,1.777,0,2.655-.02.5.112.68.653.664,1.364-.04,2.729-.022,4.1-.013a3.122,3.122,0,0,1,3.256,3.219c0,6.331.018,12.659,0,18.987a7.87,7.87,0,0,1-7.815,7.715Q20.109,41,16.038,41T7.9,40.982Z" transform="translate(33 31)" fill="#fdc379"/>
    <path id="Path" d="M6.611,12.992a1.768,1.768,0,0,1-1.452-.549C3.641,10.89,2.109,9.347.607,7.778A1.633,1.633,0,0,1,.639,5.212Q2.857,2.9,5.125.621A1.6,1.6,0,0,1,7.5.452a1.679,1.679,0,0,1-.115,2.5C6.386,3.993,5.391,5.029,4.363,6.03c-.38.368-.388.582,0,.956C5.417,8,6.434,9.075,7.454,10.135a1.6,1.6,0,0,1,.4,1.846A1.493,1.493,0,0,1,6.611,12.992Z" transform="translate(12 45)" fill="#757f93"/>
    <path id="Path-2" data-name="Path" d="M1.539,13a1.527,1.527,0,0,1-1.372-.971,1.567,1.567,0,0,1,.338-1.853C1.517,9.109,2.54,8.051,3.593,7.027c.4-.383.45-.611.02-1.018C2.6,5.03,1.634,4.012.662,2.994A1.7,1.7,0,0,1,.475.5,1.6,1.6,0,0,1,2.92.655Q5.146,2.894,7.337,5.168a1.667,1.667,0,0,1,.02,2.647C5.875,9.358,4.37,10.868,2.873,12.405A1.774,1.774,0,0,1,1.539,13Z" transform="translate(80 45)" fill="#757f93"/>
    <path id="Path-3" data-name="Path" d="M16.1.008H30.292a1.686,1.686,0,0,1,1.694,1.685,2.029,2.029,0,0,1-1.022,2.176,1.965,1.965,0,0,1-.88.123H1.9A1.757,1.757,0,0,1,0,2.054,1.777,1.777,0,0,1,1.911,0Z" transform="translate(61 9)" fill="#757f93"/>
    <path id="Shape-3" data-name="Shape" d="M4.457,9a4.467,4.467,0,1,1,.074,0Z" transform="translate(6 6)" fill="#757f93"/>
    <path id="Shape-4" data-name="Shape" d="M4.458,9A4.5,4.5,0,1,1,4.5,9Z" transform="translate(18 6)" fill="#757f93"/>
    <path id="Shape-5" data-name="Shape" d="M4.46,9a4.466,4.466,0,1,1,.07,0Z" transform="translate(28 6)" fill="#757f93"/>
    <path id="Path-4" data-name="Path" d="M4,1.938A2,2,0,1,1,2,0,1.955,1.955,0,0,1,4,1.938Z" transform="translate(42 47)" fill="#fdc379"/>
    <path id="Path-5" data-name="Path" d="M0,2.04A2,2,0,1,1,1.97,4,1.94,1.94,0,0,1,0,2.04Z" transform="translate(54 47)" fill="#fdc379"/>
  </g>
</svg>
