<svg xmlns="http://www.w3.org/2000/svg" width="93" height="93" viewBox="0 0 93 93">
  <g id="icon3" transform="translate(0)">
    <path id="Shape" d="M3.534,92.846a4.632,4.632,0,0,1-.023-8.988A4.528,4.528,0,0,1,8.731,86.2a.942.942,0,0,0,.941.614q9.2-.028,18.4,0a.992.992,0,0,0,.913-.4q2.74-3.691,5.52-7.355c.32-.424.194-.583-.238-.743a32.682,32.682,0,0,1-9.684-5.746c-.421-.359-.624-.237-.916.122-.7.849-1.433,1.662-2.136,2.507a1.993,1.993,0,0,1-1.684.736c-.5-.013-1-.008-1.5,0-.63.005-1.26.011-1.888-.016a1.615,1.615,0,0,0-1.747.931,4.415,4.415,0,0,1-5.194,1.986,4.644,4.644,0,0,1,.02-8.9,4.423,4.423,0,0,1,5.134,1.916c.482.841,1.045.915,1.887,1.028a4.461,4.461,0,0,0,4.827-2.28c.28-.454.408-.672,0-1.115a31.987,31.987,0,0,1-5.656-8.39,1.009,1.009,0,0,0-1.1-.664c-1.582.031-3.165.034-4.745,0a1.107,1.107,0,0,0-1.2.678,4.36,4.36,0,0,1-3.82,2.42,4.635,4.635,0,0,1-1.895-8.951,4.519,4.519,0,0,1,5.667,2.012,1.26,1.26,0,0,0,1.336.777,30.5,30.5,0,0,1,3.194,0c.841.055,1.017-.116.747-.971a32.855,32.855,0,0,1-1.359-12.9,37.345,37.345,0,0,1,1.621-7.844c-1.535,0-2.978.023-4.421-.012a.984.984,0,0,0-1.032.625A4.409,4.409,0,0,1,4.838,38.73,4.637,4.637,0,1,1,8.683,31.8c.219.389.328.777.945.758,1.748-.053,3.485-.033,5.228,0a.759.759,0,0,0,.8-.517,32.764,32.764,0,0,1,5.811-8.633c.3-.327.3-.535.022-.89-1.835-2.363-1.825-2.371-4.855-2.371a5.661,5.661,0,0,1-.677,0,.914.914,0,0,0-1.039.606,4.408,4.408,0,0,1-3.883,2.486A4.637,4.637,0,0,1,9.18,14.279a4.51,4.51,0,0,1,5.663,2.036,1.232,1.232,0,0,0,1.347.751c.6-.02,1.194-.015,1.792-.011s1.2.008,1.793-.011a2.122,2.122,0,0,1,1.839.86c.65.8,1.359,1.553,2,2.365.363.464.6.491,1.062.1a32.035,32.035,0,0,1,9.434-5.605c.661-.254.668-.462.267-.983q-2.592-3.38-5.114-6.813a1.643,1.643,0,0,0-1.508-.777q-8.861.04-17.722,0a1.363,1.363,0,0,0-1.416.806,4.544,4.544,0,0,1-5.865,1.9A4.661,4.661,0,0,1,.265,3.137,5.176,5.176,0,0,1,3.691,0H5.633A5.024,5.024,0,0,1,8.6,2.29c.332.746.814.818,1.5.818,6.226-.018,12.453,0,18.679-.03a2.616,2.616,0,0,1,2.351,1.191C33.2,7.11,35.353,9.9,37.442,12.723a1.186,1.186,0,0,0,1.439.549,33.163,33.163,0,0,1,15.237,0,1.188,1.188,0,0,0,1.438-.549c2.07-2.8,4.2-5.558,6.246-8.377a2.768,2.768,0,0,1,2.51-1.268c6.258.043,12.517.023,18.775.012.346,0,.794.21,1.013-.3A5.29,5.29,0,0,1,87.369,0h1.748A5.13,5.13,0,0,1,93,3.884V5.632a1.77,1.77,0,0,0-.193.319,4.484,4.484,0,0,1-4.078,3.326,4.367,4.367,0,0,1-4.492-2.563.853.853,0,0,0-.909-.507q-9.2.011-18.4,0a.994.994,0,0,0-.906.408q-2.718,3.65-5.463,7.275c-.3.389-.352.6.193.815a32.713,32.713,0,0,1,9.68,5.75c.433.371.637.194.919-.136.636-.777,1.326-1.5,1.941-2.29a2.3,2.3,0,0,1,2.077-.981c.532.027,1.068.02,1.6.013s1.064-.014,1.591.013a1.6,1.6,0,0,0,1.735-.941A4.437,4.437,0,0,1,83.5,14.162a4.642,4.642,0,0,1-.035,8.9,4.422,4.422,0,0,1-5.129-1.924c-.482-.852-1.06-.9-1.894-1.018a4.459,4.459,0,0,0-4.827,2.286c-.287.464-.388.681.022,1.112a31.987,31.987,0,0,1,5.64,8.379,1.007,1.007,0,0,0,1.109.656c1.58-.029,3.163-.037,4.745,0a1.121,1.121,0,0,0,1.188-.689,4.524,4.524,0,0,1,5.353-2.226,5.108,5.108,0,0,1,3.314,3.487v1.941a1.885,1.885,0,0,0-.194.321,4.483,4.483,0,0,1-4.077,3.326,4.368,4.368,0,0,1-4.493-2.56.845.845,0,0,0-.9-.511c-1.165.018-2.33.055-3.483-.012-.825-.046-1.025.1-.755.971a33.126,33.126,0,0,1,.953,15.961c-.289,1.6-.757,3.15-1.18,4.785,1.5,0,2.888-.031,4.271.014a1.121,1.121,0,0,0,1.184-.695,4.582,4.582,0,0,1,6.578-1.655,5.837,5.837,0,0,1,2.092,2.913v1.942a1.932,1.932,0,0,0-.194.32,4.484,4.484,0,0,1-4.077,3.327,4.37,4.37,0,0,1-4.493-2.564.847.847,0,0,0-.907-.507c-1.679.014-3.356.022-5.035,0a.9.9,0,0,0-.971.582,32.558,32.558,0,0,1-5.761,8.545c-.346.369-.3.6,0,.971,1.882,2.286,1.872,2.286,4.883,2.286a5.007,5.007,0,0,1,.678,0c.489.068.73-.149.955-.582a4.416,4.416,0,0,1,3.866-2.509,4.639,4.639,0,0,1,1.833,8.986,4.532,4.532,0,0,1-5.63-2.112,1.1,1.1,0,0,0-1.181-.7c-.568.023-1.137.017-1.7.011-.6-.006-1.19-.013-1.781.016a2.367,2.367,0,0,1-2.179-.971c-.607-.793-1.318-1.507-1.941-2.292-.349-.445-.594-.406-1-.064a32.5,32.5,0,0,1-9.43,5.613c-.743.287-.654.52-.255,1.045q2.619,3.42,5.171,6.89a1.4,1.4,0,0,0,1.28.641q9-.032,18.009,0a1.136,1.136,0,0,0,1.188-.688,4.526,4.526,0,0,1,5.353-2.226,5.1,5.1,0,0,1,3.319,3.482v1.942a1.969,1.969,0,0,0-.194.32,4.484,4.484,0,0,1-4.077,3.327,4.344,4.344,0,0,1-4.489-2.568c-.28-.555-.666-.5-1.107-.5-6.358,0-12.716-.012-19.076.012a2.3,2.3,0,0,1-2.045-1.02c-2.109-2.855-4.271-5.674-6.372-8.532a1.315,1.315,0,0,0-1.59-.617,33.081,33.081,0,0,1-15.143-.018,1.191,1.191,0,0,0-1.441.55c-2.089,2.83-4.236,5.617-6.31,8.458a2.607,2.607,0,0,1-2.356,1.184c-4.262-.025-8.523-.023-12.785-.022q-3.048,0-6.1,0c-.493,0-.862,0-1.165.583a4.478,4.478,0,0,1-4,2.528A4.762,4.762,0,0,1,3.534,92.846Z" fill="#757f93"/>
    <path id="Shape-2" data-name="Shape" d="M.352,32.3C-1.21,21.625,2.455,12.847,10.758,5.978c.2-.164.384-.343.576-.517a33.3,33.3,0,0,1,7.922-4.039C35.4-4.034,53.187,6.816,55.665,23.607A27.966,27.966,0,0,1,52.29,41.941a4.141,4.141,0,0,0-.2.438A30.546,30.546,0,0,1,44.108,50.9,27.518,27.518,0,0,1,28.132,56,27.919,27.919,0,0,1,.352,32.3Z" transform="translate(19 18)" fill="#757f93"/>
    <path id="Path" d="M8.809,15.289c-1.229,1.1-2.105.932-2.822-.567C5.046,12.77,4.141,10.81,3.21,8.836c-.342.2-.2.493-.2.717-.017,1.6.013,3.19-.021,4.783a1.565,1.565,0,0,1-1.439,1.657,1.419,1.419,0,0,1-1.073-.428,1.614,1.614,0,0,1-.458-1.119c-.03-4.319-.013-8.639,0-12.96A2.776,2.776,0,0,1,.143.908C1.168-.4,2.267-.294,2.988,1.215c.956,2,1.882,4.008,3.01,5.97V2.066C6,.76,6.589-.012,7.539.02,8.457.05,9,.792,9,2.058V13.924a4.383,4.383,0,0,1-.19,1.365Z" transform="translate(31 38)" fill="#fdc379"/>
    <path id="Path-2" data-name="Path" d="M0,7.988V2C0,.579.547.012,1.884.006q2.673-.012,5.34,0A1.587,1.587,0,0,1,9,1.61,1.592,1.592,0,0,1,7.215,3.2c-1.155.014-2.312.028-3.465,0-.538-.016-.752.1-.764.752C2.96,6.41,2.934,6.41,5.231,6.41c1.529,0,2.257.505,2.268,1.578S6.779,9.61,5.272,9.61C3,9.61,3,9.61,3,12.025c0,.764.021,1.531,0,2.3A1.564,1.564,0,0,1,1.5,16,1.568,1.568,0,0,1,.022,14.286C-.012,12.181,0,10.085,0,7.988Z" transform="translate(44 38)" fill="#fdc379"/>
    <path id="Path-3" data-name="Path" d="M21,7.449a1.5,1.5,0,0,1-2.069,1.414,5.349,5.349,0,0,1-.8-.478c-2.34-1.557-4.685-3.1-7-4.691a.936.936,0,0,0-1.238,0c-2.4,1.632-4.825,3.23-7.24,4.842a1.762,1.762,0,0,1-1.48.42A1.472,1.472,0,0,1,.022,7.722a1.518,1.518,0,0,1,.8-1.57Q4.329,3.82,7.831,1.474C8.4,1.1,8.981.721,9.545.33a1.555,1.555,0,0,1,1.915,0q4.356,2.918,8.726,5.82A1.645,1.645,0,0,1,21,7.449Z" transform="translate(36 27)" fill="#fdc379"/>
    <path id="Path-4" data-name="Path" d="M18.926,3.735l-7.039,4.64c-1.266.835-1.516.835-2.78-.009L.919,2.9a1.567,1.567,0,0,1-.861-1.8,1.487,1.487,0,0,1,2.4-.754c2.355,1.539,4.7,3.08,7.011,4.693a1.457,1.457,0,0,0,2.046,0c1.106-.861,2.3-1.6,3.462-2.4q1.679-1.1,3.361-2.189c1.021-.667,1.836-.607,2.377.175s.3,1.613-.739,2.342C19.62,3.221,19.276,3.481,18.926,3.735Z" transform="translate(36 57)" fill="#fdc379"/>
    <path id="Path-5" data-name="Path" d="M3,9.106c0-1.7-.021-3.408.011-5.1.011-.585-.107-.88-.718-.8a3.056,3.056,0,0,1-.942-.014A1.519,1.519,0,0,1,0,1.658,1.578,1.578,0,0,1,.363.546a1.394,1.394,0,0,1,1-.5c2.1-.05,4.2-.062,6.294,0A1.429,1.429,0,0,1,9,1.572,1.578,1.578,0,0,1,7.627,3.2c-.516.08-1.261-.261-1.508.172A4.245,4.245,0,0,0,6,5.214v8.894c0,1.227-.754,2.025-1.7,1.874a1.63,1.63,0,0,1-1.3-1.8C2.99,12.5,3,10.8,3,9.106Z" transform="translate(56 38)" fill="#fdc379"/>
    <path id="Path-6" data-name="Path" d="M3,1.483A1.5,1.5,0,1,1,1.519,0,1.524,1.524,0,0,1,3,1.483Z" transform="translate(65 45)" fill="#fdc379"/>
    <path id="Path-7" data-name="Path" d="M1.524,3A1.5,1.5,0,1,1,3,1.5,1.53,1.53,0,0,1,1.524,3Z" transform="translate(25 45)" fill="#fdc379"/>
  </g>
</svg>
