<svg xmlns="http://www.w3.org/2000/svg" width="99.006" height="84" viewBox="0 0 99.006 84">
  <g id="Group_2" data-name="Group 2" transform="translate(0 0)">
    <path id="Shape" d="M7.545,84c-.062-.261-.3-.194-.464-.238a9.416,9.416,0,0,1-6.846-6.87c-.041-.169.025-.4-.235-.47V7.582c.345-.14.25-.5.324-.749A9.255,9.255,0,0,1,9.341,0h80.4A9.171,9.171,0,0,1,96.3,2.708,9.286,9.286,0,0,1,99,9.3q.018,32.7,0,65.4a9.251,9.251,0,0,1-6.25,8.786c-.548.194-1.114.339-1.672.508Z" fill="#6a5e51"/>
    <path id="Shape-2" data-name="Shape" d="M7.9,40.982A7.883,7.883,0,0,1,.024,33.218C-.01,30.1,0,26.985,0,23.869V14.327a3.124,3.124,0,0,1,3.307-3.27c1.332,0,2.665-.03,4,.012.579.02.7-.169.709-.711a19.9,19.9,0,0,1,.17-4.214A8.058,8.058,0,0,1,16.965.053a7.959,7.959,0,0,1,7.023,7.7c0,.884.03,1.777,0,2.655-.02.5.112.68.653.664,1.364-.04,2.729-.022,4.1-.013A3.122,3.122,0,0,1,32,14.278c0,6.331.018,12.659,0,18.987a7.87,7.87,0,0,1-7.815,7.715q-4.073.02-8.144.02T7.9,40.982Z" transform="translate(33.502 21.502)" fill="#fdc379"/>
  </g>
</svg>
