<svg xmlns="http://www.w3.org/2000/svg" width="106.996" height="84.004" viewBox="0 0 106.996 84.004">
  <g id="Group_1" data-name="Group 1" transform="translate(-0.01)">
    <path id="Shape" d="M2.975,11.2A5.868,5.868,0,0,1,0,6.008,5.866,5.866,0,0,1,2.96.812,6.1,6.1,0,0,1,9.025.8,5.866,5.866,0,0,1,12,5.991a5.866,5.866,0,0,1-2.958,5.2,6.1,6.1,0,0,1-6.065.009Z" transform="translate(82 44)" fill="#6a5e51"/>
    <path id="Shape-2" data-name="Shape" d="M2.423,84C.815,84,.309,83.513.309,81.9V72.16c0-.372-.006-.641-.309-.851H3.752a.538.538,0,0,0-.277.653c.109.643.6.334.9.334q8.685.024,17.366.016a5.115,5.115,0,0,1,.931.022A1.545,1.545,0,0,1,24.1,73.866a1.493,1.493,0,0,1-1.282,1.645,5.2,5.2,0,0,1-1.134.071c-5.787,0-11.577.015-17.364-.01-.657-.011-.906.132-.865.84a21.754,21.754,0,0,1,0,3.139c-.086.97.166,1.26,1.209,1.26,11.75-.044,23.5-.027,35.249-.027h1.345q16.843.012,33.689,0c4.214,0,7.1-2.7,7.215-6.832.085-3.209.011-6.422.033-9.634,0-.5-.121-.666-.635-.65-1.238.044-2.489.072-3.74,0-.746-.041-.819.265-.819.9.031,2.2.01,4.4.01,6.6C77,74.124,75.552,75.58,72.6,75.58H30.7a4.839,4.839,0,0,1-1.032-.068,1.5,1.5,0,0,1-1.3-1.636,1.545,1.545,0,0,1,1.42-1.543,5.679,5.679,0,0,1,1.042-.022q20.9-.022,41.8.016c.9,0,1.21-.23,1.183-1.172-.064-2.2-.058-4.4,0-6.594.022-.773-.235-.9-.931-.888-2.043.046-4.088.033-6.133.01A9.867,9.867,0,0,1,57.366,56.2a30.285,30.285,0,0,1-.272-9.791c.513-5.533,4.58-9.082,10.12-9.181q2.861-.058,5.719,0c.669.015.895-.142.877-.857-.052-2.094-.019-4.182-.019-6.283,0-1.5,0-1.5-1.459-1.5H36.981q-16.272.019-32.545-.014c-.732,0-1.031.1-.985.943a42.158,42.158,0,0,1,0,4.4,1.04,1.04,0,0,0,.156.756H.171a1.3,1.3,0,0,0,.148-.746C.292,29,.307,24.074.307,19.155c0-1.778.444-2.233,2.178-2.231H19.853c2,0,2,0,2.389-1.929.049-.238.106-.474.163-.71A18.549,18.549,0,0,1,26.02,6.842a1.539,1.539,0,0,1,2.28-.375,1.61,1.61,0,0,1,.257,2.321c-.156.231-.337.443-.5.668a15.424,15.424,0,0,0-2.71,6.47c-.069.387-.372,1.006.535.994,2.345-.022,4.693,0,7.022,0,.024-.1.049-.142.037-.167A5.893,5.893,0,0,1,38.2,8.42c.427,0,.544-.17.51-.559a4.15,4.15,0,0,1,0-.733,1.668,1.668,0,0,1,1.668-1.66,1.592,1.592,0,0,1,1.539,1.758c-.044.9.194,1.158,1.129,1.272a5.709,5.709,0,0,1,5.149,5.7,1.616,1.616,0,0,1-.711,1.422,1.559,1.559,0,0,1-2.431-1.241c-.319-2.009-1.1-2.691-3.127-2.691-1.251-.006-2.5-.025-3.753.014a2.488,2.488,0,0,0-2.5,2.813c.1,1.468,1.205,2.386,2.975,2.4,2.7.015,5.4,0,8.112,0h8.679c-.06-.411-.109-.751-.158-1.094A15.28,15.28,0,0,0,39.018,3.263a18.233,18.233,0,0,0-5.274,1.414,1.542,1.542,0,0,1-2.122-.729,1.658,1.658,0,0,1,.833-2.189c.4-.206.836-.328,1.237-.526,1.3-.638,2.77-.7,4.1-1.233h4.776c.075.065.138.187.208.187a18.194,18.194,0,0,1,15.73,15.587c.16,1.038.494,1.164,1.392,1.164,4.951-.041,9.9-.027,14.854-.013a12.694,12.694,0,0,1,2.479.158A10.048,10.048,0,0,1,85.412,27.2v9.3c0,.359-.144.787.4.939A6.128,6.128,0,0,1,90,41.891V46.08c-.51.712-1.109,1.279-2.07.943s-1.129-1.118-1.08-2a16.165,16.165,0,0,0,0-1.891,2.616,2.616,0,0,0-2.721-2.687c-5.787-.017-11.574-.042-17.361.011a6.725,6.725,0,0,0-6.515,6.557c-.035,2.094.077,4.193-.035,6.281a6.927,6.927,0,0,0,7.184,7.22c5.441-.04,10.882-.013,16.322-.013,2.111,0,3.11-1.013,3.127-3.138.013-1.5-.021-3,.023-4.5a1.529,1.529,0,0,1,1.8-1.538c.621.042.867.595,1.332.841v7.122c-.075.065-.184.12-.209.2a5.719,5.719,0,0,1-3.937,3.958c-.576.175-.442.534-.442.88,0,3.107.01,6.214,0,9.321A10.037,10.037,0,0,1,75.11,84Z" transform="translate(17)" fill="#6a5e51"/>
    <path id="Shape-3" data-name="Shape" d="M16.5,42a1.283,1.283,0,0,0-.3-.148,7.1,7.1,0,0,1,.021-13.514,1.226,1.226,0,0,0,.362-.192h3.64a1.24,1.24,0,0,0,.417.228,6.69,6.69,0,0,1,4.381,4.4c.212.648.516.751,1.1.751,5.41-.025,10.82-.036,16.23,0a1.832,1.832,0,0,0,1.569-.762c2.6-3.124,5.239-6.24,7.853-9.377.134-.16.434-.284.244-.665-4.261,0-8.558.021-12.851-.019a1.22,1.22,0,0,0-1.4.962,7.162,7.162,0,1,1,.073-5.07c.133.352.049.871.676.871h5.829c-3.017-3.583-5.867-6.96-8.7-10.352a1.023,1.023,0,0,0-.891-.385c-4.682.017-9.364.025-14.043,0a1.757,1.757,0,0,0-.315.025H16.152a10.8,10.8,0,0,0-1.967.019c-.589.074-.472.77-.657,1.192a7.137,7.137,0,0,1-7.743,4.173A7.158,7.158,0,0,1,5.435.169a6.931,6.931,0,0,1,8.02,4.068c.417,1.046.926,1.4,1.942,1.244a1.675,1.675,0,0,1,.519,0c.4.063.63-.006.761-.192h3.441c.146.167.394.211.812.211,2.346-.018,4.694-.018,7.041-.018,2.4,0,4.809,0,7.213-.018a3.047,3.047,0,0,1,2.6,1.19c3.351,4.055,6.764,8.06,10.129,12.1a1.827,1.827,0,0,0,1.578.737c4.821-.032,9.643-.014,14.462-.014,1.312,0,2.007.543,2.045,1.574.033,1.089-.649,1.685-2.018,1.685-2.148.013-4.3.033-6.45-.013a1.9,1.9,0,0,0-1.669.789c-3.384,4.072-6.818,8.1-10.2,12.18a2.632,2.632,0,0,1-2.239,1.014c-3.637-.022-7.274-.021-10.91-.021H26.15c-.56,0-.906.051-1.114.726a6.792,6.792,0,0,1-4.381,4.422,2.761,2.761,0,0,0-.4.167Z" transform="translate(0 30)" fill="#ffc378"/>
  </g>
</svg>
