<svg xmlns="http://www.w3.org/2000/svg" width="99" height="84" viewBox="0 0 99 84"><g id="Group_27" data-name="Group 27" transform="translate(0 0)"><g id="Group_26" data-name="Group 26"><path id="Shape" fill="#0e95fc" d="M7.545,84c-.062-.261-.3-.194-.464-.238A9.416,9.416,0,0,1,.235,76.892c-.041-.169.025-.4-.235-.47V7.582c.345-.14.25-.5.324-.749A9.255,9.255,0,0,1,9.341,0h80.4a9.171,9.171,0,0,1,6.556,2.708,9.286,9.286,0,0,1,2.7,6.594q.018,32.7,0,65.4a9.251,9.251,0,0,1-6.25,8.786c-.548.194-1.114.339-1.672.508Z"/></g><path id="Shape-2" fill="#5bebf3" d="M7.9,40.982A7.883,7.883,0,0,1,.024,33.218C-.01,30.1,0,26.985,0,23.869V14.327a3.124,3.124,0,0,1,3.307-3.27c1.332,0,2.665-.03,4,.012.579.02.7-.169.709-.711a19.9,19.9,0,0,1,.17-4.214A8.058,8.058,0,0,1,16.965.053a7.959,7.959,0,0,1,7.023,7.7c0,.884.03,1.777,0,2.655-.02.5.112.68.653.664,1.364-.04,2.729-.022,4.1-.013a3.122,3.122,0,0,1,3.256,3.219c0,6.331.018,12.659,0,18.987a7.87,7.87,0,0,1-7.815,7.715Q20.109,41,16.038,41T7.9,40.982Z" data-name="Shape" transform="translate(33 31)"/></g></svg>