<svg xmlns="http://www.w3.org/2000/svg" xmlns:xlink="http://www.w3.org/1999/xlink" width="39" height="42" version="1.1" viewBox="0 0 39 42"><title>user-box</title><g id="Scifi-theme" fill="none" fill-rule="evenodd" stroke="none" stroke-width="1"><g id="user-box"><rect id="Rectangle-Copy-11" width="39" height="42" x="0" y="0" fill="#022C41"/><polyline id="Path-4" stroke="#00FF8C" points="25.077 7.579 27.991 10.37 33.624 5.174"/><path id="Combined-Shape" fill="#CC9696" fill-rule="nonzero" d="M19.7093127,13.5 C21.1362101,13.5 22.5039745,14.0664565 23.5128761,15.0753581 C24.5216795,16.0841841 25.0882292,17.4526104 25.0882292,18.8797676 C25.0882292,20.3061198 24.5215566,21.6746455 23.5128711,22.683331 C23.2815947,22.9146022 23.0306431,23.1234374 22.7633417,23.307809 L22.6477927,23.3853217 L22.6268158,23.39834 L22.7325296,23.4303986 C24.2183346,23.8909023 25.5845802,24.6866895 26.7224617,25.7624272 L26.8318627,25.867403 L26.9278933,25.9621731 C28.7808029,27.8151676 29.8488679,30.3067838 29.9153323,32.9231987 L29.9177925,33.0519732 L29.9206623,33.5 L28.4641585,33.5 L28.4641585,33.1808497 C28.4641585,28.3556009 24.5344764,24.4259188 19.7092276,24.4259188 C14.9849505,24.4259188 11.1112191,28.1940518 10.9589762,32.8910123 L10.9555048,33.0336258 L10.9517113,33.5 L9.50056669,33.5 L9.49973865,33.1816479 C9.49299257,30.4717132 10.5698488,27.8725419 12.4905815,25.9621109 C13.6334581,24.819811 15.0246807,23.9706549 16.5460636,23.4747684 L16.689071,23.4293159 L16.7942378,23.3972762 L16.7734427,23.3841857 C16.5363934,23.229663 16.3114073,23.0563328 16.100719,22.8655642 L15.9965767,22.7687331 L15.9074558,22.6816516 C14.9472431,21.7216541 14.3864033,20.4364117 14.3336074,19.0798858 L14.3306526,18.9805043 L14.3295644,18.8787186 C14.3304491,17.4521872 14.897292,16.0838154 15.9057543,15.0753531 C16.9146795,14.0664505 18.2824236,13.5 19.7093127,13.5 Z M19.7995308,14.9545517 L19.7057959,14.9535187 L19.6181833,14.9545921 C18.6100816,14.9795481 17.6492197,15.390437 16.9347388,16.104918 C16.2415817,16.798203 15.8332298,17.7245225 15.7875323,18.6977951 L15.784313,18.7891713 L15.7831683,18.8788527 C15.7831683,19.9195693 16.1970279,20.9182873 16.9330644,21.6550918 C17.6693601,22.3914268 18.6678341,22.8049758 19.7093127,22.8049758 C20.7507767,22.8049758 21.7492159,22.3914369 22.4854554,21.6551974 C23.221612,20.9183122 23.6354571,19.9196343 23.6354571,18.8788314 C23.6354571,17.8388429 23.2215257,16.8401546 22.485561,16.1034221 C21.7919328,15.4097569 20.8650583,15.0019856 19.890983,14.9576418 L19.7995308,14.9545517 Z"/></g></g></svg>