<svg xmlns="http://www.w3.org/2000/svg" width="45" height="45" viewBox="0 0 45 45">
  <g id="Group_3" data-name="Group 3" transform="translate(-161.5 0.5)">
    <circle id="Oval_Copy_12" data-name="Oval Copy 12" cx="22" cy="22" r="22" transform="translate(162)" fill="none" stroke="#434565" stroke-miterlimit="10" stroke-width="1"/>
    <path id="Path" d="M25,2.366a10.334,10.334,0,0,1-2.944.8A5.085,5.085,0,0,0,24.31.369a10.427,10.427,0,0,1-3.258,1.226A5.151,5.151,0,0,0,17.308,0a5.091,5.091,0,0,0-5.129,5.05,4.984,4.984,0,0,0,.133,1.15A14.63,14.63,0,0,1,1.742.924,4.948,4.948,0,0,0,1.05,3.462a5.029,5.029,0,0,0,2.279,4.2,5.193,5.193,0,0,1-2.322-.635v.063A5.076,5.076,0,0,0,5.12,12.048a5.3,5.3,0,0,1-1.35.176A4.967,4.967,0,0,1,2.8,12.13a5.124,5.124,0,0,0,4.79,3.51A10.4,10.4,0,0,1,1.225,17.8,11.006,11.006,0,0,1,0,17.729,14.652,14.652,0,0,0,7.861,20,14.374,14.374,0,0,0,22.453,5.63l-.019-.653A10.15,10.15,0,0,0,25,2.366Z" transform="translate(173 12)" fill="#fff"/>
  </g>
</svg>
